<svg version="1.1" id="Layer_1" xmlns="http://www.w3.org/2000/svg" xmlns:xlink="http://www.w3.org/1999/xlink" x="0px" y="0px" viewBox="0 0 500 500" style="width: 142px;" xml:space="preserve" data-imageid="chart-6-88" imageName="Chart 6" class="illustrations_image">
<style type="text/css">
	.st0_chart-6-88{fill:#FFFFFF;}
	.st1_chart-6-88{fill:#231F20;}
	.st2_chart-6-88{fill:#68E1FD;}
	.st3_chart-6-88{fill:#D1D3D4;}
</style>
<g id="character_male_chart-6-88">
	<path class="st0_chart-6-88" d="M374.1,158.4c0,0-1.6-4.7-1.6-5s1.2-4.7,0.7-6s-3.1-5.6-4.2-5.3s0.1,3.1,0.5,3.8c-0.7-2-3.8-3.1-5.5-4.1&#10;&#9;&#9;c-2.5-1.3-5.4-1.7-8.2-1.1c-1,0.1-2,0.5-2.8,1.1c-0.8,0.6-1.1,1.7-0.8,2.7c0.6,1.3,2.4,1.4,3.5,2.4c1.7,1.4,2.8,4.7,3.7,6.7&#10;&#9;&#9;c1.3,2.9,2.7,5.8,4,8.8"/>
	<path class="st1_chart-6-88" d="M363.4,163c-0.3,0-0.5-0.1-0.6-0.4l-4-8.8c-0.2-0.4-0.4-0.8-0.5-1.2c-0.8-1.9-1.8-4.1-3-5.2&#10;&#9;&#9;c-0.4-0.3-0.9-0.6-1.4-0.8c-1-0.3-1.8-1-2.3-1.8c-0.5-1.2-0.1-2.7,1-3.5c0.9-0.7,2-1.1,3.1-1.2c2.9-0.6,6-0.2,8.6,1.1&#10;&#9;&#9;c0.4,0.2,0.8,0.4,1.2,0.6c0.8,0.4,1.6,0.8,2.4,1.3c0-0.3,0-0.7,0.1-1c0.2-0.3,0.5-0.6,0.8-0.7c2-0.6,5,5.6,5,5.7&#10;&#9;&#9;c0.5,1.1,0,3.5-0.5,5.6c-0.1,0.3-0.1,0.6-0.1,0.7s0.8,2.6,1.5,4.7c0.1,0.3,0,0.7-0.4,0.9s-0.7,0-0.9-0.4c0,0,0,0,0-0.1&#10;&#9;&#9;c-1.6-4.8-1.6-5.1-1.6-5.2c0-0.3,0.1-0.6,0.2-0.9c0.2-1,0.9-4,0.5-4.8c-0.6-1.6-2.8-4.8-3.5-4.9c0.1,0.8,0.3,1.6,0.7,2.3&#10;&#9;&#9;c0.1,0.2,0.2,0.4,0.3,0.6c0.1,0.3-0.1,0.7-0.4,0.8c-0.3,0.1-0.7,0-0.8-0.3c-0.1-0.2-0.2-0.3-0.2-0.5c-0.7-1.1-2.4-2-3.8-2.7&#10;&#9;&#9;c-0.5-0.2-0.9-0.4-1.3-0.6c-2.4-1.2-5.1-1.6-7.8-1c-0.9,0.1-1.8,0.4-2.5,0.9c-0.6,0.5-0.8,1.2-0.6,1.9c0.3,0.6,0.9,0.9,1.7,1.2&#10;&#9;&#9;c0.6,0.2,1.2,0.6,1.7,0.9c1.5,1.3,2.5,3.7,3.4,5.7c0.2,0.4,0.4,0.9,0.5,1.2l4,8.8c0.1,0.3,0,0.7-0.3,0.9&#10;&#9;&#9;C363.6,162.9,363.5,163,363.4,163L363.4,163z"/>
	<path class="st0_chart-6-88" d="M369.4,145.9c0,0-4.2,1.3-2.4,6.3"/>
	<path class="st1_chart-6-88" d="M367,152.8c-0.3,0-0.5-0.2-0.6-0.4c-0.7-1.5-0.7-3.2,0-4.7c0.6-1.1,1.6-2,2.8-2.4c0.4-0.1,0.7,0.1,0.8,0.4&#10;&#9;&#9;c0.1,0.3-0.1,0.7-0.4,0.8c-0.9,0.3-1.6,1-2,1.8c-0.5,1.2-0.5,2.5,0.1,3.6c0.1,0.3-0.1,0.7-0.4,0.8&#10;&#9;&#9;C367.1,152.8,367.1,152.8,367,152.8z"/>
	<polygon class="st2_chart-6-88 targetColor" points="402,211.1 376.6,155.9 359.6,159.1 385.4,240.2 &#9;" style="fill: rgb(90, 197, 24);"/>
	<path class="st0_chart-6-88" d="M430.1,386.3c0,0,0.8,5-0.4,6.9c-1.6,2.7-2.5,5.7-2.7,8.8c1.9,2.1,4.5,3.3,7.3,3.3c4.6,0,9.2-3.5,9.7-5.1&#10;&#9;&#9;s-3.7-19.3-3.7-19.3L430.1,386.3z"/>
	<path class="st1_chart-6-88" d="M434.3,406c-3,0-5.8-1.3-7.8-3.6c-0.1-0.1-0.2-0.3-0.1-0.5c0.5-4.9,1.7-7.3,2.8-9.1c0.8-1.4,0.5-5.1,0.3-6.5&#10;&#9;&#9;c0-0.3,0.1-0.6,0.3-0.7l10.2-5.4c0.2-0.1,0.4-0.1,0.6,0c0.2,0.1,0.3,0.3,0.4,0.5c1,4.2,4.2,17.9,3.7,19.6&#10;&#9;&#9;C444.1,402.3,439.3,406,434.3,406z M427.7,401.8c1.7,1.8,4.1,2.8,6.6,2.9c4.3,0,8.7-3.3,9.1-4.6c0.2-1.1-1.6-10-3.5-18.1l-9,4.8&#10;&#9;&#9;c0.2,1.4,0.5,5.1-0.5,6.9C428.8,396.1,428,398.9,427.7,401.8L427.7,401.8z"/>
	<path class="st0_chart-6-88" d="M391.1,274.5l22.1,6.1l5.1-64c0,0-18.3-4.3-22.8-2.3S391.1,274.5,391.1,274.5z"/>
	<path class="st1_chart-6-88" d="M413.2,281.3H413l-22.1-6.1c-0.3-0.1-0.5-0.3-0.5-0.6c0-9.8,0.3-58.6,4.9-60.8s22.4,2.1,23.2,2.2&#10;&#9;&#9;c0.3,0.1,0.5,0.4,0.5,0.7l-5.1,64c0,0.2-0.1,0.4-0.3,0.5C413.5,281.3,413.3,281.3,413.2,281.3z M391.7,274l20.9,5.8l5-62.6&#10;&#9;&#9;c-5.4-1.2-18.4-3.8-21.8-2.2C393.3,216.1,391.8,245.8,391.7,274z"/>
	<path class="st0_chart-6-88" d="M398.5,375.9v15l-7.1,2l0.2-3.1l-3.2,3.2c0,0-19.2,3.5-19.1,0.9s2-4,4.5-5.2c2.6-1.4,9.5-5.2,9.5-5.2l1-11"/>
	<path class="st1_chart-6-88" d="M372.8,395.6c-1.9,0-3.3-0.2-3.9-0.7c-0.3-0.2-0.4-0.6-0.4-0.9c0.1-2.9,2.4-4.5,4.8-5.8&#10;&#9;&#9;c2.3-1.2,7.8-4.3,9.1-5.1l1-10.6c0-0.4,0.4-0.6,0.7-0.6c0,0,0,0,0,0c0.4,0,0.6,0.4,0.6,0.7l-1,11c0,0.2-0.1,0.4-0.3,0.5&#10;&#9;&#9;c-0.1,0-6.9,3.9-9.5,5.2c-2.4,1.3-4,2.5-4.1,4.7c0.9,0.9,10.1-0.1,18.1-1.5l3.1-3.1c0.2-0.2,0.5-0.2,0.7-0.1&#10;&#9;&#9;c0.3,0.1,0.4,0.4,0.4,0.6L392,392l5.8-1.6v-14.5c0-0.4,0.3-0.7,0.7-0.7s0.7,0.3,0.7,0.7v15c0,0.3-0.2,0.6-0.5,0.6l-7.1,2&#10;&#9;&#9;c-0.2,0.1-0.4,0-0.6-0.1c-0.2-0.1-0.3-0.3-0.2-0.5l0.1-1.3l-2,2c-0.1,0.1-0.2,0.2-0.4,0.2C385.4,394.3,377.6,395.6,372.8,395.6z"/>
	<path class="st1_chart-6-88" d="M432.8,280.5l13.3,104.7c0,0-0.6,4.2-9.6,4.7s-8.1-1.6-8.1-1.6l-21.5-74.4l-5.8,66.2l-19.5,1.2l3.9-108.9&#10;&#9;&#9;L432.8,280.5z"/>
	<path class="st1_chart-6-88" d="M433.9,390.7c-3.3,0-5.3-0.5-6-1.4c-0.2-0.3-0.3-0.6-0.2-0.9l-20.4-70.9l-5.5,62.7c0,0.3-0.3,0.6-0.6,0.6&#10;&#9;&#9;l-19.5,1.2c-0.2,0-0.4-0.1-0.5-0.2c-0.1-0.1-0.2-0.3-0.2-0.5l3.9-108.9c0-0.2,0.1-0.4,0.2-0.5c0.1-0.1,0.3-0.2,0.5-0.1l47.3,8.1&#10;&#9;&#9;c0.3,0,0.5,0.3,0.5,0.6l13.3,104.7c0,0.1,0,0.1,0,0.2c0,0.2-0.8,4.7-10.2,5.2C435.6,390.6,434.7,390.7,433.9,390.7z M429,388.6&#10;&#9;&#9;c0.1,0,0.9,1.1,7.5,0.7c7.6-0.4,8.8-3.5,9-4l-13.2-104.2l-46-7.9l-3.8,107.4l18.2-1.1l5.7-65.7c0-0.3,0.3-0.6,0.6-0.6&#10;&#9;&#9;c0.3,0,0.6,0.2,0.7,0.5l21.5,74.4C429.1,388.3,429.1,388.4,429,388.6L429,388.6z"/>
	<path class="st2_chart-6-88 targetColor" d="M414.2,208.6c0,0-7,73.6-3.5,78.1s18.6,10.3,25.5,4.9s3.2-63,0.1-67.8C427.8,216.6,414.2,208.6,414.2,208.6z" style="fill: rgb(90, 197, 24);"/>
	<path class="st2_chart-6-88 targetColor" d="M385.5,211.3c0,0-14.5,71.6-12.4,73.6s16.1,6.4,19.2,4.3s9.7-78.2,9.7-78.2S389.9,207.5,385.5,211.3z" style="fill: rgb(90, 197, 24);"/>
	<polygon class="st3_chart-6-88" points="405.5,222.5 407.3,225.5 396.9,268.1 401,274.3 407.2,269.6 409.3,226.1 411.8,223.2 409.1,220.9 &#9;"/>
	<path class="st0_chart-6-88" d="M403.5,205.6l-2.7,9c0,0-0.1,4.5,6.4,4.9s8.6-3.4,8.6-3.4l4.4-17c0,0-3-3.7,1.3-13c0,0-10.1,0-18.7-3.9&#10;&#9;&#9;c0,0-3.5,10.9-4.2,15.7S403.5,205.6,403.5,205.6z"/>
	<path class="st1_chart-6-88" d="M408.1,220.2c-0.3,0-0.6,0-1,0c-7-0.4-7-5.5-7-5.5c0-0.1,0-0.1,0-0.2l2.5-8.5c-1.4-0.9-5.4-3.6-4.8-8.1&#10;&#9;&#9;c0.7-4.9,4.1-15.4,4.2-15.8c0.1-0.2,0.2-0.3,0.4-0.4c0.2-0.1,0.4-0.1,0.5,0c8.3,3.8,18.3,3.8,18.4,3.8c0.2,0,0.4,0.1,0.6,0.3&#10;&#9;&#9;c0.1,0.2,0.1,0.4,0,0.6c-4,8.7-1.4,12.2-1.4,12.3c0.1,0.2,0.2,0.4,0.1,0.6l-4.4,16.9c0,0.1,0,0.1-0.1,0.1&#10;&#9;&#9;C416.3,216.5,414.2,220.2,408.1,220.2z M401.5,214.7c0,0.6,0.5,3.8,5.8,4.1c5.5,0.4,7.6-2.6,7.9-3.1l4.3-16.6&#10;&#9;&#9;c-0.6-1.1-2.2-4.9,1-12.4c-5.9-0.2-11.8-1.5-17.3-3.6c-0.8,2.5-3.4,10.9-4,14.9c-0.6,4.3,4.5,7,4.5,7c0.3,0.1,0.4,0.5,0.3,0.8&#10;&#9;&#9;L401.5,214.7z"/>
	<path class="st0_chart-6-88" d="M417.5,197.8c0.5-0.8,1.2-1.4,2-1.7c0.8-0.3,1.6-0.4,2.4-0.4c0.5,0,0.9,0,1.3,0.2c0.3,0.1,0.5,0.3,0.8,0.6&#10;&#9;&#9;c0.6,0.5,0.9,1.2,1,2c0,0.6-0.2,1.2-0.5,1.7c-0.3,0.6-0.6,1.2-1,1.7c-1.8,2.1-4.9,2.3-7,0.5"/>
	<path class="st1_chart-6-88" d="M419.8,204.2c-1.4,0-2.7-0.5-3.8-1.4c-0.3-0.2-0.3-0.7-0.1-0.9s0.7-0.3,0.9-0.1l0,0c0.9,0.7,2,1.1,3.1,1&#10;&#9;&#9;c1.2-0.1,2.2-0.6,3-1.5c0.4-0.5,0.7-1,0.9-1.5c0.2-0.4,0.4-0.9,0.4-1.4c-0.1-0.6-0.4-1.1-0.8-1.5c-0.2-0.2-0.3-0.3-0.5-0.4&#10;&#9;&#9;c-0.3-0.1-0.7-0.1-1-0.1c-0.8,0-1.5,0.1-2.2,0.4c-0.7,0.3-1.3,0.8-1.6,1.4c-0.2,0.3-0.6,0.4-0.9,0.2c0,0,0,0,0,0&#10;&#9;&#9;c-0.3-0.2-0.4-0.6-0.2-0.9c0,0,0,0,0,0c0.5-0.9,1.3-1.6,2.3-2c0.9-0.3,1.7-0.5,2.6-0.4c0.5-0.1,1.1,0,1.6,0.2&#10;&#9;&#9;c0.4,0.2,0.7,0.4,1,0.7c0.7,0.6,1.1,1.5,1.2,2.4c0,0.7-0.2,1.4-0.5,2c-0.3,0.7-0.7,1.4-1.2,2c-1,1.2-2.4,1.9-3.9,2L419.8,204.2z"/>
	<path class="st0_chart-6-88" d="M405.2,190.8c0,0-4.7,3.5-4.3,4.6s2.7,1.2,2.7,1.2"/>
	<path class="st1_chart-6-88" d="M403.6,197.3L403.6,197.3c-0.5,0-2.7-0.3-3.3-1.6c-0.4-1,1.1-2.8,4.5-5.4c0.3-0.2,0.7-0.2,0.9,0.1&#10;&#9;&#9;c0.2,0.3,0.2,0.7-0.1,0.9c-2.1,1.6-4,3.4-4,3.9c0.2,0.4,1.4,0.7,2.1,0.8c0.4,0,0.6,0.3,0.6,0.7S404,197.3,403.6,197.3L403.6,197.3&#10;&#9;&#9;L403.6,197.3z"/>
	
		<ellipse transform="matrix(0.5221 -0.8529 0.8529 0.5221 33.4764 439.2523)" class="st1_chart-6-88" cx="408.7" cy="189.8" rx="1.1" ry="0.8"/>
	<ellipse transform="matrix(0.5221 -0.8529 0.8529 0.5221 32.5203 434.0395)" class="st1_chart-6-88" cx="403.5" cy="188" rx="1.1" ry="0.8"/>
	<path class="st0_chart-6-88" d="M401.8,198.5l4.1,1c0,0-0.2,3.1-2.6,3.2S401.8,198.5,401.8,198.5z"/>
	<path class="st1_chart-6-88" d="M403.2,203.4c-0.6,0-1.1-0.2-1.5-0.6c-1.1-1.3-0.6-4-0.6-4.4c0-0.2,0.1-0.3,0.3-0.4c0.1-0.1,0.3-0.1,0.5-0.1&#10;&#9;&#9;l4.1,1c0.3,0.1,0.5,0.4,0.5,0.7c-0.1,1.3-0.9,3.7-3.2,3.8L403.2,203.4z M402.4,199.3c-0.2,0.9,0,1.8,0.4,2.5&#10;&#9;&#9;c0.1,0.2,0.4,0.2,0.6,0.2c1.2-0.1,1.7-1.3,1.9-2.1L402.4,199.3z"/>
	<path class="st1_chart-6-88" d="M403.5,205.6c0,0,4.7,1.3,7.2,0.6c0,0-3.3,4.9-8.8,4.8L403.5,205.6z"/>
	<path class="st1_chart-6-88" d="M402.1,211.7L402.1,211.7c-0.3,0-0.5-0.1-0.6-0.3c-0.1-0.2-0.2-0.4-0.1-0.6l1.5-5.4c0.1-0.3,0.5-0.5,0.8-0.4&#10;&#9;&#9;c0,0,4.5,1.2,6.9,0.6c0.4-0.1,0.7,0.1,0.8,0.5c0,0.2,0,0.4-0.1,0.5C411.2,206.8,407.8,211.7,402.1,211.7z M404,206.4l-1.1,3.9&#10;&#9;&#9;c2.4-0.3,4.7-1.5,6.3-3.3C407.4,207.1,405.7,206.9,404,206.4L404,206.4z"/>
	<path class="st1_chart-6-88" d="M382.7,282.1c-0.2,0-0.4-0.1-0.5-0.2c-0.2-0.3-0.2-0.7,0.1-0.9c0,0,0,0,0,0l8.3-6.9c0.3-0.2,0.7-0.1,0.9,0.2&#10;&#9;&#9;c0.2,0.2,0.1,0.6-0.1,0.8l-8.3,6.9C383,282,382.9,282.1,382.7,282.1z"/>
	<path class="st1_chart-6-88" d="M429.7,282.1c-0.1,0-0.3,0-0.4-0.1c-5.1-3.3-11.2-7.5-11.5-8.5c-0.1-0.3,0-0.7,0.4-0.9c0.3-0.1,0.7,0,0.9,0.4&#10;&#9;&#9;c0.5,0.8,6,4.6,11,7.9c0.3,0.2,0.4,0.6,0.2,0.9C430.1,282,429.9,282.1,429.7,282.1z"/>
	<path class="st1_chart-6-88" d="M397.3,242.1c-0.2,0-0.4-0.1-0.5-0.3l-8.3-11.6c-0.2-0.3-0.1-0.7,0.2-0.9c0,0,0,0,0,0l5.3-3.4l-4.3-2.9&#10;&#9;&#9;c-0.2-0.1-0.3-0.3-0.3-0.5c0-0.2,0-0.4,0.2-0.5l6.1-6.1c0.3-0.2,0.7-0.2,0.9,0.1c0.2,0.2,0.2,0.6,0,0.9l-5.6,5.6l4.4,3&#10;&#9;&#9;c0.2,0.1,0.3,0.3,0.3,0.6c0,0.2-0.1,0.4-0.3,0.6L390,230l7.9,11.1c0.2,0.3,0.1,0.7-0.2,0.9C397.5,242,397.4,242.1,397.3,242.1&#10;&#9;&#9;L397.3,242.1z"/>
	<path class="st0_chart-6-88" d="M406.7,317.5c-0.3,0-0.6-0.2-0.6-0.5c-0.2-1-3.8-23.9-3.6-28.2c0-0.4,0.3-0.7,0.6-0.7c0.4,0,0.7,0.3,0.7,0.6&#10;&#9;&#9;c0,0,0,0.1,0,0.1c-0.2,4.2,3.5,27.7,3.6,28c0.1,0.4-0.2,0.7-0.5,0.7c0,0,0,0,0,0L406.7,317.5z"/>
	<path class="st1_chart-6-88" d="M427.1,195.6c-0.1,0-0.2,0-0.3-0.1c-0.3-0.2-0.5-0.5-0.3-0.9c0,0,0,0,0,0c1.7-3.6,1.3-7.8-1.1-10.9l-0.1-0.1&#10;&#9;&#9;c-0.3-0.3-0.5-0.7-0.7-1.1c-0.1-0.3-0.2-0.7-0.2-1v-0.2c-0.5-2.5-2.1-4.6-4.2-5.9c-2.3-1.3-4.7-2.2-7.3-2.6c-2-0.5-4-0.6-6-0.4&#10;&#9;&#9;c-1.9,0.2-3.6,1.3-4.6,3c-0.9,1.6-0.4,3.6,1,4.7c0.3,0.2,0.4,0.6,0.2,0.9c0,0,0,0,0,0c-0.2,0.3-0.6,0.4-0.9,0.2&#10;&#9;&#9;c-2-1.5-2.7-4.2-1.5-6.4c1.1-2,3.2-3.4,5.5-3.8c2.2-0.3,4.4-0.2,6.5,0.4c2.7,0.4,5.4,1.4,7.8,2.8c2.5,1.5,4.3,4,4.9,6.8v0.2&#10;&#9;&#9;c0,0.2,0.1,0.5,0.1,0.7c0.1,0.3,0.3,0.5,0.5,0.8l0.1,0.2c2.7,3.5,3.2,8.3,1.2,12.3C427.6,195.5,427.4,195.6,427.1,195.6z"/>
	<path class="st1_chart-6-88" d="M415.1,245c-0.2,0-0.3-0.1-0.4-0.2c-0.3-0.3-0.3-0.7,0-0.9c0,0,0,0,0,0l9.8-11l-5.2-6.5&#10;&#9;&#9;c-0.2-0.3-0.2-0.7,0.1-0.9c0.1-0.1,0.2-0.1,0.3-0.1l6.9-1.1l-6.8-8.7c-0.2-0.3-0.2-0.7,0.1-0.9c0.3-0.2,0.7-0.2,0.9,0.1l7.5,9.6&#10;&#9;&#9;c0.1,0.2,0.2,0.4,0.1,0.6c-0.1,0.2-0.3,0.4-0.5,0.4l-6.9,1.1l4.9,6c0.2,0.2,0.2,0.6,0,0.9l-10.1,11.5&#10;&#9;&#9;C415.5,244.9,415.3,245,415.1,245z"/>
	<path class="st0_chart-6-88" d="M441.1,288.7c0,0-2,3.9-3.2,4.5c-0.9,0.5-2,0.6-3,0.4c0.2,1.6,0.6,2.3-0.1,3.8c-0.9,1.7-2.8,3.4-4.1,4.8&#10;&#9;&#9;c-0.6,0.6-1,1.2-1.2,2c-0.1,1.1,0.3,2.1,1.1,2.8c0.8,0.7,1.8,1.2,2.8,1.5c0.3,0.2,0.7,0.2,1,0.2c0.2-0.1,0.3-0.1,0.5-0.2&#10;&#9;&#9;c3-1.9,5.8-4,8.5-6.3c2.2-1.9,3.6-4.8,5.3-7.5"/>
	<path class="st1_chart-6-88" d="M434.3,309.4c-0.4,0-0.7-0.1-1-0.3c-1.1-0.4-2.1-0.9-3-1.6c-1-0.8-1.5-2.1-1.3-3.4c0.2-0.9,0.7-1.7,1.3-2.3&#10;&#9;&#9;c0.4-0.5,0.9-1,1.4-1.5c1-0.9,1.9-2,2.6-3.2c0.4-0.7,0.4-1.6,0.2-2.3c-0.1-0.3-0.1-0.6-0.2-1c0-0.2,0-0.4,0.2-0.6&#10;&#9;&#9;c0.1-0.1,0.3-0.2,0.5-0.2c0.9,0.2,1.7,0.1,2.5-0.3c0.7-0.4,2.1-2.7,2.9-4.3c0.2-0.3,0.6-0.4,0.9-0.3c0,0,0,0,0,0&#10;&#9;&#9;c0.3,0.2,0.5,0.6,0.3,0.9c0,0,0,0,0,0c-0.4,0.7-2.2,4.1-3.5,4.8c-0.8,0.4-1.6,0.6-2.5,0.5v0.1c0.3,1.1,0.2,2.2-0.3,3.2&#10;&#9;&#9;c-0.8,1.3-1.7,2.5-2.8,3.5c-0.5,0.5-1,1-1.3,1.5c-0.5,0.5-0.8,1.1-1,1.7c-0.1,0.8,0.3,1.7,0.9,2.2c0.8,0.6,1.6,1.1,2.6,1.4&#10;&#9;&#9;c0.2,0.1,0.4,0.1,0.6,0.1c0.1,0,0.2-0.1,0.3-0.1c2.9-1.9,5.7-4,8.4-6.3c1.6-1.6,3-3.5,4.1-5.5c0.4-0.6,0.7-1.2,1.1-1.8&#10;&#9;&#9;c0.2-0.3,0.6-0.5,0.9-0.3c0.3,0.2,0.5,0.6,0.3,0.9c0,0,0,0.1-0.1,0.1c-0.4,0.6-0.7,1.2-1,1.8c-1.1,2.2-2.6,4.1-4.3,5.9&#10;&#9;&#9;c-2.7,2.3-5.6,4.5-8.5,6.4c-0.2,0.1-0.4,0.2-0.7,0.3C434.5,309.4,434.4,309.4,434.3,309.4z"/>
	<path class="st2_chart-6-88 targetColor" d="M436.2,223.8c0,0,20,15.2,27.4,34.2c5.9,15.3-14.7,41.3-14.7,41.3l-11.2-10.7c0,0,9.1-13.6,8.3-21.1&#10;&#9;&#9;s-15.7-18.1-15.7-18.1L436.2,223.8z" style="fill: rgb(90, 197, 24);"/>
	<path class="st1_chart-6-88" d="M439.5,266.7c-0.4,0-0.7-0.3-0.7-0.6c0,0,0,0,0,0l-0.2-26.6c0-0.4,0.3-0.7,0.6-0.7c0,0,0,0,0,0l0,0&#10;&#9;&#9;c0.4,0,0.7,0.3,0.7,0.7l0.2,26.7C440.1,266.4,439.8,266.7,439.5,266.7L439.5,266.7z"/>
	<path class="st0_chart-6-88" d="M426.9,300c-0.1,0-0.3,0-0.4-0.1c-1.6-1.3-3.3-2.4-5-3.4c-0.3-0.2-0.5-0.5-0.3-0.9c0.1-0.3,0.5-0.5,0.9-0.3&#10;&#9;&#9;c1.9,1,3.6,2.2,5.3,3.5c0.3,0.2,0.3,0.6,0.1,0.9C427.3,299.9,427.1,300,426.9,300z"/>
	<path class="st0_chart-6-88" d="M385.9,298.3c-0.2,0-0.4-0.1-0.6-0.3c-0.2-0.3-0.1-0.7,0.2-0.9l6.9-4.1c0.3-0.2,0.7-0.1,0.9,0.2&#10;&#9;&#9;c0.2,0.3,0.1,0.7-0.2,0.9c0,0,0,0,0,0l-6.9,4.1C386.2,298.3,386,298.3,385.9,298.3z"/>
</g>
<g id="graphic_chart-6-88">
	<rect x="184.7" y="215.5" class="st0_chart-6-88" width="73.5" height="171.9"/>
	<path class="st1_chart-6-88" d="M258.2,215.5v171.9h-73.5V215.5H258.2 M258.2,214.3h-73.5c-0.7,0-1.2,0.5-1.2,1.2v0v171.9&#10;&#9;&#9;c0,0.7,0.5,1.2,1.2,1.2h73.5c0.7,0,1.2-0.5,1.2-1.2v0V215.5C259.4,214.9,258.9,214.3,258.2,214.3z"/>
	<rect x="83.9" y="273.6" class="st0_chart-6-88" width="73.5" height="113.8"/>
	<path class="st1_chart-6-88" d="M157.4,273.6v113.8H83.9V273.6H157.4 M157.4,272.4H83.9c-0.7,0-1.2,0.5-1.2,1.2v113.8c0,0.7,0.5,1.2,1.2,1.2&#10;&#9;&#9;h73.5c0.7,0,1.2-0.5,1.2-1.2l0,0V273.6C158.6,272.9,158.1,272.4,157.4,272.4C157.4,272.4,157.4,272.4,157.4,272.4z"/>
	<rect x="285.5" y="148.3" class="st0_chart-6-88" width="73.5" height="239.1"/>
	<path class="st1_chart-6-88" d="M359,148.3v239.1h-73.5V148.3H359 M359,147.1h-73.5c-0.7,0-1.2,0.5-1.2,1.2c0,0,0,0,0,0v239.1&#10;&#9;&#9;c0,0.7,0.5,1.2,1.2,1.2h0H359c0.7,0,1.2-0.5,1.2-1.2v0V148.3C360.2,147.6,359.7,147.1,359,147.1L359,147.1z"/>
</g>
<g id="x_and_y_axis_chart-6-88">
	<path class="st3_chart-6-88" d="M471.4,388.8H61.2c-0.4,0-0.7-0.3-0.7-0.7l0,0V130.3c0-0.4,0.3-0.7,0.7-0.7c0.4,0,0.7,0.3,0.7,0.7v257.2h409.5&#10;&#9;&#9;c0.4,0,0.7,0.3,0.7,0.7S471.7,388.8,471.4,388.8z"/>
	<path class="st3_chart-6-88" d="M73.6,388.7H30.5c-0.4,0-0.7-0.3-0.7-0.7s0.3-0.7,0.7-0.7h43.1c0.4,0,0.7,0.3,0.7,0.7S74,388.7,73.6,388.7z"/>
</g>
<g id="line_chart-6-88">
	<polygon class="st2_chart-6-88 targetColor" points="330.1,183.1 315,189.3 333.8,198.1 &#9;" style="fill: rgb(90, 197, 24);"/>
	<path class="st2_chart-6-88 targetColor" d="M65.5,383.9c-0.7,0-1.3-0.6-1.3-1.4c0-0.2,0.1-0.4,0.2-0.6l58.3-90.3c0.4-0.6,1.2-0.8,1.9-0.4&#10;&#9;&#9;c0.1,0.1,0.2,0.1,0.2,0.2l46.5,50.4l53.6-98.3c0.4-0.6,1.2-0.9,1.8-0.5c0.1,0.1,0.3,0.2,0.4,0.3l47.3,58.1l51.4-112.7&#10;&#9;&#9;c0.3-0.7,1.1-1,1.8-0.6s1,1.1,0.6,1.8l-52.3,114.6c-0.3,0.7-1.1,1-1.8,0.6c-0.2-0.1-0.3-0.2-0.5-0.4l-47.4-58.3l-53.5,98.2&#10;&#9;&#9;c-0.4,0.6-1.2,0.9-1.8,0.5c-0.1-0.1-0.2-0.2-0.3-0.3L124,294.4l-57.3,88.9C66.4,383.7,66,383.9,65.5,383.9z" style="fill: rgb(90, 197, 24);"/>
</g>
<g id="plant_chart-6-88">
	<path class="st0_chart-6-88" d="M220.7,364c2.6-2.4,5.6-4.3,8.9-5.8c0.3,9.5-3.6,18.2-7.1,24.2h-11.6"/>
	<path class="st1_chart-6-88" d="M222.5,383h-11.6c-0.4,0-0.7-0.3-0.7-0.7s0.3-0.7,0.7-0.7h11.2c3.2-5.5,6.9-13.6,6.9-22.5&#10;&#9;&#9;c-2.8,1.4-5.4,3.2-7.8,5.3c-0.3,0.2-0.7,0.2-0.9,0c-0.3-0.3-0.3-0.7,0-0.9c2.7-2.4,5.8-4.4,9.1-5.9c0.3-0.1,0.7,0,0.9,0.4&#10;&#9;&#9;c0,0.1,0,0.2,0,0.2c0.3,9.8-3.8,18.8-7.2,24.6C222.9,382.9,222.7,383,222.5,383z"/>
	<path class="st0_chart-6-88" d="M204.1,366.5c2.9-14.9,14.5-24.2,14.5-24.2c2.2,7,2.9,14.4,2.1,21.7c-0.6,6.3-1.9,12.5-4,18.4h-12.5"/>
	<path class="st1_chart-6-88" d="M216.7,383h-12.5c-0.4,0-0.7-0.3-0.7-0.7s0.3-0.7,0.7-0.7h12c2-5.8,3.2-11.8,3.8-17.8&#10;&#9;&#9;c0.7-6.9,0.1-13.8-1.8-20.4c-2.6,2.3-11.2,10.9-13.5,23.1c-0.1,0.4-0.4,0.6-0.8,0.5c-0.4-0.1-0.6-0.4-0.5-0.8c0,0,0,0,0,0&#10;&#9;&#9;c2.9-14.9,14.6-24.5,14.7-24.6c0.2-0.1,0.4-0.2,0.6-0.1c0.2,0.1,0.4,0.2,0.4,0.4c2.2,7.1,2.9,14.5,2.1,21.9&#10;&#9;&#9;c-0.6,6.3-1.9,12.6-4,18.6C217.3,382.8,217,383,216.7,383z"/>
	<path class="st0_chart-6-88" d="M198,382.4h11c0.1-3.3-0.6-8.2-4.2-14.6l-0.7-1.2c-6.4-10.8-12.2-10.7-12.2-10.7&#10;&#9;&#9;C189.4,367.2,194.6,377.4,198,382.4z"/>
	<path class="st1_chart-6-88" d="M209,383h-11c-0.2,0-0.4-0.1-0.6-0.3c-3.4-5.1-8.7-15.4-6.2-27.1c0.1-0.3,0.3-0.5,0.6-0.5c0.2,0,6.3,0,12.8,11&#10;&#9;&#9;l0.7,1.2c3.7,6.7,4.4,11.9,4.3,15C209.7,382.7,209.4,383,209,383C209,383,209,383,209,383z M198.3,381.7h10c0-3-0.8-7.6-4.1-13.6&#10;&#9;&#9;c-0.2-0.4-0.5-0.8-0.7-1.2c-5-8.5-9.6-10-11.1-10.3C190.3,367.2,195.1,376.8,198.3,381.7L198.3,381.7z"/>
	<polygon class="st1_chart-6-88" points="200,399.9 221.6,399.9 225.1,382.4 196.5,382.4 &#9;"/>
</g>
</svg>