<svg id="_0046_graphic_chart" xmlns="http://www.w3.org/2000/svg" viewBox="0 0 500 500" data-imageid="chart-7-26" imageName="Chart 7" class="illustrations_image" style="width: 142px;"><defs><style>.cls-1_chart-7-26{fill:#fff;}.cls-2_chart-7-26{fill:#f4a28c;}.cls-3_chart-7-26,.cls-4_chart-7-26,.cls-5_chart-7-26{fill:#a5a5a5;}.cls-6_chart-7-26{opacity:.03;}.cls-6_chart-7-26,.cls-7_chart-7-26{fill:#000001;}.cls-4_chart-7-26{opacity:.3;}.cls-8_chart-7-26{fill:#e6e6e6;}.cls-9_chart-7-26{fill:#24285b;}.cls-7_chart-7-26{opacity:.08;}.cls-5_chart-7-26{opacity:.46;}.cls-10_chart-7-26{fill:#ffd200;}.cls-11_chart-7-26{fill:#68e1fd;}</style></defs><g id="screen_chart-7-26"><rect class="cls-8_chart-7-26" x="43.25" y="57.41" width="403" height="287.25"/><path class="cls-7_chart-7-26" d="m104.49,273s17.9-50.12,42.13-44.98,41.43,40.54,66.82,19.42c25.39-21.12,18.62-51.38,54.53-59.8,35.91-8.42,51.09,9.56,64.72-24.69,13.63-34.25,42.19-29.11,42.19-29.11v169.55H104.49v-30.39Z"/><path class="cls-7_chart-7-26" d="m241.09,211.09s13.29-8.86,24.59,1.23c11.31,10.08,14.93,19.05,31.83,14.69,16.89-4.36,90.99,35.69,60.48,117.66l-43.05-.33-72.62-105.25-1.22-28Z"/><path class="cls-3_chart-7-26" d="m384.69,309.73H101.73c-1.81,0-3.27-1.46-3.27-3.27v-166.49h6.54v163.22h279.68v6.54Z"/><circle class="cls-11_chart-7-26 targetColor" cx="74.48" cy="85.07" r="9.67" style="fill: rgb(89, 195, 5);"/><circle class="cls-10_chart-7-26" cx="101.73" cy="85.07" r="9.67"/><circle class="cls-9_chart-7-26" cx="130.89" cy="85.07" r="9.67"/><circle class="cls-1_chart-7-26" cx="143.8" cy="229.44" r="8.56"/><circle class="cls-1_chart-7-26" cx="265.68" cy="189.78" r="8.56"/><circle class="cls-1_chart-7-26" cx="374.88" cy="133.56" r="8.56"/></g><ellipse id="sd_chart-7-26" class="cls-6_chart-7-26" cx="235.47" cy="431.69" rx="166.2" ry="33.69"/><rect id="sd-2_chart-7-26" class="cls-7_chart-7-26" x="347.55" y="120.03" width="98.71" height="16.73"/><g id="panel_chart-7-26"><rect class="cls-9_chart-7-26" x="347.55" y="40.78" width="125.37" height="79.25"/><polygon class="cls-10_chart-7-26" points="383.17 57.68 364.72 57.68 373.94 76.04 383.17 57.68"/><polygon class="cls-1_chart-7-26" points="364.72 105.5 383.17 105.5 373.94 87.14 364.72 105.5"/><rect class="cls-5_chart-7-26" x="393.93" y="58.77" width="60.15" height="14.05"/><rect class="cls-4_chart-7-26" x="393.93" y="89.29" width="60.15" height="14.05"/></g><g id="person_chart-7-26"><path class="cls-11_chart-7-26 targetColor" d="m219.73,431.19s9.07,10.85,15.74,8.66c6.67-2.19-5.13-16.61-5.13-16.61l-10.61,7.95Z" style="fill: rgb(89, 195, 5);"/><path class="cls-11_chart-7-26 targetColor" d="m261.52,431.19s-9.07,10.85-15.74,8.66c-6.67-2.19,5.13-16.61,5.13-16.61l10.61,7.95Z" style="fill: rgb(89, 195, 5);"/><path class="cls-11_chart-7-26 targetColor" d="m223.07,238.07s-79.71-6.7-87.29,29.43c-4.96,23.66-8.05,67.82-9.59,95.48-.76,13.68,9.51,25.46,23.16,26.59l84.62,7.01,85.65-7.1c12.52-1.04,22.87-10.07,25.71-22.31,10.66-45.99,20.31-151.1-122.27-129.11Z" style="fill: rgb(89, 195, 5);"/><path class="cls-1_chart-7-26" d="m221.41,240.22s-12.28,16.96-1.68,23.94c10.61,6.98,14.56,0,14.56,0,0,0,7.6,10.15,15.37,3.11,7.77-7.05,7.65-22.01.6-29.34s-28.86,2.3-28.86,2.3Z"/><path class="cls-9_chart-7-26" d="m186.19,393.46s-52.25,10.12-40.5,32.85c8.55,16.54,52.88,9.47,76.38,4.39,9.83-2.12,19.95-2.46,29.92-1.08,15.89,2.2,41.08,4.7,60.08,1.93,33.49-4.89,9.83-39.56-32.13-39.56s-93.75,1.46-93.75,1.46Z"/><path class="cls-2_chart-7-26" d="m223.92,240.95c.28,3.28.48,6.57.38,9.87-.13,4.52.91,11.31,7.95,13.05,10.85,2.7,14.82-14.48,14.82-14.48,0,0,7.89-15.84-3.85-18.8-10.57-2.66-20.57-4.71-19.3,10.36Z"/><path class="cls-2_chart-7-26" d="m246.35,250.05s.95-5.23,5.53-4.73c4.58.5,2.18,10.24-5.53,4.73Z"/><polygon class="cls-7_chart-7-26" points="201.49 307.13 199.3 287.02 313.79 288.4 304.73 390.72 275.79 392.65 201.49 307.13"/><path class="cls-2_chart-7-26" d="m225.97,251.04s1.92-4.96-2.25-6.92c-4.17-1.96-7.2,7.6,2.25,6.92Z"/><polygon class="cls-10_chart-7-26" points="194.84 380.85 186.19 307.13 288.47 307.13 280.6 380.85 281.48 396.58 194.84 396.58 194.84 380.85"/><circle class="cls-1_chart-7-26" cx="236.38" cy="347.98" r="9.97"/><path class="cls-9_chart-7-26" d="m223.92,240.95s-17.63-3.63-8.88-16.22c8.74-12.59,9.91-2.69,14.28-12.59s7.87-11.66,13.11-6.99c5.24,4.66-.64,13.4,7.84,11.36,8.48-2.04,14.31-4.08,15.47,2.91,1.17,6.99-.58,10.2-6.12,12.24-5.54,2.04,2.35,11.83-11.35,14.8-13.7,2.97-19.82-12.18-19.82-12.18l-4.52,6.67Z"/><polygon class="cls-7_chart-7-26" points="188.45 326.4 243.74 396.58 194.84 396.58 194.84 380.85 188.45 326.4"/></g></svg>