<svg version="1.1" id="Layer_1" xmlns="http://www.w3.org/2000/svg" xmlns:xlink="http://www.w3.org/1999/xlink" x="0px" y="0px" viewBox="0 0 500 500" style="width: 142px;" xml:space="preserve" data-imageid="chart-5-41" imageName="Chart 5" class="illustrations_image">
<style type="text/css">
	.st0_chart-5-41{fill:#FFFFFF;}
	.st1_chart-5-41{fill:#231F20;}
	.st2_chart-5-41{fill:#D1D3D4;}
	.st3_chart-5-41{fill:#68E1FD;}
</style>
<g id="left_hand_chart-5-41">
	<path class="st0_chart-5-41" d="M79.4,175.9C85,167.7,90.9,159.8,97,152c1.6-2.1,3.4-4.2,5.8-5.2s5.8-0.2,6.7,2.2c0.7,1.8,0,3.7-0.7,5.5&#10;&#9;&#9;c-4.1,9.9-9.4,19.3-15.8,27.9c6.3-11.6,15.5-21.4,26.6-28.5c2.4,10.7,0.6,22-5.2,31.4c3.9-9.3,11.8-16.4,21.5-19.3&#10;&#9;&#9;c-1.3,9-4.8,17.5-10.3,24.7c3.6-5.7,8.2-10.6,13.6-14.7c1-0.8,2.2-1.5,3.5-1.2c2.1,0.6,2,3.7,1.2,5.8c-1.6,4.3-3.8,8.4-6.6,12.1&#10;&#9;&#9;c2.1-6.3,7.9-10.7,14.6-11c2.6-0.1-9.6,23.4-10.5,24.9c-5.3,9.4-4.9,16.1-5.5,26.5c-1.5,25.7-4.1,53-1.7,78.6&#10;&#9;&#9;c0.7,7.3,12.6,79,18,78.6c-17.9,1.4-34,6.9-51.8,5.7c-8.5-0.6-24.5,0.9-32-3c-10-5.2-4.5-32.8-4.6-41.9c-0.2-21.9-4-43.4-6.7-65.1&#10;&#9;&#9;c-2.4-19.3-4-39.1-1.3-58.5C58.4,207.6,68,192.2,79.4,175.9z"/>
	<path class="st1_chart-5-41" d="M105.4,396.9c-1.7,0-3.5,0-5.2-0.2c-2.3-0.2-5.3-0.2-8.4-0.2c-8.5,0-18.3,0-23.9-2.9&#10;&#9;&#9;c-8.2-4.3-6.7-21.5-5.5-34.1c0.3-3.4,0.6-6.4,0.6-8.4c-0.1-16.7-2.4-33.5-4.7-49.9c-0.7-5-1.4-10.1-2-15.1&#10;&#9;&#9;c-2.2-17.7-4.1-38.5-1.3-58.7s12.5-35.6,23.9-52l0,0c5.6-8.1,11.6-16.2,17.6-23.9c1.8-2.4,3.6-4.4,6.1-5.4c2.7-1.1,6.5-0.3,7.7,2.6&#10;&#9;&#9;c0.8,2,0.1,4.2-0.7,6.1c-1.4,3.5-3,7-4.8,10.4c4.3-4.5,9.2-8.5,14.5-11.9c0.2-0.1,0.5-0.2,0.7-0.1c0.2,0.1,0.4,0.3,0.4,0.5&#10;&#9;&#9;c1.6,7.3,1.4,14.8-0.8,21.9c4.3-4.9,9.9-8.5,16.1-10.4c0.4-0.1,0.8,0.1,1,0.4c0,0.1,0.1,0.2,0,0.4c-0.7,5.1-2.2,10.1-4.4,14.8&#10;&#9;&#9;c2-2,4.1-3.9,6.4-5.6c1.1-0.8,2.6-1.7,4.1-1.3c0.8,0.2,1.5,0.8,1.8,1.5c0.6,1.7,0.6,3.6-0.1,5.2c-0.3,0.9-0.7,1.9-1.1,2.8&#10;&#9;&#9;c2.5-1.6,5.4-2.6,8.4-2.7c0.4,0,0.8,0.2,0.9,0.5c1.6,2.6-10.6,25.3-10.8,25.5c-4.6,8.1-4.8,14-5.2,22.3c-0.1,1.2-0.1,2.5-0.2,3.9&#10;&#9;&#9;c-0.3,4.6-0.6,9.2-0.9,13.9c-1.4,21.4-2.8,43.6-0.8,64.6c1,10.5,12.8,76.7,17.2,77.9c0.4,0,0.7,0.3,0.8,0.6c0,0,0,0,0,0&#10;&#9;&#9;c0,0.4-0.3,0.8-0.7,0.8c0,0,0,0,0,0c-6.8,0.5-13.5,1.7-20,2.8C123.5,395.3,114.6,396.9,105.4,396.9z M92.3,395c3,0,5.7,0,8,0.2&#10;&#9;&#9;c10.9,0.7,20.9-1,31.6-2.9c5.9-1,12-2.1,18.3-2.7c-1.8-2.8-4.7-11-9.6-35.7c-3.6-18.3-6.9-38.4-7.3-42.3c-2-21.1-0.6-43.3,0.8-64.8&#10;&#9;&#9;c0.3-4.7,0.6-9.3,0.9-13.9c0.1-1.3,0.1-2.6,0.2-3.8c0.4-8.1,0.7-14.6,5.4-22.9c1.9-3.4,10.6-20.7,10.8-23.8&#10;&#9;&#9;c-3.6,0.3-6.9,1.7-9.5,4.2c-1.2,2.3-2.6,4.4-4.1,6.5c-0.2,0.3-0.7,0.4-1,0.2c-0.3-0.2-0.5-0.6-0.4-0.9c0.8-2.5,2.3-4.8,4.2-6.7&#10;&#9;&#9;c0.9-1.8,1.7-3.6,2.4-5.4c0.5-1.3,0.6-2.7,0.1-4c-0.2-0.4-0.5-0.7-0.9-0.8c-0.9-0.3-1.9,0.4-2.8,1c-4,3-7.5,6.5-10.5,10.5&#10;&#9;&#9;c-0.9,1.4-1.8,2.8-2.9,4.2c-0.2,0.3-0.7,0.4-1,0.2c-0.3-0.2-0.4-0.7-0.2-1c0.9-1.4,1.9-2.8,2.9-4.2c3.6-5.8,6.1-12.3,7.2-19&#10;&#9;&#9;c-7.1,2.4-13.1,7.2-17.2,13.5c-0.8,1.8-1.7,3.5-2.7,5.1c-0.2,0.3-0.6,0.5-1,0.3c-0.4-0.2-0.5-0.6-0.3-1c0.7-1.8,1.6-3.5,2.7-5.1&#10;&#9;&#9;c3.4-7.8,4.3-16.4,2.7-24.7c-6.7,4.5-12.7,9.9-17.8,16.2c-2.3,4-4.9,7.8-7.7,11.5c-0.2,0.3-0.7,0.4-1,0.2c-0.3-0.2-0.4-0.7-0.2-1&#10;&#9;&#9;c2.2-4.1,4.8-7.9,7.7-11.5c3.1-5.2,5.8-10.7,8.1-16.3c0.7-1.6,1.3-3.4,0.7-4.9c-0.8-2-3.7-2.6-5.8-1.8s-3.8,2.7-5.5,4.9&#10;&#9;&#9;c-6.1,7.7-12,15.8-17.6,23.9l0,0c-11.3,16.3-20.8,31.4-23.6,51.4s-0.9,40.7,1.3,58.3c0.6,5,1.3,10.1,2,15.1&#10;&#9;&#9;c2.2,16.3,4.6,33.2,4.7,50c0,2.1-0.3,5.1-0.6,8.5c-1,11.5-2.6,28.9,4.7,32.7c5.3,2.7,15.2,2.7,23.2,2.7H92.3z M79.4,175.9&#10;&#9;&#9;L79.4,175.9z"/>
	<path class="st2_chart-5-41" d="M160.4,406.6c-0.6-3.7-16.1-65.9-16.1-65.9l-89.2-15.8l1.6,78.8L160.4,406.6z"/>
	<path class="st1_chart-5-41" d="M135.6,358.3L135.6,358.3l-66-6.6c-0.4,0-0.7-0.4-0.7-0.8c0,0,0,0,0,0c0-0.4,0.4-0.7,0.8-0.7c0,0,0,0,0,0&#10;&#9;&#9;l65.9,6.6c0.4,0,0.7,0.4,0.7,0.8c0,0,0,0,0,0C136.3,358.1,135.9,358.3,135.6,358.3z"/>
</g>
<g id="pie_2_chart-5-41">
	<path class="st1_chart-5-41" d="M248.5,98.1v121.4h151.6c0-3.1,0.3-11.3,0-14.4C394.2,142.4,328.3,98.1,248.5,98.1z"/>
	<path class="st1_chart-5-41" d="M400.9,220.2H247.8V97.3h0.8c39.1,0,76,10.7,103.9,30.2c28.3,19.8,45.5,47.3,48.4,77.6&#10;&#9;&#9;c0.2,2.2,0.1,6.9,0.1,10.7c0,1.5,0,2.8,0,3.7L400.9,220.2z M249.3,218.7h150.1c0-0.8,0-1.9,0-3c0.1-3.6,0.1-8.4,0-10.6&#10;&#9;&#9;c-2.8-29.8-19.8-57-47.8-76.5c-27.5-19.1-63.8-29.7-102.3-29.9V218.7z"/>
	<path class="st0_chart-5-41" d="M248.5,83.7v121.4h151.6C400.1,138.1,332.2,83.7,248.5,83.7z"/>
	<path class="st1_chart-5-41" d="M400.1,205.9H248.5c-0.4,0-0.8-0.3-0.8-0.8V83.7c0-0.4,0.3-0.8,0.8-0.8c84,0,152.3,54.8,152.3,122.1&#10;&#9;&#9;C400.9,205.5,400.5,205.9,400.1,205.9z M249.3,204.4h150.1c-0.5-66-67.6-119.6-150.1-119.9V204.4z"/>
</g>
<g id="pie_1_chart-5-41">
	<path class="st1_chart-5-41" d="M80.2,240.5c0,67.1,67.8,121.4,151.6,121.4s151.6-54.4,151.6-121.4v-15.7l-151.6,15.7V119.1&#10;&#9;&#9;C148,119.1,80.2,173.5,80.2,240.5z"/>
	<path class="st3_chart-5-41 targetColor" d="M80.2,224.8c0,67,67.8,121.4,151.6,121.4s151.6-54.4,151.6-121.4H231.7V103.4C148,103.4,80.2,157.8,80.2,224.8&#10;&#9;&#9;z" style="fill: rgb(90, 197, 24);"/>
	<path class="st0_chart-5-41" d="M229.2,360.1L229.2,360.1c-0.4,0-0.7-0.3-0.7-0.8c0,0,0,0,0,0l2.6-134.6c0-0.3,0.2-0.5,0.4-0.7&#10;&#9;&#9;c0.3-0.1,0.6-0.1,0.8,0.1l103.2,92.5c0.3,0.3,0.3,0.8,0.1,1.1s-0.8,0.3-1.1,0.1l-102-91.4l-2.5,132.9&#10;&#9;&#9;C229.9,359.8,229.6,360.1,229.2,360.1z"/>
</g>
<g id="left_thumb_chart-5-41">
	<path class="st0_chart-5-41" d="M66.3,233.3l25-25.9c4.6-4.8,9.9-9.9,16.5-10.1c2.5-0.1,5.5,1,6.1,3.4c0.5,1.9-0.6,3.8-1.6,5.4&#10;&#9;&#9;c-7.8,12.2-16.2,24.1-25.1,35.6c12.1,11.2,12.8,30.2,1.6,42.3c-0.6,0.6-1.2,1.3-1.9,1.9"/>
	<path class="st1_chart-5-41" d="M86.8,286.6c-0.2,0-0.4-0.1-0.6-0.2c-0.3-0.3-0.3-0.8,0.1-1.1c12-10.8,12.9-29.3,2.1-41.2&#10;&#9;&#9;c-0.6-0.6-1.2-1.2-1.8-1.8c-0.3-0.3-0.3-0.7-0.1-1c8.9-11.4,17.3-23.4,25.1-35.5c1-1.5,1.9-3.2,1.5-4.8c-0.5-2-3.1-2.9-5.4-2.9&#10;&#9;&#9;c-6.2,0.2-11.3,5-16,9.9l-25,25.9c-0.3,0.3-0.8,0.3-1.1,0c-0.3-0.3-0.3-0.8,0-1.1l25-25.9c4.9-5.1,10.3-10.1,17-10.4&#10;&#9;&#9;c2.8-0.1,6.1,1.1,6.9,4c0.6,2.1-0.6,4.2-1.7,6c-7.7,12-16,23.8-24.8,35.1c12.2,11.8,12.5,31.2,0.6,43.4c-0.5,0.5-1,0.9-1.4,1.4&#10;&#9;&#9;C87.1,286.6,87,286.6,86.8,286.6z"/>
</g>
<g id="right_hand_chart-5-41">
	<path class="st0_chart-5-41" d="M371.4,355.4c1.7-19.8,13.8-94.7,8.8-109.2c-2.7-7.8-9.7-12.7-16.1-17.3c-5.7-4.1-15.7-9.6-16.9-17&#10;&#9;&#9;c-0.4-1.6,0-3.3,1-4.6c1.1-1.2,3-1.4,4.6-1.4c7,0.3,11.9,5.3,18.3,7s11.8,6.2,18.4,8c4.5,1.3,9.8,0.7,12.8-2.8c1.8-2,2.5-4.7,3-7.4&#10;&#9;&#9;c5.2-25.9-5.5-54.4-26.5-70.4c-2.6-1.9-5.6-5.2-3.8-7.8c1.5-2.2,4.8-1.7,7.2-0.7c18.5,7.4,31.4,26,35,45.2&#10;&#9;&#9;c-1.8-9.6-3.3-19.1-6.8-28.3c-2-5.3-12.6-15.6-7.4-21c1.6-1.4,3.8-1.7,5.7-0.9c1.9,0.8,3.5,2.1,4.8,3.6&#10;&#9;&#9;c12.1,12.9,16.9,32.2,20.5,49c-0.1-11.9-1.9-23.6-5.3-35c-1.2-3.9-2.5-7.9-2.4-12c0-1.2,0.3-2.4,1.1-3.4c2.2-2.4,6.2-0.1,8,2.5&#10;&#9;&#9;c2.7,3.8,4.1,8.2,5.5,12.6c4.4,13.6,8.7,27.8,6.6,42c1.2-9.4,1.5-19,0.7-28.5c-0.5-5.5-1.3-11.2-0.2-16.6&#10;&#9;&#9;c2.9-14.3,11.4,7.8,12.2,11.5c2.1,9.8,2,20.1,1.3,30.1c-2.2,31-12,61.2-12.1,92l-0.2,63"/>
	<path class="st1_chart-5-41" d="M371.4,356.1L371.4,356.1c-0.5,0-0.8-0.4-0.7-0.8c0,0,0,0,0,0c0.4-5.3,1.6-14.5,3-25.3&#10;&#9;&#9;c3.8-29.1,9.4-73.1,5.8-83.7c-2.6-7.4-9.2-12.1-15.5-16.7l-0.3-0.2c-0.9-0.6-1.9-1.3-3-2c-5.9-3.9-13.2-8.9-14.2-15.4&#10;&#9;&#9;c-0.4-1.8,0-3.7,1.2-5.2c1.1-1.2,2.8-1.7,5.2-1.6c4.3,0.2,7.8,2.1,11.2,3.8c2.3,1.3,4.7,2.4,7.3,3.2c3.3,1,6.5,2.4,9.5,4.1&#10;&#9;&#9;c2.8,1.6,5.8,2.9,8.8,3.9c3.6,1,9,1,12.1-2.5c1.6-1.9,2.4-4.5,2.9-7c5.2-25.7-5.3-53.7-26.2-69.6c-4.2-3.2-5.6-6.4-4-8.9&#10;&#9;&#9;c1.4-2.1,4.4-2.4,8.1-1c13.6,5.5,25,17.4,31.3,32.2c-1-4.9-2.4-9.6-4.1-14.3c-0.9-2-2-3.8-3.3-5.6c-3.6-5.4-8-12-3.9-16.2&#10;&#9;&#9;c1.8-1.6,4.3-2,6.5-1.1c2,0.9,3.7,2.2,5.1,3.8c10.2,10.9,15.3,26.2,18.8,41c-0.7-8.9-2.3-17.7-4.9-26.3l-0.4-1.3&#10;&#9;&#9;c-1.1-3.6-2.2-7.2-2-11c0-1.4,0.4-2.8,1.3-3.9c0.8-0.9,2-1.3,3.2-1.2c2.4,0.2,4.8,2.1,6,3.8c2.8,3.9,4.3,8.6,5.6,12.8&#10;&#9;&#9;c2.3,7.1,4.9,15.3,6.2,23.8c0-3.3-0.2-6.7-0.5-10c-0.1-0.8-0.1-1.7-0.2-2.5c-0.4-4.7-0.9-9.6,0-14.3c0.7-3.6,1.9-5.4,3.6-5.4l0,0&#10;&#9;&#9;c4.5,0,9.6,14.6,10.1,16.9c2.3,10.7,1.9,21.8,1.3,30.3c-1,13.8-3.5,27.5-5.9,40.8c-3,16.7-6.2,34-6.2,51.2l-0.2,63&#10;&#9;&#9;c0,0.4-0.3,0.7-0.8,0.7l0,0c-0.4,0-0.7-0.3-0.7-0.7c0,0,0,0,0,0l0.2-63c0-17.3,3.2-34.6,6.2-51.4c2.4-13.3,4.9-27,5.9-40.7&#10;&#9;&#9;c0.6-8.4,1-19.4-1.2-29.9c-0.8-3.6-5.8-15.7-8.6-15.7l0,0c-0.4,0-1.4,0.4-2.1,4.2c-0.9,4.5-0.5,9.3,0,13.9l0.2,2.5&#10;&#9;&#9;c0.7,8.7,0.6,17.4-0.4,26c-0.1,0.9-0.2,1.8-0.3,2.6c-0.1,0.4-0.5,0.7-0.9,0.6c-0.4-0.1-0.6-0.4-0.6-0.8c0.1-0.9,0.2-1.8,0.3-2.7&#10;&#9;&#9;c1.3-13.5-3.1-26.9-6.9-38.9c-1.4-4.3-2.8-8.7-5.4-12.4c-1.1-1.7-2.9-2.8-4.9-3.2c-0.8-0.1-1.5,0.2-2,0.8c-0.6,0.8-1,1.9-0.9,2.9&#10;&#9;&#9;c-0.1,3.5,0.9,7.1,2,10.5l0.4,1.3c3.4,11.4,5.2,23.3,5.3,35.2c0,0.4-0.3,0.7-0.7,0.8c-0.4,0-0.7-0.2-0.8-0.6&#10;&#9;&#9;c-3.6-16.9-8.4-36-20.3-48.7c-1.2-1.5-2.8-2.6-4.5-3.4c-1.6-0.7-3.5-0.4-4.9,0.8c-3.3,3.4,0.8,9.5,4.1,14.4&#10;&#9;&#9;c1.3,1.8,2.5,3.8,3.5,5.9c3,8,4.5,16,6.1,24.5c0.2,1.3,0.5,2.6,0.7,3.9l0,0l0,0c0,0.4-0.2,0.8-0.7,0.8c-0.4,0-0.7-0.2-0.8-0.6&#10;&#9;&#9;c-3.8-20.2-17.4-37.7-34.5-44.6c-2.3-0.9-5.1-1.3-6.3,0.4c-1.6,2.4,2,5.6,3.6,6.8c21.4,16.2,32.1,44.8,26.8,71.1&#10;&#9;&#9;c-0.6,2.7-1.3,5.6-3.2,7.7c-3.5,4-9.5,4.1-13.6,3c-3.2-1-6.2-2.4-9.1-4c-2.9-1.7-6-3-9.2-4c-2.6-0.8-5.2-1.9-7.6-3.3&#10;&#9;&#9;c-3.4-1.8-6.6-3.5-10.6-3.7c-1.9-0.1-3.2,0.3-4,1.1c-1,1.1-0.9,3-0.8,4c0.9,5.9,7.9,10.6,13.5,14.4c1.1,0.7,2.1,1.4,3,2.1l0.3,0.2&#10;&#9;&#9;c6.2,4.5,13.3,9.6,16.1,17.4c3.8,10.9-1.7,53.3-5.7,84.4c-1.4,10.7-2.6,20-3,25.2C372,355.9,371.7,356.1,371.4,356.1z"/>
	<path class="st2_chart-5-41" d="M350.8,404.5c0.7-11,14.6-83.5,14.6-83.5l89.3-11.7l2.9,93L350.8,404.5z"/>
	<path class="st1_chart-5-41" d="M375,340.8c-0.4,0-0.7-0.3-0.7-0.8c0-0.4,0.3-0.7,0.6-0.7l69.5-9.5c0.4,0,0.8,0.2,0.9,0.6&#10;&#9;&#9;c0.1,0.4-0.2,0.8-0.6,0.8L375,340.8L375,340.8z"/>
</g>
</svg>