<svg id="_0020_checklist" data-name="0020_checklist" xmlns="http://www.w3.org/2000/svg" viewBox="0 0 500 500" data-imageid="checklist-36" imageName="Checklist" class="illustrations_image" style="width: 142px;"><defs><style>.cls-1_checklist-36{fill:#68e1fd;}.cls-2_checklist-36{fill:#093f68;}.cls-3_checklist-36{fill:#fff;}.cls-4_checklist-36{fill:#ffbc0e;}.cls-5_checklist-36{fill:#dfeaef;}.cls-6_checklist-36{fill:#70cc40;}.cls-7_checklist-36{fill:#f56132;}</style></defs><g id="paper_checklist-36"><rect class="cls-1_checklist-36 targetColor" x="118.86" y="123.69" width="262.28" height="297.27" rx="14.95" style="fill: rgb(89, 195, 5);"/><path class="cls-2_checklist-36" d="M366.29,422.79H133.71A16.69,16.69,0,0,1,117,406.11V138.54a16.69,16.69,0,0,1,16.67-16.67H366.29A16.69,16.69,0,0,1,383,138.54V406.11A16.69,16.69,0,0,1,366.29,422.79ZM133.71,125.52a13,13,0,0,0-13,13V406.11a13,13,0,0,0,13,13H366.29a13,13,0,0,0,13-13V138.54a13,13,0,0,0-13-13Z"/><rect class="cls-3_checklist-36" x="140.8" y="138.85" width="218.4" height="264.6" rx="4.17"/><path class="cls-2_checklist-36" d="M351.58,405.27H148.42a9.46,9.46,0,0,1-9.45-9.45V146.47a9.46,9.46,0,0,1,9.45-9.45H351.58a9.46,9.46,0,0,1,9.45,9.45V395.82A9.46,9.46,0,0,1,351.58,405.27ZM148.42,140.67a5.8,5.8,0,0,0-5.8,5.8V395.82a5.8,5.8,0,0,0,5.8,5.8H351.58a5.8,5.8,0,0,0,5.8-5.8V146.47a5.8,5.8,0,0,0-5.8-5.8Z"/><path class="cls-4_checklist-36" d="M302.63,113.11H270.38L269.2,99.22a18.51,18.51,0,0,0-18.44-16.93h-1.52A18.51,18.51,0,0,0,230.8,99.22l-1.18,13.89H197.37A10.63,10.63,0,0,0,187.25,127l5.91,18.63A10.65,10.65,0,0,0,203.31,153h93.38a10.65,10.65,0,0,0,10.15-7.41L312.75,127A10.63,10.63,0,0,0,302.63,113.11ZM250,111.64a8.16,8.16,0,1,1,8.15-8.15A8.16,8.16,0,0,1,250,111.64Z"/><path class="cls-2_checklist-36" d="M296.69,154.85H203.31a12.45,12.45,0,0,1-11.89-8.68l-5.91-18.64a12.46,12.46,0,0,1,11.86-16.25h30.57l1-12.22a20.22,20.22,0,0,1,20.26-18.6h1.52A20.22,20.22,0,0,1,271,99.06l1,12.22h30.57a12.47,12.47,0,0,1,11.86,16.26l-5.91,18.62A12.44,12.44,0,0,1,296.69,154.85Zm-99.32-39.92a8.81,8.81,0,0,0-8.38,11.5l5.91,18.63a8.8,8.8,0,0,0,8.41,6.14h93.38a8.8,8.8,0,0,0,8.41-6.14L311,126.43a8.81,8.81,0,0,0-8.38-11.5H270.38a1.82,1.82,0,0,1-1.82-1.67l-1.18-13.89a16.59,16.59,0,0,0-16.62-15.25h-1.52a16.59,16.59,0,0,0-16.62,15.25l-1.18,13.89a1.82,1.82,0,0,1-1.82,1.67ZM250,113.46a10,10,0,1,1,10-10A10,10,0,0,1,250,113.46Zm0-16.31a6.33,6.33,0,1,0,6.32,6.34A6.33,6.33,0,0,0,250,97.15Z"/></g><g id="list_checklist-36"><rect class="cls-3_checklist-36" x="169.36" y="182.84" width="34.74" height="34.74"/><path class="cls-2_checklist-36" d="M204.11,219.41H169.36a1.81,1.81,0,0,1-1.82-1.82V182.84a1.81,1.81,0,0,1,1.82-1.82h34.75a1.81,1.81,0,0,1,1.82,1.82v34.75A1.81,1.81,0,0,1,204.11,219.41Zm-32.92-3.65h31.09V184.67H171.19Z"/><path class="cls-5_checklist-36" d="M327,194H241.85a2.74,2.74,0,1,1,0-5.48H327a2.74,2.74,0,1,1,0,5.48Z"/><path class="cls-5_checklist-36" d="M303.5,211.87H241.85a2.74,2.74,0,1,1,0-5.48H303.5a2.74,2.74,0,0,1,0,5.48Z"/><rect class="cls-3_checklist-36" x="169.36" y="253.77" width="34.74" height="34.74"/><path class="cls-2_checklist-36" d="M204.11,290.35H169.36a1.82,1.82,0,0,1-1.82-1.83V253.77a1.81,1.81,0,0,1,1.82-1.82h34.75a1.81,1.81,0,0,1,1.82,1.82v34.75A1.82,1.82,0,0,1,204.11,290.35Zm-32.92-3.66h31.09V255.6H171.19Z"/><path class="cls-5_checklist-36" d="M327,265H241.85a2.74,2.74,0,1,1,0-5.48H327a2.74,2.74,0,0,1,0,5.48Z"/><path class="cls-5_checklist-36" d="M280.87,282.8h-39a2.74,2.74,0,1,1,0-5.48h39a2.74,2.74,0,0,1,0,5.48Z"/><path class="cls-6_checklist-36" d="M183.17,211.87a2.74,2.74,0,0,1-2.57-1.78l-6.68-17.83a2.74,2.74,0,0,1,5.13-1.92l5.32,14.2,28.4-23.8a2.74,2.74,0,1,1,3.52,4.2l-31.36,26.29A2.74,2.74,0,0,1,183.17,211.87Z"/><path class="cls-6_checklist-36" d="M183.17,282.48a2.74,2.74,0,0,1-2.57-1.78l-6.68-17.83a2.74,2.74,0,0,1,5.13-1.92l5.32,14.2,28.4-23.8a2.74,2.74,0,1,1,3.52,4.2l-31.36,26.29A2.74,2.74,0,0,1,183.17,282.48Z"/><rect class="cls-3_checklist-36" x="169.36" y="324.71" width="34.74" height="34.74"/><path class="cls-2_checklist-36" d="M204.11,361.28H169.36a1.82,1.82,0,0,1-1.82-1.83V324.71a1.82,1.82,0,0,1,1.82-1.83h34.75a1.82,1.82,0,0,1,1.82,1.83v34.74A1.82,1.82,0,0,1,204.11,361.28Zm-32.92-3.66h31.09V326.53H171.19Z"/><path class="cls-5_checklist-36" d="M327,335.9H241.85a2.74,2.74,0,1,1,0-5.47H327a2.74,2.74,0,1,1,0,5.47Z"/><path class="cls-5_checklist-36" d="M313.27,353.73H241.85a2.74,2.74,0,1,1,0-5.48h71.42a2.74,2.74,0,0,1,0,5.48Z"/><path class="cls-7_checklist-36" d="M176.48,358.79a2.73,2.73,0,0,1-2-4.6l26.05-27.95a2.74,2.74,0,1,1,4,3.73l-26,27.95A2.74,2.74,0,0,1,176.48,358.79Z"/><path class="cls-7_checklist-36" d="M202.53,358.79a2.72,2.72,0,0,1-2-.87L174.48,330a2.74,2.74,0,1,1,4-3.73l26,27.95a2.73,2.73,0,0,1-2,4.6Z"/></g></svg>