<svg version="1.1" id="Layer_1" xmlns="http://www.w3.org/2000/svg" xmlns:xlink="http://www.w3.org/1999/xlink" x="0px" y="0px" viewBox="0 0 500 500" style="width: 142px;" xml:space="preserve" data-imageid="cybersecurity-39" imageName="Cybersecurity" class="illustrations_image">
<style type="text/css">
	.st0_cybersecurity-39{fill:#68E1FD;}
	.st1_cybersecurity-39{fill:#093F68;}
	.st2_cybersecurity-39{fill:#FFFFFF;}
	.st3_cybersecurity-39{fill:#70CC40;}
	.st4_cybersecurity-39{fill:#F56132;}
	.st5_cybersecurity-39{fill:#FFBC0E;}
</style>
<g id="device_cybersecurity-39">
	<path class="st0_cybersecurity-39 targetColor" d="M102.5,99.5h296.9c12.4,0,22.5,10.1,22.5,22.5v188c0,12.4-10.1,22.5-22.5,22.5H102.5&#10;&#9;&#9;C90.1,332.5,80,322.4,80,310V122C80,109.6,90.1,99.5,102.5,99.5z" style="fill: rgb(89, 195, 5);"/>
	<path class="st1_cybersecurity-39" d="M401.9,334.3H100c-12,0-21.7-9.7-21.8-21.8V119.5c0-12,9.7-21.8,21.8-21.8h302c12,0,21.8,9.8,21.8,21.8v193.1&#10;&#9;&#9;C423.8,324.6,414,334.3,401.9,334.3C401.9,334.3,401.9,334.3,401.9,334.3z M100,101.3c-10,0-18.1,8.1-18.1,18.1v193.1&#10;&#9;&#9;c0,10,8.1,18.1,18.1,18.1h302c10-0.1,18-8.2,18-18.1V119.5c0-10-8.1-18.1-18.1-18.1H100z"/>
	<polygon class="st0_cybersecurity-39 targetColor" points="305.6,382.5 196.3,382.5 207.7,332.5 294.2,332.5 &#9;" style="fill: rgb(89, 195, 5);"/>
	<path class="st1_cybersecurity-39" d="M305.6,384.4H196.3c-1,0-1.8-0.8-1.8-1.8c0-0.1,0-0.3,0-0.4l11.4-50.1c0.2-0.8,0.9-1.4,1.8-1.4h86.4&#10;&#9;&#9;c0.9,0,1.6,0.6,1.8,1.4l11.4,50.1c0.2,1-0.4,2-1.4,2.2C305.9,384.4,305.8,384.4,305.6,384.4L305.6,384.4z M198.6,380.7h104.7&#10;&#9;&#9;l-10.6-46.4h-83.5L198.6,380.7z"/>
	<rect x="103.3" y="118.9" class="st2_cybersecurity-39" width="295.2" height="172.9"/>
	<path class="st1_cybersecurity-39" d="M398.6,293.6H103.3c-1,0-1.8-0.8-1.8-1.8c0,0,0,0,0,0V118.9c0-1,0.8-1.8,1.8-1.8c0,0,0,0,0,0h295.2&#10;&#9;&#9;c1,0,1.8,0.8,1.8,1.8v172.9C400.4,292.8,399.6,293.6,398.6,293.6z M105.2,290h291.6V120.8H105.2V290z"/>
	<path class="st0_cybersecurity-39 targetColor" d="M178.7,382.5h144.5c2.8,0,5.1,2.3,5.1,5.1v8.5c0,2.8-2.3,5.1-5.1,5.1H178.7c-2.8,0-5.1-2.3-5.1-5.1v-8.5&#10;&#9;&#9;C173.6,384.8,175.9,382.5,178.7,382.5z" style="fill: rgb(89, 195, 5);"/>
	<path class="st1_cybersecurity-39" d="M319,403.1H183c-6.2,0-11.2-5-11.2-11.2s5-11.2,11.2-11.2h136c6.2,0,11.2,5,11.2,11.2S325.2,403.1,319,403.1z&#10;&#9;&#9; M183,384.4c-4.2,0-7.5,3.4-7.5,7.6c0,4.2,3.4,7.5,7.5,7.5h136c4.2,0,7.5-3.4,7.5-7.6c0-4.2-3.4-7.5-7.5-7.5H183z"/>
</g>
<g id="check_cybersecurity-39">
	<path class="st3_cybersecurity-39" d="M315.4,173.6c0,54.3-52.1,98.2-64.5,98.2s-64.5-44-64.5-98.2c0,0,28.9-21.1,64.5-21.1S315.4,173.6,315.4,173.6&#10;&#9;&#9;z"/>
	<path class="st1_cybersecurity-39" d="M251,273.7c-13,0-66.3-45-66.3-100.1c0-0.6,0.3-1.1,0.8-1.5c1.2-0.9,29.8-21.4,65.5-21.4s64.4,20.5,65.5,21.4&#10;&#9;&#9;c0.5,0.3,0.7,0.9,0.8,1.5C317.2,228.7,264,273.7,251,273.7z M188.4,174.6c0.6,51.5,50.8,95.4,62.6,95.4s62-43.9,62.6-95.5&#10;&#9;&#9;c-4.8-3.2-31.2-20.2-62.6-20.2S193.1,171.3,188.4,174.6L188.4,174.6z"/>
	<path class="st2_cybersecurity-39" d="M239.5,234.2l-19-19c-1.2-1.2-1.2-3.1,0-4.4c0,0,0,0,0,0l6-6c1.2-1.2,3.2-1.2,4.4,0l9.6,9.6&#10;&#9;&#9;c0.8,0.8,2,0.8,2.8,0c10.5-10.5,20.9-20.9,31.3-31.2c1.7-1.8,4.6-1.8,6.3,0c0,0,0,0,0,0l4,4c1.8,1.8,1.8,4.6,0,6.4l-40.6,40.6&#10;&#9;&#9;C242.9,235.5,240.8,235.5,239.5,234.2C239.5,234.2,239.5,234.2,239.5,234.2z"/>
</g>
<g id="padlock_cybersecurity-39">
	<path class="st1_cybersecurity-39" d="M267.5,318.7c-2,0-3.6-1.6-3.6-3.6c0,0,0,0,0,0v-16.6c-0.2-7.1-6.2-12.8-13.3-12.6&#10;&#9;&#9;c-6.9,0.2-12.4,5.7-12.6,12.6V315c0.1,2-1.4,3.7-3.5,3.8c-2,0.1-3.7-1.4-3.8-3.5c0-0.1,0-0.3,0-0.4v-16.6&#10;&#9;&#9;c0-11.2,9.1-20.2,20.2-20.2c11.2,0,20.2,9.1,20.2,20.2V315C271.2,317.1,269.6,318.7,267.5,318.7&#10;&#9;&#9;C267.5,318.7,267.5,318.7,267.5,318.7z"/>
	<path class="st4_cybersecurity-39" d="M225.9,315H276c2.7,0,4.8,2.1,4.8,4.8v45.4c0,2.7-2.1,4.8-4.8,4.8h-50.2c-2.7,0-4.8-2.1-4.8-4.8v-45.4&#10;&#9;&#9;C221.1,317.2,223.2,315,225.9,315z"/>
	<path class="st1_cybersecurity-39" d="M272.1,371.9h-42.2c-5.9,0-10.6-4.7-10.6-10.6v-37.4c0-5.9,4.7-10.6,10.6-10.6h42.2c5.8,0,10.6,4.7,10.6,10.6&#10;&#9;&#9;v37.4C282.7,367.1,277.9,371.8,272.1,371.9z M229.8,316.9c-3.8,0-7,3.1-7,6.9v37.4c0,3.8,3.2,7,7,7h42.2c3.8,0,6.9-3.1,6.9-7v-37.4&#10;&#9;&#9;c0-3.8-3.1-6.9-6.9-6.9L229.8,316.9z"/>
	<path class="st1_cybersecurity-39" d="M258.3,333.6c0-4.1-3.3-7.4-7.4-7.4c-4.1,0-7.4,3.3-7.4,7.4c0,3,1.8,5.8,4.6,6.9v16.2h5.5v-16.2&#10;&#9;&#9;C256.5,339.3,258.3,336.6,258.3,333.6z"/>
	<path class="st1_cybersecurity-39" d="M253.7,358.4h-5.5c-1,0-1.8-0.8-1.8-1.8v-15c-2.9-1.6-4.7-4.7-4.6-8c0-5.1,4.1-9.2,9.2-9.2&#10;&#9;&#9;c5.1,0,9.2,4.1,9.2,9.2c0,3.3-1.8,6.3-4.6,8v15C255.5,357.6,254.7,358.4,253.7,358.4z M250,354.7h1.9v-14.3c0-0.7,0.5-1.4,1.1-1.7&#10;&#9;&#9;c2.8-1.1,4.2-4.4,3.1-7.2c-1.1-2.8-4.4-4.2-7.2-3.1s-4.2,4.4-3.1,7.2c0.6,1.4,1.7,2.5,3.1,3.1c0.7,0.3,1.1,0.9,1.1,1.7L250,354.7z"/>
</g>
<g id="chain_cybersecurity-39">
	<g id="chain-2_cybersecurity-39">
		<path class="st1_cybersecurity-39" d="M238.6,296.3c-0.3,0-0.7-0.1-1-0.1l-27.2-8c-1.9-0.5-3.1-2.5-2.6-4.5c0.5-1.9,2.5-3.1,4.5-2.6&#10;&#9;&#9;&#9;c0.1,0,0.1,0,0.2,0.1l27.2,8c1.9,0.6,3.1,2.6,2.5,4.5C241.7,295.2,240.3,296.3,238.6,296.3L238.6,296.3z"/>
		<path class="st1_cybersecurity-39" d="M208.2,298.4c-1.5,0-3-0.2-4.5-0.7l-17.4-5.4c-7.9-2.5-12.4-10.9-9.9-18.8l0.4-1.4&#10;&#9;&#9;&#9;c2.5-7.9,10.9-12.4,18.8-9.9l17.3,5.4c7.9,2.4,12.4,10.7,10,18.7c0,0.1,0,0.1,0,0.2l-0.4,1.4C220.6,294.1,214.8,298.4,208.2,298.4&#10;&#9;&#9;&#9;L208.2,298.4z M191.2,268.8c-3.4,0-6.4,2.2-7.4,5.5l-0.4,1.4c-1.3,4.1,1,8.4,5.1,9.7c0,0,0,0,0,0l17.4,5.4l0,0&#10;&#9;&#9;&#9;c4.1,1.3,8.4-1,9.7-5.1c0,0,0,0,0,0l0.4-1.4c1.3-4.1-1-8.4-5.1-9.7l-17.4-5.4C192.8,268.9,192,268.8,191.2,268.8L191.2,268.8z"/>
		<path class="st1_cybersecurity-39" d="M186.5,277.8c-0.6,0-1.1-0.1-1.6-0.4l-25.4-12.7c-1.8-0.9-2.5-3.1-1.6-4.9c0.9-1.8,3.1-2.5,4.9-1.6l25.4,12.7&#10;&#9;&#9;&#9;c1.8,0.9,2.5,3.1,1.6,4.9C189.1,277,187.9,277.8,186.5,277.8L186.5,277.8z"/>
		<path class="st1_cybersecurity-39" d="M156.1,277.4c-2.4,0-4.8-0.6-7-1.7l0,0l-16.1-8.5c-7.3-3.8-10.2-12.9-6.3-20.2c0,0,0-0.1,0-0.1l0.7-1.3&#10;&#9;&#9;&#9;c3.9-7.3,13-10.2,20.3-6.3l16.1,8.5c7.4,3.9,10.2,13,6.3,20.3l-0.7,1.3C166.9,274.3,161.7,277.4,156.1,277.4z M152.6,269.2&#10;&#9;&#9;&#9;c3.8,2,8.4,0.6,10.4-3.2l0.7-1.3c2-3.8,0.5-8.5-3.2-10.5l-16.1-8.5c-3.8-2-8.5-0.5-10.5,3.2l-0.7,1.3c-2,3.8-0.6,8.5,3.2,10.5&#10;&#9;&#9;&#9;c0,0,0,0,0,0L152.6,269.2z"/>
		<path class="st1_cybersecurity-39" d="M140,257.5c-0.6,0-1.1-0.1-1.6-0.4L113,244.5c-1.8-0.9-2.5-3.1-1.6-4.9c0.9-1.8,3.1-2.5,4.9-1.6l25.4,12.6&#10;&#9;&#9;&#9;c1.8,0.9,2.5,3.1,1.6,4.9C142.6,256.8,141.4,257.5,140,257.5z"/>
		<path class="st1_cybersecurity-39" d="M112.6,255.6c-3.2,0-6.3-1-8.8-2.9l0,0L89.1,242c-6.7-4.9-8.2-14.3-3.3-21l0.9-1.2c4.9-6.7,14.3-8.2,21-3.3&#10;&#9;&#9;&#9;l14.7,10.7c6.7,4.9,8.1,14.3,3.3,21l-0.9,1.2C121.9,253.3,117.4,255.6,112.6,255.6z M108,246.8c3.5,2.5,8.3,1.8,10.8-1.7l0.9-1.2&#10;&#9;&#9;&#9;c2.5-3.5,1.8-8.3-1.7-10.8l-14.7-10.7c-3.4-2.5-8.3-1.8-10.8,1.7l-0.9,1.2c-2.5,3.5-1.8,8.3,1.7,10.8L108,246.8z"/>
		<path class="st1_cybersecurity-39" d="M99,233.2c-0.9,0-1.7-0.3-2.4-0.9L74,212.6c-1.5-1.3-1.7-3.6-0.3-5.2s3.6-1.7,5.2-0.3l22.6,19.8&#10;&#9;&#9;&#9;c1.5,1.3,1.7,3.6,0.3,5.1C101.1,232.8,100.1,233.2,99,233.2L99,233.2z"/>
		<path class="st1_cybersecurity-39" d="M263.3,296.3c-2,0-3.6-1.6-3.6-3.7c0-1.6,1.1-3.1,2.6-3.5l27.2-8c1.9-0.5,3.9,0.7,4.5,2.6&#10;&#9;&#9;&#9;c0.5,1.9-0.6,3.8-2.4,4.4l-27.2,8C264,296.2,263.7,296.3,263.3,296.3z"/>
		<path class="st1_cybersecurity-39" d="M293.8,298.4c-6.6,0-12.4-4.3-14.4-10.6l-0.4-1.4c-2.5-7.9,2-16.4,9.9-18.8l17.4-5.4&#10;&#9;&#9;&#9;c7.9-2.5,16.3,1.9,18.8,9.8c0,0,0,0.1,0,0.1l0.4,1.4c2.5,7.9-2,16.4-9.9,18.9l-17.4,5.4l0,0C296.8,298.1,295.3,298.4,293.8,298.4z&#10;&#9;&#9;&#9; M297.1,294.2L297.1,294.2z M310.7,268.8c-0.8,0-1.5,0.1-2.3,0.4l-17.4,5.4c-4.1,1.3-6.4,5.6-5.1,9.7c0,0,0,0,0,0l0.4,1.4&#10;&#9;&#9;&#9;c1.3,4.1,5.6,6.4,9.7,5.1l17.4-5.4c4.1-1.3,6.4-5.6,5.1-9.7l-0.4-1.4C317.1,271,314.1,268.8,310.7,268.8z"/>
		<path class="st1_cybersecurity-39" d="M315.4,277.8c-2,0-3.7-1.7-3.6-3.7c0-1.4,0.8-2.6,2-3.3l25.4-12.7c1.8-0.9,4-0.2,4.9,1.6&#10;&#9;&#9;&#9;c0.9,1.8,0.2,4-1.6,4.9l0,0L317,277.4C316.5,277.6,316,277.8,315.4,277.8z"/>
		<path class="st1_cybersecurity-39" d="M345.8,277.4c-5.6,0-10.7-3.1-13.3-8l-0.7-1.3c-3.9-7.4-1.1-16.5,6.3-20.4c0,0,0,0,0,0l16.1-8.5&#10;&#9;&#9;&#9;c7.4-3.9,16.5-1.1,20.3,6.3l0.7,1.3c3.9,7.4,1.1,16.5-6.3,20.3l-16.1,8.5l0,0C350.6,276.8,348.2,277.4,345.8,277.4z M351,272.4&#10;&#9;&#9;&#9;L351,272.4z M361.1,244.8c-1.3,0-2.5,0.3-3.6,0.9l-16.1,8.5c-3.8,2-5.2,6.7-3.2,10.5l0.7,1.3c2,3.8,6.7,5.2,10.5,3.2l16.1-8.5&#10;&#9;&#9;&#9;c3.8-2,5.2-6.7,3.2-10.5l-0.7-1.3C366.6,246.4,364,244.8,361.1,244.8L361.1,244.8z"/>
		<path class="st1_cybersecurity-39" d="M362,257.5c-2,0-3.7-1.7-3.6-3.7c0-1.4,0.8-2.6,2-3.3l25.4-12.6c1.8-0.9,4-0.2,4.9,1.6c0.9,1.8,0.2,4-1.6,4.9&#10;&#9;&#9;&#9;l0,0l-25.4,12.7C363.1,257.4,362.5,257.5,362,257.5z"/>
		<path class="st1_cybersecurity-39" d="M389.3,255.6c-4.8,0-9.3-2.3-12.2-6.2l-0.9-1.2c-4.9-6.7-3.4-16.1,3.3-21l14.7-10.7c6.7-4.9,16.1-3.4,21,3.3&#10;&#9;&#9;&#9;l0.9,1.2c4.9,6.7,3.4,16.1-3.3,21l-14.7,10.7l0,0C395.6,254.5,392.5,255.6,389.3,255.6z M396,249.7L396,249.7z M403.1,220.9&#10;&#9;&#9;&#9;c-1.6,0-3.2,0.5-4.6,1.5l-14.7,10.7c-3.5,2.5-4.2,7.4-1.7,10.8l0.9,1.2c2.5,3.5,7.4,4.2,10.8,1.7l14.7-10.7&#10;&#9;&#9;&#9;c3.5-2.5,4.2-7.4,1.7-10.8c0,0,0,0,0,0l-0.9-1.2C407.9,222,405.6,220.8,403.1,220.9z"/>
		<path class="st1_cybersecurity-39" d="M402.9,233.2c-2,0-3.6-1.6-3.6-3.7c0-1.2,0.6-2.3,1.5-3l22.9-16.5c1.6-1.2,3.9-0.8,5.1,0.8s0.8,3.9-0.8,5.1&#10;&#9;&#9;&#9;L405,232.6C404.4,233,403.6,233.2,402.9,233.2z"/>
	</g>
	<path class="st1_cybersecurity-39" d="M397.2,142.3H104.7c-1-0.1-1.8-1-1.7-2c0.1-0.9,0.8-1.6,1.7-1.7h292.5c1-0.1,1.9,0.7,2,1.7&#10;&#9;&#9;c0.1,1-0.7,1.9-1.7,2C397.4,142.3,397.3,142.3,397.2,142.3z"/>
	<circle class="st5_cybersecurity-39" cx="119.3" cy="129.9" r="4.5"/>
	<circle class="st1_cybersecurity-39" cx="136.9" cy="129.9" r="4.5"/>
	<circle class="st1_cybersecurity-39" cx="154.5" cy="129.9" r="4.5"/>
</g>
</svg>