<svg id="_0019_security" xmlns="http://www.w3.org/2000/svg" viewBox="0 0 500 500" data-imageid="cybersecurity-59" imageName="Cybersecurity" class="illustrations_image" style="width: 142px;"><defs><style>.cls-1_cybersecurity-59,.cls-2_cybersecurity-59{fill:#fff;}.cls-3_cybersecurity-59{fill:#e6e6e6;}.cls-4_cybersecurity-59{opacity:.02;}.cls-4_cybersecurity-59,.cls-5_cybersecurity-59{fill:#000001;}.cls-6_cybersecurity-59{fill:#24285b;}.cls-5_cybersecurity-59{opacity:.08;}.cls-2_cybersecurity-59{opacity:.6;}.cls-7_cybersecurity-59{fill:#ffd200;}.cls-8_cybersecurity-59{fill:#68e1fd;}</style></defs><g id="monitor_cybersecurity-59"><ellipse class="cls-4_cybersecurity-59" cx="250" cy="419.66" rx="236.28" ry="24.16"/><polygon class="cls-8_cybersecurity-59 targetColor" points="225.12 316.64 212.25 401 295.01 401 275.82 316.64 225.12 316.64" style="fill: rgb(89, 195, 5);"/><path class="cls-6_cybersecurity-59" d="m54.94,35.55h390.11c8.5,0,15.4,6.9,15.4,15.4v248.76H39.55V50.94c0-8.5,6.9-15.4,15.4-15.4Z"/><path class="cls-1_cybersecurity-59" d="m64.3,49.29h371.41c6.23,0,11.28,5.05,11.28,11.28v211.38H53.02V60.57c0-6.23,5.05-11.28,11.28-11.28Z"/><path class="cls-8_cybersecurity-59 targetColor" d="m39.55,271.95h420.9v45.91c0,10.12-8.21,18.33-18.33,18.33H57.88c-10.12,0-18.33-8.21-18.33-18.33v-45.91h0Z" style="fill: rgb(89, 195, 5);"/><circle class="cls-1_cybersecurity-59" cx="250" cy="302.21" r="16.85"/><polygon class="cls-5_cybersecurity-59" points="222.14 336.19 280.27 336.19 217.59 365.97 222.14 336.19"/><rect class="cls-8_cybersecurity-59 targetColor" x="159.33" y="386.61" width="183.64" height="37" rx="11.35" ry="11.35" style="fill: rgb(89, 195, 5);"/><rect class="cls-2_cybersecurity-59" x="159.33" y="386.61" width="183.64" height="37" rx="11.35" ry="11.35"/><rect class="cls-3_cybersecurity-59" x="64.47" y="60.98" width="371.06" height="30.33" rx="9.3" ry="9.3"/><circle class="cls-6_cybersecurity-59" cx="83.45" cy="76.14" r="6.88"/><circle class="cls-8_cybersecurity-59 targetColor" cx="103.91" cy="76.14" r="6.88" style="fill: rgb(89, 195, 5);"/><circle class="cls-7_cybersecurity-59" cx="123.19" cy="76.14" r="6.88"/><rect class="cls-5_cybersecurity-59" x="141.56" y="69.27" width="247.97" height="13.75" rx="4.22" ry="4.22"/></g><g id="lock_cybersecurity-59"><ellipse class="cls-4_cybersecurity-59" cx="253.63" cy="233.98" rx="92.37" ry="16.62"/><path class="cls-6_cybersecurity-59" d="m252.5,179.6c-19.16,0-34.75-15.59-34.75-34.75s15.59-34.75,34.75-34.75,34.75,15.59,34.75,34.75-15.59,34.75-34.75,34.75Zm0-56.71c-12.11,0-21.96,9.85-21.96,21.96s9.85,21.96,21.96,21.96,21.96-9.85,21.96-21.96-9.85-21.96-21.96-21.96Z"/><rect class="cls-7_cybersecurity-59" x="204.02" y="147.49" width="99.17" height="87.24" rx="15.09" ry="15.09"/><path class="cls-6_cybersecurity-59" d="m264.93,187.97c0-6.27-5.08-11.36-11.36-11.36s-11.36,5.08-11.36,11.36c0,4.35,2.45,8.13,6.04,10.03l-4.05,18.24h18.68l-4.05-18.21c3.62-1.9,6.09-5.69,6.09-10.06Z"/></g></svg>