<svg version="1.1" id="Layer_1" xmlns="http://www.w3.org/2000/svg" xmlns:xlink="http://www.w3.org/1999/xlink" x="0px" y="0px" viewBox="0 0 500 500" style="width: 142px;" xml:space="preserve" data-imageid="ecology-76-7de93" imageName="Ecology" class="illustrations_image">
<style type="text/css">
	.st0_ecology-76-7de93{fill:#68E1FD;}
	.st1_ecology-76-7de93{fill:#231F20;}
	.st2_ecology-76-7de93{fill:#FFFFFF;}
	.st3_ecology-76-7de93{fill:#D1D3D4;}
</style>
<g id="Earth_and_Foliages_ecology-76-7de93">
	<path class="st0_ecology-76-7de93 targetColor" d="M392.4,156.4c0,29.2-18.6,42.7-41.6,42.7s-41.6-13.5-41.6-42.7s18.6-63,41.6-63S392.4,127.2,392.4,156.4z" style="fill: rgb(92, 202, 25);"/>
	<path class="st1_ecology-76-7de93" d="M350.8,199.8c-12.1,0-22.5-3.7-29.9-10.6c-8.1-7.6-12.4-18.9-12.4-32.8c0.2-15.1,4.4-29.9,12.3-42.8&#10;&#9;&#9;c8.4-13.4,19-20.9,30-20.9s21.6,7.4,30,20.9c7.9,12.9,12.1,27.7,12.3,42.8c0,13.9-4.3,25.2-12.4,32.8&#10;&#9;&#9;C373.2,196.1,362.9,199.8,350.8,199.8z M350.8,94c-22.7,0-41,34.1-41,62.4c0,20.3,10.8,42.1,41,42.1s41-21.7,41-42.1&#10;&#9;&#9;C391.8,128.2,373.5,94,350.8,94z"/>
	<polygon class="st2_ecology-76-7de93" points="352.2,119.8 356.6,234.3 345,234.3 &#9;"/>
	<path class="st1_ecology-76-7de93" d="M356.6,235H345c-0.2,0-0.3-0.1-0.5-0.2c-0.1-0.1-0.2-0.3-0.2-0.5l7.3-114.5c0-0.3,0.3-0.6,0.6-0.6l0,0&#10;&#9;&#9;c0.3,0,0.6,0.3,0.6,0.6l4.4,114.5c0,0.2-0.1,0.3-0.2,0.5C357,234.9,356.8,235,356.6,235z M345.7,233.7h10.3l-3.9-101.2L345.7,233.7&#10;&#9;&#9;z"/>
	<path class="st0_ecology-76-7de93 targetColor" d="M315,155.4c0.1,2.8-0.1,5.6-0.7,8.3c-1,4.9-2.8,9.8-6,13.7s-6.8,4.8-11.4,6.2c-4.1,1.3-8.1,3.3-12.4,4.4&#10;&#9;&#9;c-9.7,2.3-19.8,2.5-29.5,0.4c-8.6-1.9-16.8-6.6-21.3-14.2s-4.4-18,1.4-24.6c2.5-2.9,6.2-7.6,10.2-7.7c-0.4-2.6-1.4-5.2-0.9-7.9&#10;&#9;&#9;c0.4-2.5,2-5.1,4.5-5.7c1-0.3,2.3-0.4,2.5-1.4c0-0.4,0-0.8-0.2-1.2c-1.1-4.2,1.5-8.5,4.3-11.8c1.7-2.2,3.7-4.1,6-5.7&#10;&#9;&#9;c6.3-3.7,18.1-4.1,24,0.3c4,3,6.5,7.5,6.8,12.5c-0.2-2.4,10.1,3.4,11,5.4c2.2,4.9,2.1,11.7,0.2,16.6c4.5-0.4,8.7,3.1,10.4,7.3&#10;&#9;&#9;C314.5,151.9,314.9,153.6,315,155.4z" style="fill: rgb(92, 202, 25);"/>
	<path class="st1_ecology-76-7de93" d="M269,190.5c-4.8,0-9.5-0.5-14.1-1.5c-9.6-2.1-17.4-7.4-21.7-14.5c-4.8-8.2-4.2-18.9,1.5-25.3l0.7-0.8&#10;&#9;&#9;c2.4-2.8,5.6-6.5,9.2-7c-0.1-0.5-0.2-1.1-0.3-1.6c-0.5-1.9-0.7-3.8-0.5-5.7c0.4-2.6,2.1-5.5,5-6.2l0.4-0.1c0.9-0.2,1.5-0.4,1.6-0.8&#10;&#9;&#9;c0-0.2,0-0.5-0.1-0.7V126c-1.3-4.7,1.9-9.4,4.4-12.4c1.7-2.3,3.8-4.2,6.2-5.8c6.2-3.7,18.4-4.4,24.8,0.3c3.8,2.8,6.3,7.1,7,11.8&#10;&#9;&#9;c2.5-0.1,10.2,4.4,11,6.3c2,4.5,2.2,11,0.5,16.2c4.6,0.1,8.5,3.9,10,7.7c0.7,1.7,1,3.4,1.2,5.2c0.2,2.9-0.1,5.7-0.7,8.5&#10;&#9;&#9;c-1.2,5.9-3.2,10.5-6.1,14c-3.2,3.9-6.6,4.9-11,6.2l-0.7,0.2c-1.7,0.5-3.5,1.2-5.2,1.9c-2.4,1-4.8,1.8-7.3,2.5&#10;&#9;&#9;C279.5,189.9,274.3,190.5,269,190.5z M273.8,106c-4.5,0-9,1-11.9,2.8c-2.3,1.5-4.2,3.4-5.9,5.5c-2.3,2.8-5.3,7.1-4.2,11.3&#10;&#9;&#9;c0.2,0.5,0.2,1,0.2,1.5c-0.3,1.3-1.6,1.6-2.6,1.8L249,129c-2.4,0.6-3.7,3-4,5.2c-0.2,1.8,0,3.6,0.5,5.3c0.2,0.8,0.4,1.6,0.5,2.4&#10;&#9;&#9;c0,0.2,0,0.4-0.1,0.5c-0.1,0.1-0.3,0.2-0.5,0.2c-3.3,0-6.6,3.9-9,6.6l-0.7,0.8c-5.3,6.1-5.9,16.1-1.3,23.8&#10;&#9;&#9;c4,6.8,11.6,11.9,20.9,13.9c9.6,2.1,19.6,1.9,29.2-0.4c2.4-0.7,4.8-1.5,7.1-2.4c1.7-0.7,3.5-1.4,5.3-1.9l0.7-0.2&#10;&#9;&#9;c4.1-1.3,7.4-2.3,10.4-5.8c2.8-3.3,4.7-7.7,5.9-13.4c0.6-2.7,0.8-5.4,0.7-8.1l0,0c-0.1-1.7-0.5-3.3-1.1-4.9&#10;&#9;&#9;c-1.5-3.7-5.3-7.3-9.7-6.9c-0.2,0-0.4-0.1-0.6-0.2c-0.1-0.2-0.2-0.4-0.1-0.6c1.9-5,1.8-11.7-0.2-16.1c-0.7-1.6-8.3-5.9-9.7-5.6&#10;&#9;&#9;c0,0.3-0.3,0.6-0.6,0.6c-0.4,0-0.7-0.2-0.7-0.6c-0.4-4.8-2.8-9.1-6.6-12C282.3,107,278,106.1,273.8,106L273.8,106z"/>
	<polygon class="st2_ecology-76-7de93" points="296.7,141.7 277.5,154.5 276.5,122.4 274.6,129.4 274.2,164.8 253.1,146 252.8,148.1 274,168.6 &#10;&#9;&#9;271.4,217.4 279.4,217.4 277.7,160.3 294.9,146 &#9;"/>
	<path class="st1_ecology-76-7de93" d="M279.4,218h-8c-0.4,0-0.6-0.3-0.6-0.7c0,0,0,0,0,0l2.6-48.5l-21-20.3c-0.1-0.1-0.2-0.3-0.2-0.5l0.2-2&#10;&#9;&#9;c0-0.2,0.2-0.4,0.4-0.5c0.2-0.1,0.5,0,0.6,0.1l20.1,17.8l0.4-34c0,0,0-0.1,0-0.1l1.9-7c0.1-0.3,0.4-0.5,0.8-0.5&#10;&#9;&#9;c0.3,0.1,0.5,0.3,0.5,0.6l1,30.9l18.3-12.1c0.2-0.2,0.5-0.2,0.8,0c0.2,0.2,0.3,0.5,0.2,0.7l-1.8,4.3c0,0.1-0.1,0.2-0.2,0.2l-17,14&#10;&#9;&#9;l1.8,56.8c0,0.2-0.1,0.3-0.2,0.5C279.8,217.9,279.6,218,279.4,218z M272.1,216.7h6.7l-1.8-56.4c0-0.2,0.1-0.4,0.2-0.5l17.1-14.1&#10;&#9;&#9;l0.9-2.2L277.8,155c-0.3,0.2-0.7,0.1-0.9-0.2c-0.1-0.1-0.1-0.2-0.1-0.3l-0.8-27.6l-0.7,2.7l-0.4,35.3c0,0.3-0.3,0.6-0.6,0.6&#10;&#9;&#9;c-0.2,0-0.3-0.1-0.4-0.2l-20.2-17.9l-0.1,0.5l21,20.3c0.1,0.1,0.2,0.3,0.2,0.5L272.1,216.7z"/>
	<path class="st1_ecology-76-7de93" d="M207.8,247.4c0,0,2.7-20.9,59.3-31.8s116.3,13.2,137.2,32.9s25.2,38.4,25.2,38.4s-80.6,64.2-118,51.6&#10;&#9;&#9;S207.8,247.4,207.8,247.4z"/>
	<path class="st1_ecology-76-7de93" d="M322.5,340.8c-3.8,0.1-7.6-0.5-11.3-1.7c-37-12.5-103.3-90.5-104-91.3c-0.1-0.1-0.2-0.3-0.1-0.5&#10;&#9;&#9;c0.1-0.9,3.4-21.4,59.7-32.3c55.7-10.8,115.7,12.3,137.7,33.1c20.8,19.6,25.4,38.5,25.4,38.7c0.1,0.2,0,0.5-0.2,0.6&#10;&#9;&#9;C426.8,289.8,362.2,340.8,322.5,340.8z M208.4,247.2c4,4.7,67.5,78.6,103.2,90.7c35.4,12,111.5-46.9,117.1-51.2&#10;&#9;&#9;c-0.8-2.7-6.1-19.9-25-37.7c-21.8-20.6-81.4-43.5-136.6-32.8C215.2,226.3,209,244.9,208.4,247.2L208.4,247.2z"/>
	<path class="st0_ecology-76-7de93 targetColor" d="M351.9,193.7c0,25.8-15.5,37.7-34.6,37.7s-34.6-11.9-34.6-37.7s15.5-55.6,34.6-55.6S351.9,168,351.9,193.7z" style="fill: rgb(92, 202, 25);"/>
	<path class="st1_ecology-76-7de93" d="M317.3,232.1c-26,0-35.2-19.8-35.2-38.3c0.1-13.2,3.7-26.2,10.2-37.7c7-11.9,15.9-18.5,25-18.5s18,6.6,25,18.5&#10;&#9;&#9;c6.6,11.5,10.1,24.5,10.2,37.8C352.5,212.3,343.3,232.1,317.3,232.1z M317.3,138.8c-18.8,0-33.9,30.1-33.9,55c0,22.8,13,37,33.9,37&#10;&#9;&#9;s33.9-14.2,33.9-37C351.3,168.8,336.1,138.8,317.3,138.8z"/>
	<polygon class="st0_ecology-76-7de93 targetColor" points="234,202.4 216.4,222 275.1,222 257.5,202.4 269.9,202.4 255.1,181.6 264.9,181.6 245.8,147.8 &#10;&#9;&#9;226.6,181.6 236.4,181.6 221.6,202.4 &#9;" style="fill: rgb(92, 202, 25);"/>
	<path class="st1_ecology-76-7de93" d="M275.1,222.6h-58.8c-0.3,0-0.5-0.1-0.6-0.4c-0.1-0.2-0.1-0.5,0.1-0.7l16.7-18.6h-11c-0.4,0-0.6-0.3-0.6-0.6&#10;&#9;&#9;c0-0.1,0-0.2,0.1-0.4l14.1-19.8h-8.6c-0.2,0-0.4-0.1-0.6-0.3c-0.1-0.2-0.1-0.4,0-0.6l19.2-33.8c0.2-0.3,0.6-0.4,0.9-0.2&#10;&#9;&#9;c0.1,0.1,0.1,0.1,0.2,0.2l19.2,33.8c0.1,0.2,0.1,0.4,0,0.6c-0.1,0.2-0.3,0.3-0.5,0.3h-8.6l14.1,19.8c0.1,0.2,0.2,0.5,0,0.7&#10;&#9;&#9;c-0.1,0.2-0.3,0.3-0.6,0.4h-11l16.7,18.6c0.2,0.2,0.2,0.5,0.1,0.7C275.6,222.5,275.4,222.7,275.1,222.6z M217.8,221.4h55.9&#10;&#9;&#9;L257,202.8c-0.2-0.2-0.2-0.5-0.1-0.7c0.1-0.2,0.3-0.4,0.6-0.4h11.2L254.6,182c-0.2-0.3-0.1-0.7,0.1-0.9c0.1-0.1,0.2-0.1,0.4-0.1&#10;&#9;&#9;h8.8l-18.1-32l-18.1,31.9h8.8c0.3,0,0.6,0.3,0.6,0.6c0,0.1,0,0.3-0.1,0.4l-14.1,19.8H234c0.3,0,0.5,0.1,0.6,0.4&#10;&#9;&#9;c0.1,0.2,0.1,0.5-0.1,0.7L217.8,221.4z"/>
	<polygon class="st2_ecology-76-7de93" points="247.5,242.5 242,242.5 245.8,160.7 &#9;"/>
	<path class="st1_ecology-76-7de93" d="M247.5,243.2H242c-0.2,0-0.3-0.1-0.5-0.2c-0.1-0.1-0.2-0.3-0.2-0.5l3.7-81.8c0-0.3,0.3-0.6,0.6-0.6l0,0&#10;&#9;&#9;c0.3,0,0.6,0.3,0.6,0.6c0,0,0,0,0,0l1.8,81.8C248.1,242.9,247.9,243.2,247.5,243.2L247.5,243.2z M242.7,241.9h4.2l-1.3-62.2&#10;&#9;&#9;L242.7,241.9z"/>
	<path class="st0_ecology-76-7de93 targetColor" d="M415.9,204.1c1.7,3.6,1.7,7.7,0.2,11.4c-2.9,6.7-10.5,12.1-16.1,16.6c-10.9,8.8-26.6,9.1-38.7,2.6&#10;&#9;&#9;c-4.7-2.7-8.9-6.1-12.6-10c-2.3-2.1-4.2-4.6-5.6-7.3c-2.6-5.8-1.7-12.6,2.5-17.5c0.8-0.8,2.9-1.9,3.4-2.7c0.8-1.7-0.2-1.5-0.3-3.2&#10;&#9;&#9;c-0.1-3.1-0.6-5.3,0.7-8.4c0.8-2.3,2.3-4.2,4.3-5.6c1.9-1.2,5.4,0.3,6.5-0.5c1.3-1,1.2-5.8,3-7.6c2.2-2.1,5.2-2.9,8.2-2.2&#10;&#9;&#9;c-2-4.7,2.4-10.3,7.4-11.1s10,1.9,13.8,5.3c4.4,3.9,7.9,10,6,15.6c0.6-2,10.2,4.9,11,5.8c3.8,4.4,3.1,8.8,1.1,14&#10;&#9;&#9;C412.9,200.1,414.8,201.8,415.9,204.1z" style="fill: rgb(92, 202, 25);"/>
	<path class="st1_ecology-76-7de93" d="M379,239.9c-6.3,0-12.5-1.6-18-4.5c-5.2-2.8-9.5-6.8-12.7-10.1c-2.3-2.2-4.2-4.7-5.8-7.4&#10;&#9;&#9;c-2.8-6-1.8-13.1,2.6-18.2c0.5-0.5,1-0.9,1.6-1.2c0.6-0.3,1.2-0.8,1.6-1.3c0.4-0.7,0.3-0.8,0.1-1.2c-0.3-0.5-0.5-1.1-0.5-1.7&#10;&#9;&#9;c0-0.6-0.1-1.1-0.1-1.6c-0.3-2.4-0.1-4.8,0.8-7c0.9-2.4,2.4-4.4,4.5-5.9c1.2-0.8,2.9-0.6,4.4-0.5c0.7,0.2,1.4,0.2,2.1,0&#10;&#9;&#9;c0.4-0.3,0.7-1.6,1-2.8c0.4-1.7,0.8-3.7,1.9-4.7c2-1.9,4.9-2.9,7.7-2.6c-0.4-1.9-0.1-4,0.9-5.7c1.5-2.8,4.2-4.7,7.3-5.2&#10;&#9;&#9;c6.2-1,11.6,3,14.4,5.5c4,3.6,7.7,9.4,6.5,15c3,0.4,10.1,5.8,10.5,6.3c3.8,4.3,3.4,8.8,1.5,14c2.2,1,4,2.7,5,4.9l0,0&#10;&#9;&#9;c1.7,3.8,1.8,8.1,0.2,11.9c-2.7,6.1-9.1,11.2-14.3,15.3l-2,1.6C394.3,237.4,386.7,240,379,239.9z M355.7,180.3&#10;&#9;&#9;c-0.6,0-1.3,0.1-1.9,0.4c-1.9,1.3-3.2,3.2-4,5.3c-0.8,2.1-1.1,4.3-0.7,6.5c0,0.5,0.1,1.1,0.1,1.6c0,0.4,0.1,0.8,0.3,1.1&#10;&#9;&#9;c0.4,0.7,0.4,1.7-0.1,2.4c-0.5,0.8-1.3,1.4-2.1,1.8c-0.5,0.3-1,0.7-1.4,1.1c-4,4.6-4.9,11.2-2.4,16.7c1.4,2.7,3.3,5.1,5.5,7.1&#10;&#9;&#9;c3.1,3.2,7.4,7.2,12.4,9.9c12.5,6.7,27.8,5.7,38-2.6l2-1.6c5.3-4.2,11.4-9,13.9-14.8c1.5-3.5,1.4-7.4-0.2-10.9&#10;&#9;&#9;c-0.9-2.1-2.7-3.7-4.9-4.5c-0.2,0-0.3-0.2-0.4-0.3c-0.1-0.2-0.1-0.3,0-0.5c2-5.2,2.5-9.3-1-13.3c-2.2-2.5-9.5-6-10-5.9&#10;&#9;&#9;c-0.1,0.3-0.4,0.5-0.7,0.4c0,0,0,0-0.1,0c-0.3-0.1-0.5-0.5-0.4-0.9l0,0c1.8-5.4-1.9-11.2-5.8-14.9c-2.5-2.3-7.7-6-13.3-5.1&#10;&#9;&#9;c-2.7,0.5-5.1,2.2-6.4,4.6c-1,1.7-1.2,3.8-0.5,5.6c0.1,0.3,0,0.7-0.4,0.8c-0.1,0-0.2,0.1-0.4,0c-2.7-0.6-5.5,0.2-7.6,2.1&#10;&#9;&#9;c-0.8,0.8-1.2,2.6-1.6,4.1s-0.7,3-1.5,3.6s-1.8,0.4-3,0.3C356.9,180.4,356.3,180.3,355.7,180.3L355.7,180.3z"/>
	<polygon class="st2_ecology-76-7de93" points="397.4,196.9 379.5,208.6 378.6,179 376.9,185.5 376.5,218.2 357,200.8 356.7,202.7 376.3,221.7 &#10;&#9;&#9;373.9,266.8 381.3,266.8 379.7,214 395.7,200.8 &#9;"/>
	<path class="st1_ecology-76-7de93" d="M381.3,267.5h-7.4c-0.2,0-0.3-0.1-0.5-0.2c-0.1-0.1-0.2-0.3-0.2-0.5l2.4-44.9l-19.4-18.8&#10;&#9;&#9;c-0.1-0.1-0.2-0.3-0.2-0.5l0.2-1.9c0-0.3,0.3-0.6,0.7-0.6c0.1,0,0.3,0.1,0.4,0.2l18.5,16.4l0.4-31.3c0,0,0-0.1,0-0.1l1.7-6.5&#10;&#9;&#9;c0.1-0.3,0.4-0.5,0.8-0.5c0.3,0.1,0.5,0.3,0.5,0.6l0.9,28.5l16.9-11.2c0.2-0.2,0.5-0.2,0.8,0c0.2,0.2,0.3,0.5,0.2,0.7l-1.6,4&#10;&#9;&#9;c0,0.1-0.1,0.2-0.2,0.2l-15.8,13l1.6,52.5c0,0.2-0.1,0.3-0.2,0.5C381.7,267.4,381.5,267.5,381.3,267.5z M374.6,266.2h6.1l-1.6-52.1&#10;&#9;&#9;c0-0.2,0.1-0.4,0.2-0.5l15.9-13.1l0.8-1.9l-16.1,10.6c-0.2,0.1-0.4,0.1-0.6,0c-0.2-0.1-0.3-0.3-0.4-0.5l-0.8-25.3l-0.6,2.2&#10;&#9;&#9;l-0.4,32.6c0,0.3-0.3,0.6-0.6,0.6c-0.2,0-0.3-0.1-0.4-0.2l-18.7-16.5v0.4l19.4,18.7c0.1,0.1,0.2,0.3,0.2,0.5L374.6,266.2z"/>
	<polygon class="st2_ecology-76-7de93" points="318,154.2 320.1,253.3 314.5,253.3 &#9;"/>
	<path class="st1_ecology-76-7de93" d="M320.1,254h-5.6c-0.2,0-0.3-0.1-0.5-0.2c-0.1-0.1-0.2-0.3-0.2-0.5l3.5-99.2c0-0.3,0.3-0.6,0.6-0.6l0,0&#10;&#9;&#9;c0.3,0,0.6,0.3,0.6,0.6l2.1,99.2c0,0.2-0.1,0.3-0.2,0.5C320.5,253.9,320.3,254,320.1,254z M315.1,252.7h4.3l-1.6-76L315.1,252.7z"/>
</g>
<g id="Sund_ecology-76-7de93">
	<circle class="st3_ecology-76-7de93" cx="149.6" cy="160.2" r="38.1"/>
	<path class="st3_ecology-76-7de93" d="M149.6,199c-21.4,0-38.8-17.3-38.8-38.8s17.3-38.8,38.8-38.8s38.8,17.3,38.8,38.8&#10;&#9;&#9;C188.3,181.6,171,199,149.6,199z M149.6,122.9c-20.6,0-37.3,16.8-37.3,37.4c0,20.6,16.8,37.3,37.4,37.3c20.6,0,37.3-16.7,37.3-37.3&#10;&#9;&#9;C187,139.6,170.2,122.9,149.6,122.9z"/>
</g>
<g id="Hand_ecology-76-7de93">
	<path class="st2_ecology-76-7de93" d="M142.5,395c0,0,44.4-54.9,50.5-56.5s59.8,31.8,125.6,20.3s136.6-55.4,136.1-66.9S443.4,271,433.5,271&#10;&#9;&#9;s-102.3,30.7-102.3,30.7s-69.5-66-150.9-64.2C131.5,238.6,59.1,347.3,58,348.4S142.5,395,142.5,395z"/>
	<path class="st1_ecology-76-7de93" d="M142.5,395.6c-0.1,0-0.2,0-0.3-0.1c-38.6-20.5-84.6-45.3-84.8-47.1c0-0.2,0-0.4,0.2-0.6&#10;&#9;&#9;c0.1-0.1,0.7-0.9,1.4-1.9c22.8-32.5,80.4-108.1,121.4-109.1c78.1-1.8,146.1,59.5,151.1,64.1c7.2-2.4,92.5-30.6,102.1-30.6&#10;&#9;&#9;s21.2,9.2,21.8,21.5c0.6,12.6-72,56.3-136.6,67.6c-49.8,8.7-92.7-8.2-113.3-16.3c-6.1-2.4-11-4.3-12.3-4&#10;&#9;&#9;c-4.8,1.3-37.8,41.1-50.1,56.3C142.9,395.5,142.7,395.6,142.5,395.6z M58.8,348.3c4.5,3.4,51.6,28.9,83.5,45.9&#10;&#9;&#9;c4.4-5.4,44.5-54.7,50.5-56.3c1.6-0.4,5.2,0.9,13.1,4c20.5,8.1,63.2,24.9,112.6,16.3c66-11.6,136-55.7,135.5-66.3&#10;&#9;&#9;c-0.5-11.6-11.3-20.2-20.5-20.2c-9.7,0-101.2,30.4-102.1,30.7c-0.2,0.1-0.5,0-0.6-0.1c-0.7-0.7-70.2-65.8-150.4-64&#10;&#9;&#9;c-40.4,0.9-97.7,76.2-120.4,108.5L58.8,348.3z"/>
	<polygon class="st1_ecology-76-7de93" points="177.1,365 89,299.5 45.3,353.8 136.2,406.6 &#9;"/>
	<path class="st1_ecology-76-7de93" d="M136.2,407.2c-0.1,0-0.2,0-0.3-0.1L45,354.3c-0.2-0.1-0.3-0.2-0.3-0.4c0-0.2,0-0.4,0.1-0.5l43.7-54.2&#10;&#9;&#9;c0.2-0.3,0.6-0.3,0.8-0.1l88.1,65.5c0.1,0.1,0.2,0.3,0.2,0.5c0,0.2-0.1,0.3-0.2,0.5l-40.9,41.6&#10;&#9;&#9;C136.5,407.2,136.4,407.2,136.2,407.2z M46.2,353.6l89.9,52.2l40-40.7l-87-64.8L46.2,353.6z"/>
</g>
<g id="thumb_ecology-76-7de93">
	<path class="st2_ecology-76-7de93" d="M220.9,263.3c0,0,27.4,13.7,46.6,14.3s62.5,0.5,75.2,6s19.2,24.1,13.2,30.2s-97.7,11.5-143.2,4.4"/>
	<path class="st1_ecology-76-7de93" d="M269.6,322.2c-20.9,0-41.5-1-57-3.4c-0.4,0-0.6-0.3-0.6-0.7c0-0.4,0.3-0.6,0.7-0.6c0,0,0.1,0,0.1,0&#10;&#9;&#9;c47,7.4,137.3,1.1,142.6-4.2c1.9-1.9,2.5-5.5,1.7-9.7c-1.3-6.8-6.5-15.8-14.7-19.4c-10.7-4.6-43.5-5.3-65.1-5.8&#10;&#9;&#9;c-3.7-0.1-7-0.1-9.8-0.2c-19.1-0.5-46.6-14.2-46.9-14.3c-0.3-0.2-0.4-0.6-0.2-0.9c0.2-0.3,0.5-0.4,0.8-0.3&#10;&#9;&#9;c0.3,0.1,27.5,13.7,46.4,14.2c2.8,0.1,6.1,0.1,9.8,0.2c21.8,0.5,54.7,1.1,65.6,5.9c8.7,3.8,14.1,13.2,15.5,20.4&#10;&#9;&#9;c0.9,4.8,0.2,8.6-2.1,10.9C352.2,318.4,310.5,322.2,269.6,322.2z"/>
</g>
</svg>