<svg id="_0155_network_1" xmlns="http://www.w3.org/2000/svg" viewBox="0 0 500 500" data-imageid="network-1-40" imageName="Network 1" class="illustrations_image" style="width: 142px;"><defs><style>.cls-1_network-1-40{fill:#a5a5a5;}.cls-2_network-1-40{opacity:.37;}.cls-2_network-1-40,.cls-3_network-1-40,.cls-4_network-1-40,.cls-5_network-1-40,.cls-6_network-1-40{fill:none;}.cls-3_network-1-40{opacity:.58;}.cls-7_network-1-40{fill:#e6e6e6;}.cls-4_network-1-40{opacity:.03;}.cls-5_network-1-40{opacity:.73;}.cls-8_network-1-40{fill:#24285b;}.cls-9_network-1-40{fill:#000001;}.cls-6_network-1-40{opacity:.34;}.cls-10_network-1-40{fill:#ffd200;}.cls-11_network-1-40{fill:#68e1fd;}</style></defs><g id="sd_network-1-40" class="cls-4_network-1-40"><ellipse class="cls-9_network-1-40" cx="261.14" cy="437.69" rx="203.13" ry="21.65"/></g><g id="cloud2_network-1-40" class="cls-6_network-1-40"><path class="cls-7_network-1-40" d="m158.92,157.47c0-10.95-8.87-19.82-19.82-19.82-1.09,0-2.14.11-3.18.28-4.51-8.37-13.35-14.07-23.53-14.07-.33,0-.65.04-.98.05.62-2.47.98-5.03.98-7.69,0-17.51-14.2-31.71-31.71-31.71s-31.71,14.2-31.71,31.71c0,2.66.36,5.22.98,7.69-.33-.01-.65-.05-.98-.05-14.75,0-26.71,11.96-26.71,26.71s11.96,26.71,26.71,26.71h92.72l-.02-.18c9.73-1.26,17.25-9.56,17.25-19.64Z"/></g><g id="globe_network-1-40"><circle class="cls-7_network-1-40" cx="253.9" cy="214.07" r="173.41"/><g class="cls-2_network-1-40"><path class="cls-1_network-1-40" d="m125.75,100.56s1.52,25.01,18.69,17.51c17.17-7.5,40.3-15.63,37.8,11.88-2.5,27.51,11.26,31.26,30.64,24.39s10-8.75,11.26-33.77c1.25-25.01-31.26-26.26-26.26-43.77,5-17.51,44.07,3.37,30.48-34.27,0,0-68.42,5.66-102.6,58.03Z"/></g><g class="cls-2_network-1-40"><path class="cls-1_network-1-40" d="m270.1,165.74c-3.63.05-7.26.74-10.54,2.3-6.85,3.27-15.11,11.15-10.42,29.97,7.5,30.12,20.01,7.74,36.27,11.42,16.26,3.68,53.15,7.44,35.02,40.58-18.13,33.14,2.5,40.02,20.01,31.89,17.51-8.13,5.63-40.64,23.76-26.26,18.13,14.38-2.7,59.71,41.48,42.36,0,0,50.86-77,0-167.85,0,0-23.05-44.11-41.19-28.48-18.13,15.63,6.82,16.52,9.33,34.47,2.5,17.95-8.07,39.85-22.54,19.7-14.47-20.15-9.59-18.37-32.73-20.88-18.48-2-31.37.22-31.67,15.92-.16,8.16-6.78,14.72-14.93,14.84l-1.85.03Z"/></g><g class="cls-2_network-1-40"><path class="cls-1_network-1-40" d="m265.53,68.05s-18-5-17.75,16.88c.25,21.89,12.13,20.62,25.26,15,13.13-5.62,1.88,12.51,26.89,7.51,25.01-5,26.89-10.86,21.26-19.5-5.63-8.64-15.01-41.78-55.65-19.89Z"/></g><g class="cls-2_network-1-40"><path class="cls-1_network-1-40" d="m80.49,214.07s21.16-34.59,44.26-11.21c23.1,23.38-22.35,19.63,1,42.14,23.35,22.51,39.59-29.79,52.73-9.89,13.14,19.9,38.89,33.41,8.71,50.92-30.19,17.51-12.13,41.83,1.78,36.67,13.91-5.16,38.62,30.06,0,51.84,0,0-113.31-41.34-108.48-160.47Z"/></g><g class="cls-2_network-1-40"><path class="cls-1_network-1-40" d="m261.8,253.76s-23.76,0-23.83,22.51c-.07,22.51,44.38,1.23,34.03,25.63-10.35,24.4,13.96,30.97,27.45,20.8,13.48-10.16-9.78-40.75-7.53-62.35,2.25-21.6-27.48-16.6-30.12-6.59Z"/></g><g class="cls-2_network-1-40"><path class="cls-1_network-1-40" d="m253.9,387.48s-15.33-16.17,18.1-19.92c33.42-3.75,34.16-21.26,45.05-28.76,10.89-7.5,33.94,18.98,33.94,18.98,0,0-42.8,38.37-97.08,29.7Z"/></g></g><g id="cloud1_network-1-40"><path class="cls-1_network-1-40" d="m481.8,328.37c0-9.91-8.03-17.95-17.95-17.95-.98,0-1.94.1-2.88.25-4.08-7.58-12.09-12.74-21.31-12.74-.3,0-.59.03-.89.04.56-2.23.89-4.56.89-6.96,0-15.86-12.86-28.71-28.71-28.71s-28.71,12.86-28.71,28.71c0,2.4.33,4.73.89,6.96-.3-.01-.59-.04-.89-.04-13.36,0-24.19,10.83-24.19,24.19s10.83,24.19,24.19,24.19h83.95l-.02-.17c8.81-1.14,15.62-8.66,15.62-17.78Z"/></g><g id="network_network-1-40"><path class="cls-8_network-1-40" d="m243.01,207.17s-.09,0-.13,0l-2-.13c-1.1-.07-1.94-1.02-1.87-2.12.07-1.1,1.02-1.93,2.12-1.87l2,.13c1.1.07,1.94,1.02,1.87,2.12-.07,1.06-.95,1.87-1.99,1.87Zm9.85-.34c-.84,0-1.62-.53-1.9-1.37-.35-1.05.22-2.18,1.27-2.53l1.9-.63c1.05-.35,2.18.22,2.53,1.27s-.22,2.18-1.27,2.53l-1.9.63c-.21.07-.42.1-.63.1Zm-21.83-.43s-.09,0-.13,0l-2-.13c-1.1-.07-1.94-1.02-1.87-2.12.07-1.1,1.02-1.93,2.12-1.87l2,.13c1.1.07,1.94,1.02,1.87,2.12-.07,1.06-.95,1.87-1.99,1.87Zm-11.98-.77s-.09,0-.13,0l-2-.13c-1.1-.07-1.94-1.02-1.87-2.12s1.05-1.93,2.12-1.87l2,.13c1.1.07,1.94,1.02,1.87,2.12-.07,1.06-.95,1.87-1.99,1.87Zm-11.98-.77s-.09,0-.13,0l-2-.13c-1.1-.07-1.94-1.02-1.87-2.12s1.04-1.93,2.12-1.87l2,.13c1.1.07,1.94,1.02,1.87,2.12-.07,1.06-.95,1.87-1.99,1.87Zm-11.98-.77s-.09,0-.13,0l-2-.13c-1.1-.07-1.94-1.02-1.87-2.12s1.02-1.93,2.12-1.87l2,.13c1.1.07,1.94,1.02,1.87,2.12-.07,1.06-.95,1.87-1.99,1.87Zm-11.98-.77s-.09,0-.13,0l-2-.13c-1.1-.07-1.94-1.02-1.87-2.12.07-1.1,1.01-1.93,2.12-1.87l2,.13c1.1.07,1.94,1.02,1.87,2.12-.07,1.06-.95,1.87-1.99,1.87Zm81.13-.26c-.84,0-1.62-.53-1.9-1.37-.35-1.05.22-2.18,1.27-2.53l1.9-.63c1.05-.35,2.18.22,2.53,1.27s-.22,2.18-1.27,2.53l-1.9.63c-.21.07-.42.1-.63.1Zm-93.1-.51s-.09,0-.13,0l-2-.13c-1.1-.07-1.94-1.02-1.87-2.12.07-1.1,1.01-1.93,2.12-1.87l2,.13c1.1.07,1.94,1.02,1.87,2.12-.07,1.06-.95,1.87-1.99,1.87Zm-11.98-.77s-.09,0-.13,0l-2-.13c-1.1-.07-1.94-1.02-1.87-2.12.07-1.1,1.01-1.93,2.12-1.87l2,.13c1.1.07,1.94,1.02,1.87,2.12-.07,1.06-.95,1.87-1.99,1.87Zm-11.97-.77s-.09,0-.13,0l-2-.13c-1.1-.07-1.94-1.02-1.87-2.12.07-1.1,1.01-1.93,2.12-1.87l2,.13c1.1.07,1.94,1.02,1.87,2.12-.07,1.06-.95,1.87-1.99,1.87Zm-11.98-.77s-.09,0-.13,0l-2-.13c-1.1-.07-1.94-1.02-1.87-2.12.07-1.1,1.01-1.93,2.12-1.87l2,.13c1.1.07,1.94,1.02,1.87,2.12-.07,1.06-.95,1.87-1.99,1.87Zm-11.98-.77s-.09,0-.13,0l-2-.13c-1.1-.07-1.94-1.02-1.87-2.12.07-1.1,1-1.93,2.12-1.87l2,.13c1.1.07,1.94,1.02,1.87,2.12-.07,1.06-.95,1.87-1.99,1.87Zm152.4-.18c-.84,0-1.62-.53-1.9-1.37-.35-1.05.22-2.18,1.27-2.53l1.9-.63c1.05-.35,2.18.22,2.53,1.27s-.22,2.18-1.27,2.53l-1.9.63c-.21.07-.42.1-.63.1Zm11.4-3.76c-.84,0-1.62-.53-1.9-1.37-.35-1.05.22-2.18,1.27-2.53l1.9-.63c1.05-.35,2.18.22,2.53,1.27s-.22,2.18-1.27,2.53l-1.9.63c-.21.07-.42.1-.63.1Zm-159.79-3.63c-.44,0-.89-.15-1.26-.44-.86-.69-.99-1.95-.3-2.81l1.26-1.56c.69-.86,1.95-.99,2.81-.3.86.69.99,1.95.3,2.81l-1.26,1.56c-.39.49-.97.74-1.56.74Zm171.19-.12c-.84,0-1.62-.53-1.9-1.38-.35-1.05.22-2.18,1.27-2.52l1.9-.63c1.05-.35,2.18.22,2.53,1.27.35,1.05-.22,2.18-1.27,2.52l-1.9.63c-.21.07-.42.1-.63.1Zm11.4-3.76c-.84,0-1.62-.53-1.9-1.37-.35-1.05.22-2.18,1.27-2.53l1.9-.63c1.05-.35,2.18.22,2.53,1.27s-.22,2.18-1.27,2.53l-1.9.63c-.21.07-.42.1-.63.1Zm11.4-3.76c-.84,0-1.62-.53-1.9-1.37-.35-1.05.22-2.18,1.27-2.53l1.9-.63c1.05-.35,2.18.22,2.53,1.27s-.22,2.18-1.27,2.53l-1.9.63c-.21.07-.42.1-.63.1Zm-186.44-1.7c-.44,0-.88-.15-1.25-.44-.86-.69-.99-1.95-.3-2.81l1.26-1.56c.7-.86,1.95-.99,2.81-.3.86.69.99,1.95.3,2.81l-1.26,1.56c-.4.49-.97.74-1.56.74Zm197.84-2.05c-.84,0-1.62-.53-1.9-1.37-.35-1.05.22-2.18,1.27-2.53l1.9-.63c1.05-.35,2.18.22,2.53,1.27s-.22,2.18-1.27,2.53l-1.9.63c-.21.07-.42.1-.63.1Zm11.4-3.76c-.84,0-1.62-.53-1.9-1.37-.35-1.05.22-2.18,1.27-2.53l1.9-.63c1.05-.35,2.18.22,2.53,1.27.35,1.05-.22,2.18-1.27,2.53l-1.9.63c-.21.07-.42.1-.63.1Zm-201.7-3.53c-.44,0-.89-.15-1.26-.44-.86-.69-.99-1.95-.3-2.81l1.26-1.56c.7-.86,1.95-.99,2.81-.3.86.69.99,1.95.3,2.81l-1.26,1.56c-.4.49-.97.74-1.56.74Zm213.1-.23c-.84,0-1.62-.53-1.9-1.38-.35-1.05.22-2.18,1.27-2.52l1.9-.63c1.05-.35,2.18.22,2.53,1.27.35,1.05-.22,2.18-1.27,2.52l-1.9.63c-.21.07-.42.1-.63.1Zm11.4-3.76c-.84,0-1.62-.53-1.9-1.38-.35-1.05.22-2.18,1.27-2.52l1.9-.63c1.05-.35,2.18.22,2.53,1.27.35,1.05-.22,2.18-1.27,2.53l-1.9.62c-.21.07-.42.1-.63.1Zm11.4-3.76c-.84,0-1.62-.53-1.9-1.38-.35-1.05.22-2.18,1.27-2.52l1.9-.63c1.05-.35,2.18.23,2.53,1.27.35,1.05-.22,2.18-1.27,2.52l-1.9.63c-.21.07-.42.1-.63.1Zm-228.35-1.6c-.44,0-.89-.15-1.26-.44-.86-.69-.99-1.95-.3-2.81l1.26-1.56c.7-.86,1.95-.99,2.81-.3.86.69.99,1.95.3,2.81l-1.26,1.56c-.4.49-.97.74-1.56.74Zm224.32-2.37c-.23,0-.46-.04-.68-.12l-1.88-.68c-1.04-.38-1.58-1.52-1.2-2.56.38-1.04,1.52-1.58,2.56-1.2l1.88.68c1.04.38,1.58,1.52,1.2,2.56-.29.81-1.06,1.32-1.88,1.32Zm-11.29-4.07c-.23,0-.45-.04-.68-.12l-1.88-.68c-1.04-.37-1.58-1.52-1.2-2.56.38-1.04,1.52-1.58,2.56-1.2l1.88.68c1.04.37,1.58,1.52,1.2,2.56-.29.81-1.06,1.32-1.88,1.32Zm-205.5-2.89c-.44,0-.88-.15-1.25-.44-.86-.69-.99-1.95-.3-2.81l1.26-1.56c.7-.86,1.95-.99,2.81-.3.86.69.99,1.95.3,2.81l-1.26,1.56c-.4.49-.97.74-1.56.74Zm194.21-1.18c-.23,0-.45-.04-.68-.12l-1.88-.68c-1.04-.37-1.58-1.52-1.2-2.56.37-1.04,1.52-1.58,2.56-1.2l1.88.68c1.04.37,1.58,1.52,1.2,2.56-.29.81-1.06,1.32-1.88,1.32Zm-11.29-4.07c-.23,0-.46-.04-.68-.12l-1.88-.68c-1.04-.38-1.58-1.52-1.2-2.56.38-1.04,1.52-1.58,2.56-1.2l1.88.68c1.04.38,1.58,1.52,1.2,2.56-.29.81-1.06,1.32-1.88,1.32Zm-11.29-4.07c-.23,0-.45-.04-.68-.12l-1.88-.68c-1.04-.37-1.58-1.52-1.2-2.56.38-1.04,1.52-1.58,2.56-1.2l1.88.68c1.04.37,1.58,1.52,1.2,2.56-.29.82-1.06,1.32-1.88,1.32Zm-164.09-.02c-.44,0-.89-.15-1.26-.44-.86-.69-.99-1.95-.3-2.81l1.26-1.56c.69-.86,1.95-.99,2.81-.3.86.69.99,1.95.3,2.81l-1.26,1.56c-.39.49-.97.74-1.56.74Zm152.81-4.05c-.23,0-.45-.04-.68-.12l-1.88-.68c-1.04-.37-1.58-1.52-1.2-2.56.38-1.04,1.52-1.58,2.56-1.2l1.88.68c1.04.37,1.58,1.52,1.2,2.56-.29.81-1.06,1.32-1.88,1.32Zm-11.29-4.07c-.23,0-.45-.04-.68-.12l-1.88-.68c-1.04-.37-1.58-1.52-1.2-2.56s1.52-1.58,2.56-1.2l1.88.68c1.04.37,1.58,1.52,1.2,2.56-.29.81-1.06,1.32-1.88,1.32Zm-133.98-1.21c-.44,0-.89-.15-1.26-.44-.86-.69-.99-1.95-.3-2.81l1.26-1.56c.69-.86,1.96-.99,2.81-.3.86.69.99,1.95.3,2.81l-1.26,1.56c-.39.49-.97.74-1.56.74Zm122.69-2.86c-.23,0-.46-.04-.68-.12l-1.88-.68c-1.04-.38-1.58-1.52-1.2-2.56.37-1.04,1.52-1.58,2.56-1.2l1.88.68c1.04.38,1.58,1.52,1.2,2.56-.29.81-1.06,1.32-1.88,1.32Zm-11.29-4.07c-.23,0-.45-.04-.68-.12l-1.88-.68c-1.04-.37-1.58-1.52-1.2-2.56.38-1.04,1.52-1.58,2.56-1.2l1.88.68c1.04.37,1.58,1.52,1.2,2.56-.29.81-1.06,1.32-1.88,1.32Zm-103.86-2.4c-.44,0-.88-.15-1.25-.44-.86-.69-.99-1.95-.3-2.81l1.26-1.56c.7-.86,1.95-.99,2.81-.3.86.69.99,1.95.3,2.81l-1.26,1.56c-.4.49-.97.74-1.56.74Zm92.57-1.67c-.23,0-.45-.04-.68-.12l-1.88-.68c-1.04-.37-1.58-1.52-1.2-2.56.38-1.04,1.52-1.58,2.56-1.2l1.88.68c1.04.37,1.58,1.52,1.2,2.56-.29.81-1.06,1.32-1.88,1.32Zm-11.29-4.07c-.23,0-.45-.04-.68-.12l-1.88-.68c-1.04-.37-1.58-1.52-1.2-2.56.38-1.04,1.52-1.58,2.56-1.2l1.88.68c1.04.37,1.58,1.52,1.2,2.56-.29.81-1.06,1.32-1.88,1.32Zm-73.75-3.6c-.44,0-.89-.15-1.26-.44-.86-.69-.99-1.95-.3-2.81l1.26-1.56c.69-.86,1.96-.99,2.81-.3.86.69.99,1.95.3,2.81l-1.26,1.56c-.39.49-.97.74-1.56.74Zm62.46-.47c-.23,0-.45-.04-.68-.12l-1.88-.68c-1.04-.37-1.58-1.52-1.2-2.56.38-1.04,1.52-1.58,2.56-1.2l1.88.68c1.04.37,1.58,1.52,1.2,2.56-.29.81-1.06,1.32-1.88,1.32Zm-11.29-4.07c-.23,0-.46-.04-.68-.12l-1.88-.68c-1.04-.38-1.58-1.52-1.2-2.56.38-1.04,1.52-1.58,2.56-1.2l1.88.68c1.04.38,1.58,1.52,1.2,2.56-.29.81-1.06,1.32-1.88,1.32Zm-11.29-4.07c-.23,0-.45-.04-.68-.12l-1.88-.68c-1.04-.37-1.58-1.52-1.2-2.56.38-1.04,1.52-1.58,2.56-1.2l1.88.68c1.04.37,1.58,1.52,1.2,2.56-.29.81-1.06,1.32-1.88,1.32Zm-32.34-.72c-.44,0-.88-.15-1.25-.44-.86-.69-.99-1.95-.3-2.81l1.26-1.56c.69-.86,1.95-.99,2.81-.3.86.69.99,1.95.3,2.81l-1.26,1.56c-.4.49-.97.74-1.56.74Zm21.06-3.35c-.23,0-.45-.04-.68-.12l-1.88-.68c-1.04-.37-1.58-1.52-1.2-2.56.38-1.04,1.52-1.58,2.56-1.2l1.88.68c1.04.37,1.58,1.52,1.2,2.56-.29.81-1.06,1.32-1.88,1.32Zm-11.29-4.07c-.23,0-.45-.04-.68-.12l-1.88-.68c-1.04-.37-1.58-1.52-1.2-2.56.38-1.04,1.52-1.58,2.56-1.2l1.88.68c1.04.37,1.58,1.52,1.2,2.56-.29.81-1.06,1.32-1.88,1.32Z"/><path class="cls-8_network-1-40" d="m313.21,345.13c-.15,0-.31-.02-.47-.06l-1.95-.46c-1.07-.26-1.74-1.34-1.48-2.41.26-1.07,1.34-1.73,2.41-1.48l1.95.46c1.08.26,1.74,1.34,1.48,2.41-.22.92-1.04,1.54-1.94,1.54Zm-11.67-2.79c-.15,0-.31-.02-.47-.06l-1.95-.46c-1.07-.26-1.74-1.34-1.48-2.41s1.34-1.73,2.41-1.48l1.95.46c1.07.26,1.74,1.34,1.48,2.41-.22.92-1.04,1.54-1.94,1.54Zm-11.67-2.79c-.15,0-.31-.02-.47-.06l-1.95-.46c-1.07-.26-1.74-1.34-1.48-2.41.26-1.07,1.34-1.73,2.41-1.48l1.95.46c1.07.26,1.74,1.34,1.48,2.41-.22.92-1.04,1.54-1.94,1.54Zm-11.67-2.79c-.15,0-.31-.02-.47-.06l-1.95-.46c-1.07-.26-1.74-1.34-1.48-2.41.26-1.07,1.34-1.74,2.41-1.48l1.95.46c1.07.26,1.74,1.34,1.48,2.41-.22.92-1.04,1.54-1.94,1.54Zm38.89-.34c-.23,0-.47-.04-.71-.13-1.03-.39-1.56-1.54-1.17-2.58l.71-1.87c.39-1.03,1.54-1.56,2.58-1.17,1.03.39,1.56,1.54,1.17,2.58l-.71,1.87c-.3.8-1.06,1.3-1.87,1.3Zm-50.56-2.45c-.15,0-.31-.02-.47-.06l-1.95-.46c-1.07-.26-1.74-1.34-1.48-2.41.26-1.07,1.34-1.73,2.41-1.48l1.95.46c1.07.26,1.74,1.34,1.48,2.41-.22.92-1.04,1.54-1.94,1.54Zm-11.67-2.79c-.15,0-.31-.02-.47-.06l-1.95-.46c-1.07-.26-1.74-1.34-1.48-2.41.26-1.07,1.34-1.74,2.41-1.48l1.95.46c1.07.26,1.74,1.34,1.48,2.41-.22.92-1.04,1.54-1.94,1.54Zm-11.67-2.79c-.15,0-.31-.02-.47-.06l-1.95-.46c-1.07-.26-1.74-1.34-1.48-2.41.26-1.07,1.34-1.73,2.41-1.48l1.95.46c1.07.26,1.74,1.34,1.48,2.41-.22.92-1.04,1.54-1.94,1.54Zm-11.67-2.79c-.15,0-.31-.02-.47-.06l-1.95-.46c-1.07-.26-1.74-1.34-1.48-2.41.26-1.08,1.35-1.73,2.41-1.48l1.95.46c1.08.26,1.74,1.34,1.48,2.41-.22.92-1.04,1.54-1.94,1.54Zm89.8-.42c-.23,0-.47-.04-.71-.13-1.03-.39-1.56-1.54-1.17-2.58l.71-1.87c.39-1.03,1.54-1.56,2.58-1.17,1.03.39,1.56,1.54,1.17,2.58l-.71,1.87c-.3.8-1.06,1.3-1.87,1.3Zm-101.47-2.37c-.15,0-.31-.02-.47-.06l-1.95-.46c-1.07-.26-1.74-1.34-1.48-2.41.26-1.07,1.34-1.73,2.41-1.48l1.95.46c1.07.26,1.74,1.34,1.48,2.41-.22.92-1.04,1.54-1.94,1.54Zm-11.67-2.79c-.15,0-.31-.02-.47-.06l-1.95-.46c-1.07-.26-1.74-1.34-1.48-2.41.26-1.08,1.34-1.73,2.41-1.48l1.95.46c1.07.26,1.74,1.34,1.48,2.41-.22.92-1.04,1.54-1.94,1.54Zm-11.67-2.79c-.15,0-.31-.02-.47-.06l-1.95-.46c-1.07-.26-1.74-1.34-1.48-2.41.26-1.08,1.34-1.73,2.41-1.48l1.94.46c1.08.26,1.74,1.34,1.48,2.41-.22.92-1.04,1.54-1.94,1.54Zm-11.67-2.79c-.15,0-.31-.02-.47-.06l-1.95-.46c-1.07-.26-1.74-1.34-1.48-2.41.26-1.08,1.35-1.73,2.41-1.48l1.95.46c1.08.26,1.74,1.34,1.48,2.41-.22.92-1.04,1.54-1.94,1.54Zm140.72-.5c-.23,0-.47-.04-.71-.13-1.03-.39-1.56-1.54-1.17-2.58l.71-1.87c.39-1.03,1.54-1.56,2.58-1.17,1.03.39,1.56,1.54,1.17,2.58l-.71,1.87c-.3.8-1.06,1.3-1.87,1.3Zm-152.39-2.29c-.15,0-.31-.02-.47-.06l-1.94-.46c-1.08-.26-1.74-1.34-1.48-2.41.26-1.08,1.34-1.73,2.41-1.48l1.95.46c1.07.26,1.74,1.34,1.48,2.41-.22.92-1.04,1.54-1.94,1.54Zm-11.67-2.79c-.15,0-.31-.02-.47-.06l-1.95-.46c-1.07-.26-1.74-1.34-1.48-2.41.26-1.07,1.34-1.73,2.41-1.48l1.95.46c1.07.26,1.74,1.34,1.48,2.41-.22.92-1.04,1.54-1.94,1.54Zm-11.02-3.46c-.88,0-1.68-.58-1.93-1.47l-.53-1.93c-.29-1.06.33-2.17,1.4-2.46,1.07-.29,2.17.33,2.46,1.4l.53,1.93c.29,1.06-.33,2.17-1.4,2.46-.18.05-.36.07-.53.07Zm179.31-2.7c-.23,0-.47-.04-.71-.13-1.03-.39-1.56-1.54-1.17-2.58l.71-1.87c.39-1.03,1.54-1.56,2.58-1.17,1.03.39,1.56,1.54,1.17,2.58l-.71,1.87c-.3.8-1.06,1.3-1.87,1.3Zm-182.5-8.87c-.88,0-1.68-.58-1.93-1.47l-.53-1.93c-.29-1.06.33-2.17,1.4-2.46,1.07-.29,2.17.33,2.46,1.4l.53,1.93c.29,1.06-.33,2.17-1.4,2.46-.18.05-.36.07-.53.07Zm186.73-2.36c-.23,0-.47-.04-.7-.13-1.03-.39-1.56-1.54-1.17-2.58l.7-1.87c.39-1.03,1.54-1.56,2.58-1.17,1.03.39,1.56,1.54,1.17,2.58l-.7,1.87c-.3.8-1.06,1.3-1.87,1.3Zm-189.91-9.21c-.88,0-1.68-.58-1.93-1.47l-.53-1.93c-.29-1.06.33-2.17,1.4-2.46,1.07-.29,2.17.33,2.46,1.4l.53,1.93c.29,1.06-.33,2.17-1.4,2.46-.18.05-.36.07-.53.07Zm194.14-2.02c-.23,0-.47-.04-.7-.13-1.03-.39-1.56-1.54-1.17-2.58l.7-1.87c.39-1.03,1.54-1.55,2.58-1.17,1.03.39,1.56,1.54,1.17,2.58l-.7,1.87c-.3.8-1.06,1.3-1.87,1.3Zm-197.32-9.55c-.88,0-1.68-.58-1.93-1.47l-.53-1.93c-.29-1.06.33-2.17,1.4-2.46,1.07-.29,2.17.33,2.46,1.4l.53,1.93c.29,1.06-.33,2.17-1.4,2.46-.18.05-.36.07-.53.07Zm201.55-1.68c-.23,0-.47-.04-.71-.13-1.03-.39-1.56-1.54-1.17-2.58l.71-1.87c.39-1.03,1.54-1.56,2.58-1.17,1.03.39,1.56,1.54,1.17,2.58l-.71,1.87c-.3.8-1.06,1.3-1.87,1.3Zm-204.74-9.89c-.88,0-1.68-.58-1.93-1.47l-.53-1.93c-.29-1.06.33-2.17,1.4-2.46,1.07-.29,2.17.33,2.46,1.4l.53,1.93c.29,1.06-.33,2.17-1.4,2.46-.18.05-.36.07-.53.07Zm208.97-1.34c-.23,0-.47-.04-.71-.13-1.03-.39-1.56-1.54-1.17-2.58l.71-1.87c.39-1.03,1.54-1.56,2.58-1.17,1.03.39,1.56,1.54,1.17,2.58l-.71,1.87c-.3.8-1.06,1.3-1.87,1.3Zm-212.15-10.23c-.88,0-1.68-.58-1.93-1.47l-.53-1.93c-.29-1.06.33-2.17,1.4-2.46,1.07-.29,2.17.33,2.46,1.4l.53,1.93c.29,1.06-.33,2.17-1.4,2.46-.18.05-.36.07-.53.07Zm216.38-1c-.23,0-.47-.04-.71-.13-1.03-.39-1.56-1.54-1.17-2.58l.71-1.87c.39-1.03,1.54-1.56,2.58-1.17,1.03.39,1.56,1.54,1.17,2.58l-.71,1.87c-.3.8-1.06,1.3-1.87,1.3Zm-219.56-10.57c-.88,0-1.68-.58-1.93-1.47l-.53-1.93c-.29-1.06.33-2.17,1.4-2.46,1.07-.29,2.17.33,2.46,1.4l.53,1.93c.29,1.06-.33,2.17-1.4,2.46-.18.05-.36.07-.53.07Zm223.79-.66c-.23,0-.47-.04-.71-.13-1.03-.39-1.56-1.54-1.17-2.58l.71-1.87c.39-1.03,1.54-1.56,2.58-1.17,1.03.39,1.56,1.54,1.17,2.58l-.71,1.87c-.3.8-1.06,1.3-1.87,1.3Zm-226.98-10.91c-.88,0-1.68-.58-1.93-1.47l-.53-1.93c-.29-1.06.33-2.17,1.4-2.46,1.07-.29,2.17.33,2.46,1.4l.53,1.93c.29,1.06-.33,2.17-1.4,2.46-.18.05-.36.07-.53.07Zm231.21-.32c-.23,0-.47-.04-.71-.13-1.03-.39-1.56-1.54-1.17-2.58l.71-1.87c.39-1.03,1.54-1.56,2.58-1.17,1.03.39,1.56,1.54,1.17,2.58l-.71,1.87c-.3.8-1.06,1.3-1.87,1.3Zm4.23-11.23c-.23,0-.47-.04-.7-.13-1.03-.39-1.56-1.54-1.17-2.58l.7-1.87c.39-1.03,1.54-1.56,2.58-1.17,1.03.39,1.56,1.54,1.17,2.58l-.7,1.87c-.3.8-1.06,1.3-1.87,1.3Zm-238.62-.02c-.88,0-1.68-.58-1.93-1.47l-.53-1.93c-.29-1.06.33-2.17,1.4-2.46,1.07-.29,2.17.33,2.46,1.4l.53,1.93c.29,1.06-.33,2.17-1.4,2.46-.18.05-.36.07-.53.07Zm242.85-11.21c-.23,0-.47-.04-.7-.13-1.03-.39-1.56-1.54-1.17-2.58l.7-1.87c.39-1.03,1.54-1.55,2.58-1.17,1.03.39,1.56,1.54,1.17,2.58l-.7,1.87c-.3.8-1.06,1.3-1.87,1.3Zm-246.03-.36c-.88,0-1.68-.58-1.93-1.47l-.53-1.93c-.29-1.06.33-2.17,1.4-2.46,1.06-.29,2.17.33,2.46,1.4l.53,1.93c.29,1.06-.33,2.17-1.4,2.46-.18.05-.36.07-.53.07Zm250.26-10.87c-.23,0-.47-.04-.71-.13-1.03-.39-1.56-1.54-1.17-2.58l.71-1.87c.39-1.03,1.54-1.56,2.58-1.17,1.03.39,1.56,1.54,1.17,2.58l-.71,1.87c-.3.8-1.06,1.3-1.87,1.3Zm4.23-11.23c-.23,0-.47-.04-.71-.13-1.03-.39-1.56-1.54-1.17-2.58l.71-1.87c.39-1.03,1.54-1.56,2.58-1.17,1.03.39,1.56,1.54,1.17,2.58l-.71,1.87c-.3.8-1.06,1.3-1.87,1.3Zm4.23-11.23c-.23,0-.47-.04-.71-.13-1.03-.39-1.56-1.54-1.17-2.58l.71-1.87c.39-1.03,1.54-1.56,2.58-1.17,1.03.39,1.56,1.54,1.17,2.58l-.71,1.87c-.3.8-1.06,1.3-1.87,1.3Z"/><path class="cls-8_network-1-40" d="m313.33,344.38c-.74,0-1.46-.42-1.8-1.13l-.87-1.8c-.48-1-.06-2.19.93-2.67.99-.48,2.19-.06,2.67.94l.87,1.8c.48,1,.06,2.19-.93,2.67-.28.13-.58.2-.87.2Zm-5.2-10.81c-.74,0-1.46-.42-1.8-1.13l-.87-1.8c-.48-1-.06-2.19.94-2.67.99-.48,2.19-.06,2.67.94l.87,1.8c.48,1,.06,2.19-.94,2.67-.28.13-.58.2-.87.2Zm-5.2-10.81c-.74,0-1.46-.42-1.8-1.13l-.87-1.8c-.48-1-.06-2.19.93-2.67.99-.48,2.19-.06,2.67.94l.87,1.8c.48,1,.06,2.19-.93,2.67-.28.13-.58.2-.87.2Zm-5.2-10.81c-.74,0-1.46-.42-1.8-1.13l-.87-1.8c-.48-1-.06-2.19.93-2.67,1-.48,2.19-.06,2.67.94l.87,1.8c.48,1,.06,2.19-.93,2.67-.28.13-.58.2-.87.2Zm-147.03-5.62c-.51,0-1.01-.19-1.4-.57-.79-.77-.8-2.04-.03-2.83l1.4-1.43c.77-.79,2.04-.8,2.83-.03.79.77.8,2.04.03,2.83l-1.4,1.43c-.39.4-.91.6-1.43.6Zm141.83-5.19c-.74,0-1.46-.42-1.8-1.13l-.87-1.8c-.48-1-.06-2.19.94-2.67,1-.48,2.19-.06,2.67.94l.87,1.8c.48,1,.06,2.19-.94,2.67-.28.13-.57.2-.87.2Zm-133.42-3.37c-.51,0-1.01-.19-1.4-.57-.79-.77-.8-2.04-.03-2.83l1.4-1.43c.77-.79,2.04-.8,2.83-.03.79.77.8,2.04.03,2.83l-1.4,1.43c-.39.4-.91.6-1.43.6Zm128.22-7.44c-.74,0-1.46-.42-1.8-1.13l-.87-1.8c-.48-1-.06-2.19.93-2.67.99-.48,2.19-.06,2.67.94l.87,1.8c.48,1,.06,2.19-.93,2.67-.28.13-.58.2-.87.2Zm-119.81-1.12c-.51,0-1.01-.19-1.4-.57-.79-.77-.8-2.04-.03-2.83l1.4-1.43c.77-.79,2.04-.8,2.83-.03.79.77.8,2.04.03,2.83l-1.4,1.43c-.39.4-.91.6-1.43.6Zm8.41-8.56c-.51,0-1.01-.19-1.4-.57-.79-.77-.8-2.04-.03-2.83l1.4-1.43c.77-.79,2.04-.8,2.83-.03.79.77.8,2.04.03,2.83l-1.4,1.43c-.39.4-.91.6-1.43.6Zm106.21-1.13c-.74,0-1.46-.42-1.8-1.13l-.87-1.8c-.48-1-.06-2.19.93-2.67,1-.48,2.19-.06,2.67.94l.87,1.8c.48,1,.06,2.19-.93,2.67-.28.13-.58.2-.87.2Zm-97.8-7.44c-.51,0-1.01-.19-1.4-.57-.79-.77-.8-2.04-.03-2.83l1.4-1.43c.77-.79,2.04-.8,2.83-.03.79.77.8,2.04.03,2.83l-1.4,1.43c-.39.4-.91.6-1.43.6Zm92.6-3.38c-.74,0-1.46-.42-1.8-1.13l-.87-1.8c-.48-1-.06-2.19.93-2.67,1-.48,2.19-.06,2.67.94l.87,1.8c.48,1,.06,2.19-.93,2.67-.28.13-.58.2-.87.2Zm-84.19-5.19c-.51,0-1.01-.19-1.4-.57-.79-.77-.8-2.04-.03-2.83l1.4-1.43c.77-.79,2.04-.8,2.83-.03.79.77.8,2.04.03,2.83l-1.4,1.43c-.39.4-.91.6-1.43.6Zm78.99-5.63c-.74,0-1.46-.42-1.8-1.13l-.87-1.8c-.48-1-.06-2.19.93-2.67,1-.48,2.19-.06,2.67.94l.87,1.8c.48,1,.06,2.19-.93,2.67-.28.13-.58.2-.87.2Zm-70.58-2.94c-.51,0-1.01-.19-1.4-.57-.79-.77-.8-2.04-.03-2.83l1.4-1.43c.77-.79,2.04-.8,2.83-.03.79.77.8,2.04.03,2.83l-1.4,1.43c-.39.4-.91.6-1.43.6Zm65.38-7.88c-.74,0-1.46-.42-1.8-1.13l-.87-1.8c-.48-1-.06-2.19.94-2.67.99-.48,2.19-.06,2.67.94l.87,1.8c.48,1,.06,2.19-.94,2.67-.28.13-.57.2-.87.2Zm-56.97-.69c-.51,0-1.01-.19-1.4-.57-.79-.77-.8-2.04-.03-2.83l1.4-1.43c.77-.79,2.04-.8,2.83-.03s.8,2.04.03,2.83l-1.4,1.43c-.39.4-.91.6-1.43.6Zm8.41-8.56c-.51,0-1.01-.19-1.4-.57-.79-.77-.8-2.04-.03-2.83l1.4-1.43c.77-.79,2.04-.8,2.83-.03.79.77.8,2.04.03,2.83l-1.4,1.43c-.39.4-.91.6-1.43.6Zm43.37-1.57c-.74,0-1.46-.42-1.8-1.13l-.87-1.8c-.48-1-.06-2.19.93-2.67,1-.48,2.19-.06,2.67.94l.87,1.8c.48,1,.06,2.19-.93,2.67-.28.13-.58.2-.87.2Zm-34.96-7c-.51,0-1.01-.19-1.4-.57-.79-.77-.8-2.04-.03-2.83l1.4-1.43c.77-.79,2.04-.8,2.83-.03.79.77.8,2.04.03,2.83l-1.4,1.43c-.39.4-.91.6-1.43.6Zm29.76-3.82c-.74,0-1.46-.42-1.8-1.13l-.87-1.8c-.48-1-.06-2.19.93-2.67,1-.48,2.19-.06,2.67.94l.87,1.8c.48,1,.06,2.19-.93,2.67-.28.13-.58.2-.87.2Zm-21.35-4.75c-.51,0-1.01-.19-1.4-.57-.79-.77-.8-2.04-.03-2.83l1.4-1.43c.77-.79,2.04-.8,2.83-.03.79.77.8,2.04.03,2.83l-1.4,1.43c-.39.4-.91.6-1.43.6Zm16.15-6.07c-.74,0-1.46-.42-1.8-1.13l-.87-1.8c-.48-1-.06-2.19.93-2.67.99-.48,2.19-.06,2.67.94l.87,1.8c.48,1,.06,2.19-.93,2.67-.28.13-.58.2-.87.2Zm-7.74-2.5c-.51,0-1.01-.19-1.4-.57-.79-.77-.8-2.04-.03-2.83l1.4-1.43c.77-.79,2.04-.8,2.83-.03.79.77.8,2.04.03,2.83l-1.4,1.43c-.39.4-.91.6-1.43.6Z"/><circle class="cls-11_network-1-40 targetColor" cx="381.88" cy="162.32" r="19.55" style="fill: rgb(89, 195, 5);"/><circle class="cls-11_network-1-40 targetColor" cx="150.7" cy="304.32" r="19.55" style="fill: rgb(89, 195, 5);"/><path class="cls-8_network-1-40" d="m247.56,207.65c-.78,0-1.52-.46-1.84-1.22l-.78-1.84c-.43-1.02.05-2.19,1.07-2.62,1.02-.43,2.19.05,2.62,1.07l.78,1.84c.43,1.02-.05,2.19-1.07,2.62-.25.11-.52.16-.78.16Zm-4.66-11.06c-.78,0-1.52-.46-1.84-1.22l-.78-1.84c-.43-1.02.05-2.19,1.07-2.62,1.02-.43,2.19.05,2.62,1.07l.78,1.84c.43,1.02-.05,2.19-1.07,2.62-.25.11-.52.16-.78.16Zm-4.66-11.06c-.78,0-1.52-.46-1.84-1.22l-.78-1.84c-.43-1.02.05-2.19,1.07-2.62,1.02-.43,2.19.05,2.62,1.07l.78,1.84c.43,1.02-.05,2.19-1.07,2.62-.25.11-.52.16-.78.16Zm-4.66-11.06c-.78,0-1.52-.46-1.84-1.22l-.78-1.84c-.43-1.02.05-2.19,1.07-2.62,1.02-.43,2.19.05,2.62,1.07l.78,1.84c.43,1.02-.05,2.19-1.07,2.62-.25.11-.52.16-.78.16Zm-4.66-11.06c-.78,0-1.52-.46-1.84-1.22l-.78-1.84c-.43-1.02.05-2.19,1.07-2.62,1.02-.43,2.19.05,2.62,1.07l.78,1.84c.43,1.02-.05,2.19-1.07,2.62-.25.11-.52.16-.78.16Zm-4.66-11.06c-.78,0-1.52-.46-1.84-1.22l-.78-1.84c-.43-1.02.05-2.19,1.07-2.62,1.02-.43,2.19.05,2.62,1.07l.78,1.84c.43,1.02-.05,2.19-1.07,2.62-.25.11-.52.16-.78.16Zm-4.66-11.06c-.78,0-1.52-.46-1.84-1.22l-.78-1.84c-.43-1.02.05-2.19,1.07-2.62,1.02-.43,2.19.05,2.62,1.07l.78,1.84c.43,1.02-.05,2.19-1.07,2.62-.25.11-.52.16-.78.16Zm-4.66-11.06c-.78,0-1.52-.46-1.84-1.22l-.78-1.84c-.43-1.02.05-2.19,1.07-2.62,1.02-.43,2.19.05,2.62,1.07l.78,1.84c.43,1.02-.05,2.19-1.07,2.62-.25.11-.52.16-.78.16Zm-4.66-11.06c-.78,0-1.52-.46-1.84-1.22l-.78-1.84c-.43-1.02.05-2.19,1.07-2.62,1.02-.43,2.19.05,2.62,1.07l.78,1.84c.43,1.02-.05,2.19-1.07,2.62-.25.11-.52.16-.78.16Zm-4.66-11.06c-.78,0-1.52-.46-1.84-1.22l-.78-1.84c-.43-1.02.05-2.19,1.07-2.62,1.01-.43,2.19.05,2.62,1.07l.78,1.84c.43,1.02-.05,2.19-1.07,2.62-.25.11-.52.16-.78.16Z"/><circle class="cls-11_network-1-40 targetColor" cx="313.75" cy="343.26" r="16" style="fill: rgb(89, 195, 5);"/><circle class="cls-11_network-1-40 targetColor" cx="121.26" cy="197.38" r="16" style="fill: rgb(89, 195, 5);"/><circle class="cls-10_network-1-40" cx="247.56" cy="205.65" r="22.54"/><circle class="cls-11_network-1-40 targetColor" cx="201.96" cy="97.43" r="19.55" style="fill: rgb(89, 195, 5);"/></g><g id="plant_network-1-40"><g class="cls-3_network-1-40"><path class="cls-11_network-1-40 targetColor" d="m119.42,407.09s-21.46-5.86-26.13-25.83c0,0,33.25-6.72,34.2,27.6l-8.07-1.77Z" style="fill: rgb(89, 195, 5);"/></g><g class="cls-5_network-1-40"><path class="cls-11_network-1-40 targetColor" d="m122.05,404.96s-14.99-23.7-1.8-45.87c0,0,25.28,16.06,14.05,45.92l-12.25-.05Z" style="fill: rgb(89, 195, 5);"/></g><path class="cls-11_network-1-40 targetColor" d="m125.91,404.98s7.92-25.03,31.87-29.77c0,0,4.49,16.25-15.51,29.84l-16.36-.07Z" style="fill: rgb(89, 195, 5);"/><polygon class="cls-8_network-1-40" points="110.35 404.41 114.7 434.18 142.1 434.29 146.14 404.56 110.35 404.41"/></g></svg>