<svg id="_0018_search_engine" xmlns="http://www.w3.org/2000/svg" viewBox="0 0 500 500" data-imageid="search-engine-44" imageName="Search Engine" class="illustrations_image" style="width: 142px;"><defs><style>.cls-1_search-engine-44,.cls-2_search-engine-44{fill:#fff;}.cls-3_search-engine-44{fill:#a5a5a5;}.cls-2_search-engine-44{opacity:.67;}.cls-4_search-engine-44{fill:#e6e6e6;}.cls-5_search-engine-44{fill:#24285b;}.cls-6_search-engine-44{fill:#000001;opacity:.08;}.cls-7_search-engine-44{fill:#ffd200;}.cls-8_search-engine-44{fill:#68e1fd;}</style></defs><g id="screen_search-engine-44"><rect class="cls-4_search-engine-44" x="59.51" y="100.75" width="385.11" height="269.71" rx="19.3" ry="19.3"/><path class="cls-5_search-engine-44" d="m81.39,77.74h341.33c12.08,0,21.89,9.81,21.89,21.89v41.83H59.51v-41.83c0-12.08,9.81-21.89,21.89-21.89Z"/><circle class="cls-1_search-engine-44" cx="97.46" cy="109.6" r="11.91"/><circle class="cls-8_search-engine-44 targetColor" cx="132.91" cy="109.6" r="11.91" style="fill: rgb(89, 195, 5);"/><circle class="cls-7_search-engine-44" cx="166.31" cy="109.6" r="11.91"/><rect class="cls-1_search-engine-44" x="109.38" y="222.26" width="276.94" height="45.61" rx="12" ry="12"/><rect class="cls-5_search-engine-44" x="317.89" y="222.26" width="68.43" height="45.61" rx="12" ry="12"/><rect class="cls-1_search-engine-44" x="317.89" y="100.75" width="103.16" height="13.93" rx="6.96" ry="6.96"/><path class="cls-1_search-engine-44" d="m354.83,251.49c-2.51,0-5.02-.96-6.93-2.87-3.82-3.82-3.82-10.04,0-13.85,3.82-3.82,10.04-3.82,13.85,0,3.82,3.82,3.82,10.03,0,13.85h0c-1.91,1.91-4.42,2.87-6.93,2.87Zm0-16.59c-1.81,0-3.52.71-4.81,1.99-2.65,2.65-2.65,6.96,0,9.61,1.28,1.28,2.99,1.99,4.81,1.99s3.52-.71,4.81-1.99c2.65-2.65,2.65-6.96,0-9.61-1.28-1.28-2.99-1.99-4.81-1.99Z"/><rect class="cls-1_search-engine-44" x="339.44" y="250.02" width="11.17" height="3" transform="translate(-76.79 317.63) rotate(-45)"/></g><path id="sd_search-engine-44" class="cls-6_search-engine-44" d="m209.63,370.46l17.02-29.69s38.81,11.46,73.19-10.79c34.38-22.25,43.61-53.77,29.81-102.35s-127.17,60.35-127.17,60.35l-6.32,37.79-6.74,44.69h20.21Z"/><g id="glasses_search-engine-44"><circle class="cls-1_search-engine-44" cx="247.35" cy="243.4" r="66.23"/><rect class="cls-5_search-engine-44" x="186.03" y="294.63" width="20.26" height="57.25" rx="9.19" ry="9.19" transform="translate(203.81 -54.79) rotate(32.41)"/><path class="cls-8_search-engine-44 targetColor" d="m292.27,172.65c-39.07-24.81-90.86-13.24-115.67,25.84-24.81,39.07-13.24,90.86,25.84,115.67,39.07,24.81,90.86,13.24,115.67-25.84,24.81-39.08,13.24-90.86-25.84-115.67Zm-76.67,120.77c-27.62-17.54-35.8-54.15-18.26-81.77,17.54-27.62,54.15-35.8,81.77-18.26,27.62,17.54,35.8,54.15,18.26,81.77-17.54,27.62-54.15,35.8-81.77,18.26Z" style="fill: rgb(89, 195, 5);"/><path class="cls-5_search-engine-44" d="m213.11,251.31c-.75,0-1.52-.05-2.3-.16-.79-.11-1.52-.27-2.21-.48-.69-.21-1.31-.48-1.86-.8-.41-.21-.7-.5-.86-.84-.16-.35-.21-.7-.16-1.06s.18-.67.39-.95c.21-.28.49-.46.84-.54.36-.08.74-.01,1.15.2.75.39,1.56.69,2.43.88.87.2,1.73.29,2.59.29,1.29,0,2.21-.2,2.79-.59.57-.39.86-.89.86-1.5,0-.54-.2-.95-.6-1.25-.4-.29-1.09-.54-2.08-.74l-3.03-.64c-1.72-.38-2.98-1-3.81-1.86-.82-.87-1.23-2.01-1.23-3.42,0-.89.18-1.71.55-2.45s.88-1.38,1.55-1.9c.67-.53,1.48-.93,2.42-1.21.95-.28,1.99-.42,3.14-.42.98,0,1.96.12,2.92.35s1.82.58,2.57,1.04c.34.21.58.48.71.8.13.32.18.66.13,1.01-.04.35-.18.64-.4.88s-.5.4-.84.47c-.34.07-.75,0-1.23-.24-.57-.3-1.19-.52-1.86-.66s-1.35-.2-2.05-.2c-.75,0-1.39.1-1.92.29-.53.2-.92.47-1.19.82-.27.35-.4.76-.4,1.25s.18.91.55,1.23c.37.32,1.01.58,1.94.78l3,.64c1.77.38,3.09.98,3.95,1.81s1.3,1.93,1.3,3.28c0,.89-.19,1.7-.56,2.42s-.9,1.34-1.57,1.85c-.67.51-1.47.9-2.41,1.18-.94.28-2.01.42-3.2.42Z"/><path class="cls-5_search-engine-44" d="m230.02,251.31c-1.55,0-2.89-.28-4.01-.83-1.12-.55-1.97-1.34-2.57-2.37s-.9-2.25-.9-3.66.29-2.54.87-3.55c.58-1.01,1.38-1.81,2.4-2.4,1.02-.59,2.17-.88,3.46-.88.98,0,1.85.16,2.61.47.76.31,1.42.76,1.97,1.34.55.58.97,1.29,1.26,2.12s.43,1.75.43,2.77c0,.34-.11.59-.32.76-.21.17-.53.25-.94.25h-8.39v-2.09h6.73l-.43.38c0-.73-.11-1.34-.32-1.84-.21-.49-.52-.87-.92-1.13-.4-.26-.9-.39-1.49-.39-.66,0-1.22.15-1.69.46s-.82.75-1.07,1.33c-.25.58-.38,1.27-.38,2.08v.21c0,1.36.31,2.36.94,3,.62.64,1.57.96,2.84.96.43,0,.92-.05,1.46-.16.54-.11,1.07-.28,1.57-.51.43-.2.79-.26,1.1-.19.3.07.55.22.74.44s.29.49.31.79c.02.3-.05.6-.2.9-.15.29-.41.54-.76.74-.63.36-1.32.61-2.09.76-.77.15-1.5.23-2.2.23Z"/><path class="cls-5_search-engine-44" d="m242.37,251.31c-1,0-1.88-.18-2.63-.55s-1.34-.87-1.77-1.5c-.43-.63-.64-1.36-.64-2.18,0-.96.25-1.72.75-2.28.5-.55,1.31-.96,2.42-1.21,1.12-.25,2.6-.38,4.46-.38h1.42v2.09h-1.39c-.93,0-1.67.05-2.21.15-.55.1-.94.27-1.19.51-.25.24-.38.56-.38.95,0,.48.17.88.52,1.21.35.32.84.48,1.49.48.52,0,.98-.12,1.39-.35.41-.23.73-.55.96-.96.23-.41.35-.9.35-1.47v-3.05c0-.79-.18-1.34-.54-1.68-.36-.33-.97-.5-1.85-.5-.46,0-.98.05-1.54.16-.56.11-1.18.3-1.86.59-.41.16-.76.2-1.06.11-.29-.09-.52-.26-.68-.52s-.24-.55-.24-.87.09-.62.27-.91.48-.5.91-.64c.82-.32,1.6-.55,2.35-.68.74-.13,1.42-.2,2.02-.2,1.38,0,2.51.2,3.42.6.9.4,1.57,1.02,2.01,1.86.44.84.66,1.9.66,3.19v5.95c0,.66-.17,1.17-.5,1.51-.33.35-.79.52-1.38.52s-1.08-.17-1.41-.52c-.33-.35-.5-.85-.5-1.51v-.99l.19.19c-.11.59-.33,1.1-.68,1.53s-.79.76-1.31,1-1.14.36-1.84.36Z"/><path class="cls-5_search-engine-44" d="m254.92,251.26c-.68,0-1.2-.17-1.55-.52-.36-.35-.54-.85-.54-1.51v-9.51c0-.66.17-1.17.52-1.51.35-.35.84-.52,1.49-.52s1.11.17,1.45.52c.34.35.51.85.51,1.51v1.39h-.27c.2-1.07.67-1.9,1.41-2.49s1.7-.92,2.88-.99c.43-.04.76.08,1,.33s.38.69.42,1.3c.02.54-.1.96-.36,1.29s-.69.52-1.3.59l-.62.05c-1.02.09-1.77.38-2.26.88s-.74,1.22-.74,2.17v4.98c0,.66-.17,1.17-.51,1.51-.34.35-.85.52-1.53.52Z"/><path class="cls-5_search-engine-44" d="m270.03,251.31c-1.43,0-2.67-.28-3.72-.83-1.05-.55-1.87-1.35-2.45-2.39-.58-1.04-.87-2.26-.87-3.67,0-1.05.16-2,.48-2.84s.79-1.55,1.41-2.14c.62-.59,1.36-1.04,2.24-1.35.88-.31,1.85-.47,2.92-.47.55,0,1.15.07,1.78.2.63.13,1.25.35,1.86.66.34.2.58.44.71.72.13.29.18.58.15.9s-.15.59-.33.83-.42.4-.71.48c-.29.08-.61.03-.96-.15-.34-.18-.69-.32-1.06-.42-.37-.1-.71-.15-1.03-.15-.54,0-1.01.08-1.42.25-.41.17-.75.41-1.03.72-.28.31-.49.7-.64,1.17s-.23.99-.23,1.58c0,1.18.29,2.11.87,2.8.58.69,1.4,1.03,2.45,1.03.32,0,.66-.04,1.02-.13.36-.09.71-.23,1.07-.43.36-.18.67-.22.95-.13.28.09.51.25.7.5s.29.52.31.83-.04.61-.17.9c-.13.29-.37.51-.71.67-.59.32-1.19.55-1.81.67-.62.12-1.2.19-1.76.19Z"/><path class="cls-5_search-engine-44" d="m278.45,251.26c-.63,0-1.12-.17-1.47-.52-.36-.35-.54-.85-.54-1.51v-15.25c0-.68.18-1.19.54-1.53.36-.34.85-.51,1.47-.51.66,0,1.17.17,1.51.51.35.34.52.85.52,1.53v6.4h-.38c.39-.89,1-1.58,1.82-2.05.82-.47,1.74-.71,2.76-.71,1.07,0,1.94.2,2.61.59.67.39,1.17,1,1.51,1.82.34.82.51,1.87.51,3.14v6.06c0,.66-.17,1.17-.51,1.51-.34.35-.84.52-1.5.52-.63,0-1.12-.17-1.49-.52-.37-.35-.55-.85-.55-1.51v-5.9c0-.91-.17-1.57-.5-1.97-.33-.4-.83-.6-1.49-.6-.86,0-1.54.27-2.05.8-.51.54-.76,1.25-.76,2.14v5.52c0,1.36-.68,2.04-2.04,2.04Z"/><rect class="cls-8_search-engine-44 targetColor" x="146.61" y="323.49" width="37.05" height="101.31" rx="12" ry="12" transform="translate(226.25 -30.23) rotate(32.41)" style="fill: rgb(89, 195, 5);"/><rect class="cls-2_search-engine-44" x="146.61" y="323.49" width="37.05" height="101.31" rx="12" ry="12" transform="translate(226.25 -30.23) rotate(32.41)"/></g><g id="video_search-engine-44"><rect class="cls-7_search-engine-44" x="22.45" y="273.25" width="86.92" height="72.77" rx="12" ry="12"/><polygon class="cls-1_search-engine-44" points="52.7 292.81 52.7 325.43 82.65 309.12 52.7 292.81"/></g><g id="img_search-engine-44"><rect class="cls-7_search-engine-44" x="376.62" y="95.33" width="100.93" height="80.79" rx="12" ry="12"/><polygon class="cls-1_search-engine-44" points="398.23 157.46 413.89 125.46 431.25 148.95 445.55 130.57 463.25 157.46 398.23 157.46"/><circle class="cls-1_search-engine-44" cx="430.91" cy="119.1" r="7.15"/></g><rect id="button_search-engine-44" class="cls-3_search-engine-44" x="375.34" y="303.07" width="48.27" height="48.27" rx="24.13" ry="24.13"/></svg>