<svg version="1.1" id="Layer_1" xmlns="http://www.w3.org/2000/svg" xmlns:xlink="http://www.w3.org/1999/xlink" x="0px" y="0px" viewBox="0 0 500 500" style="width: 142px;" xml:space="preserve" data-imageid="search-engine-32" imageName="Search Engine" class="illustrations_image">
<style type="text/css">
	.st0_search-engine-32{fill:#FFFFFF;}
	.st1_search-engine-32{fill:#093F68;}
	.st2_search-engine-32{fill:#68E1FD;}
	.st3_search-engine-32{fill:#F56132;}
	.st4_search-engine-32{fill:#70CC40;}
	.st5_search-engine-32{fill:#FFBC0E;}
	.st6_search-engine-32{fill:#DFEAEF;}
</style>
<g id="screen_search-engine-32">
	<path class="st0_search-engine-32" d="M412.8,131.6v171.3c0,8.8-7.1,15.9-15.9,15.9c0,0,0,0,0,0H107.1c-8.8,0-15.9-7.1-15.9-15.9l0,0V131.6&#10;&#9;&#9;c0-8.8,7.1-15.9,15.9-15.9h289.8C405.7,115.7,412.8,122.8,412.8,131.6C412.8,131.6,412.8,131.6,412.8,131.6z"/>
	<path class="st1_search-engine-32" d="M396.9,320.4H107.1c-9.7,0-17.5-7.9-17.5-17.5V131.6c0-9.7,7.9-17.5,17.5-17.5h289.8c9.7,0,17.5,7.8,17.5,17.5&#10;&#9;&#9;v171.3C414.4,312.6,406.6,320.4,396.9,320.4z M107.1,117.3c-7.9,0-14.3,6.4-14.3,14.3v171.3c0,7.9,6.4,14.3,14.3,14.3h289.8&#10;&#9;&#9;c7.9,0,14.3-6.4,14.3-14.3V131.6c0-7.9-6.4-14.3-14.3-14.3L107.1,117.3z"/>
	<path class="st0_search-engine-32" d="M388.7,222.1v7.1c0,7.6-6.2,13.8-13.8,13.8H129.1c-7.6,0-13.8-6.2-13.8-13.8v-7.1c0-7.6,6.2-13.8,13.8-13.8&#10;&#9;&#9;h245.7C382.5,208.3,388.7,214.5,388.7,222.1C388.7,222.1,388.7,222.1,388.7,222.1z"/>
	<path class="st1_search-engine-32" d="M374.9,244.6H129.1c-8.5,0-15.4-6.9-15.4-15.4v-7.1c0-8.5,6.9-15.4,15.4-15.4h245.7c8.5,0,15.4,6.9,15.4,15.4&#10;&#9;&#9;v7.1C390.3,237.8,383.4,244.7,374.9,244.6z M129.1,209.9c-6.7,0-12.1,5.5-12.1,12.2v7.1c0,6.7,5.5,12.2,12.2,12.2h245.7&#10;&#9;&#9;c6.7,0,12.2-5.4,12.2-12.2v-7.1c0-6.7-5.5-12.2-12.2-12.2L129.1,209.9z"/>
	<path class="st2_search-engine-32 targetColor" d="M412.8,131.6v15.1H91.2v-15.1c0-8.8,7.1-15.9,15.9-15.9h289.8C405.7,115.7,412.8,122.8,412.8,131.6&#10;&#9;&#9;C412.8,131.6,412.8,131.6,412.8,131.6z" style="fill: rgb(90, 197, 24);"/>
	<path class="st1_search-engine-32" d="M412.8,148.3H91.2c-0.9,0-1.6-0.7-1.6-1.6c0,0,0,0,0,0v-15.1c0-9.7,7.9-17.5,17.5-17.5h289.8&#10;&#9;&#9;c9.7,0,17.5,7.8,17.5,17.5v15.1C414.4,147.6,413.7,148.3,412.8,148.3z M92.9,145.1h318.3v-13.5c0-7.9-6.4-14.3-14.3-14.3H107.1&#10;&#9;&#9;c-7.9,0-14.3,6.4-14.3,14.3L92.9,145.1z"/>
	<circle class="st3_search-engine-32" cx="110.9" cy="130" r="3.9"/>
	<circle class="st1_search-engine-32" cx="125.1" cy="130" r="3.9"/>
	<circle class="st1_search-engine-32" cx="139.3" cy="130" r="3.9"/>
	<path class="st4_search-engine-32" d="M388.7,222.1v7.1c0,7.6-6.2,13.8-13.8,13.8h-26.8v-34.7h26.8C382.5,208.3,388.7,214.5,388.7,222.1&#10;&#9;&#9;C388.7,222.1,388.7,222.1,388.7,222.1z"/>
	<path class="st1_search-engine-32" d="M374.9,244.6h-26.8c-0.9,0-1.6-0.7-1.6-1.6c0,0,0,0,0,0v-34.7c0-0.9,0.7-1.6,1.6-1.6h26.8&#10;&#9;&#9;c8.5,0,15.4,6.9,15.4,15.4v7.1C390.3,237.8,383.4,244.6,374.9,244.6z M349.8,241.4h25.1c6.7,0,12.2-5.4,12.2-12.2v-7.1&#10;&#9;&#9;c0-6.7-5.5-12.2-12.2-12.2h-25.1V241.4z"/>
	<path class="st1_search-engine-32" d="M364,233.1c-6,0-10.8-4.8-10.8-10.8c0-6,4.8-10.8,10.8-10.8c2.9,0,5.6,1.1,7.6,3.2l0,0c4.2,4.2,4.2,11,0,15.3&#10;&#9;&#9;C369.7,232,366.9,233.2,364,233.1z M364,214.8c-4.2,0-7.5,3.4-7.5,7.6c0,4.2,3.4,7.5,7.6,7.5c4.2,0,7.5-3.4,7.5-7.6&#10;&#9;&#9;c0-2-0.8-3.9-2.2-5.3C368,215.6,366.1,214.8,364,214.8z"/>
	<path class="st1_search-engine-32" d="M377.7,237.7c-0.4,0-0.8-0.2-1.1-0.5l-7.2-7.2c-0.7-0.6-0.7-1.6-0.1-2.3c0.6-0.7,1.6-0.7,2.3-0.1&#10;&#9;&#9;c0,0,0,0,0.1,0.1l7.2,7.2c0.6,0.6,0.6,1.7,0,2.3C378.6,237.5,378.2,237.7,377.7,237.7z"/>
</g>
<g id="search_search-engine-32">
	
		<rect x="179.6" y="293.7" transform="matrix(0.577 -0.8167 0.8167 0.577 -164.3138 289.1465)" class="st1_search-engine-32" width="34.9" height="19.1"/>
	<path class="st1_search-engine-32" d="M194.8,324.6c-0.3,0-0.7-0.1-0.9-0.3l-15.6-11c-0.3-0.2-0.6-0.6-0.7-1c-0.1-0.4,0-0.9,0.3-1.2l20.2-28.6&#10;&#9;&#9;c0.5-0.7,1.5-0.9,2.3-0.4l15.6,11c0.7,0.5,0.9,1.5,0.4,2.3l-20.2,28.5C195.8,324.3,195.3,324.6,194.8,324.6z M181.4,311.6l13,9.1&#10;&#9;&#9;l18.2-25.8l-13-9.1L181.4,311.6z"/>
	
		<rect x="195.3" y="266.3" transform="matrix(0.577 -0.8167 0.8167 0.577 -139.4409 292.5753)" class="st2_search-engine-32 targetColor" width="34.9" height="29.3" style="fill: rgb(90, 197, 24);"/>
	<path class="st1_search-engine-32" d="M214.7,305.2c-0.3,0-0.7-0.1-0.9-0.3L189.8,288c-0.7-0.5-0.9-1.5-0.4-2.3c0,0,0,0,0,0l20.1-28.5&#10;&#9;&#9;c0.5-0.7,1.5-0.9,2.3-0.4l23.9,16.9c0.7,0.5,0.9,1.5,0.4,2.3c0,0,0,0,0,0L216,304.6c-0.2,0.4-0.6,0.6-1.1,0.7&#10;&#9;&#9;C214.9,305.2,214.8,305.2,214.7,305.2z M193,286.3l21.3,15l18.2-25.8l-21.3-15L193,286.3z"/>
	<path class="st2_search-engine-32 targetColor" d="M180.9,307.2l17.6,12.5c1.7,1.2,2.1,3.6,0.9,5.4l-41.7,59c-1.2,1.7-3.6,2.1-5.4,0.9l-17.6-12.5&#10;&#9;&#9;c-1.7-1.2-2.1-3.6-0.9-5.4l41.7-59C176.8,306.4,179.2,306,180.9,307.2z" style="fill: rgb(90, 197, 24);"/>
	<path class="st1_search-engine-32" d="M154.1,386.4c-1.6,0-3.2-0.5-4.5-1.4l0,0l-13.7-9.7c-3.6-2.5-4.4-7.4-1.9-10.9c0,0,0,0,0-0.1l38.9-55.1&#10;&#9;&#9;c2.5-3.6,7.4-4.4,11-1.9c0,0,0,0,0,0l13.7,9.7c3.6,2.5,4.4,7.4,1.9,11c0,0,0,0,0,0l-38.9,55C159.1,385.1,156.7,386.3,154.1,386.4z&#10;&#9;&#9; M151.5,382.3c2.1,1.5,5,1,6.4-1.1l38.9-55.1c1.5-2.1,1-5-1.1-6.4l-13.7-9.7c-2.1-1.5-5-1-6.4,1.1l-38.9,55.1c-1.5,2.1-1,5,1.1,6.4&#10;&#9;&#9;c0,0,0,0,0,0L151.5,382.3L151.5,382.3z"/>
	<path class="st2_search-engine-32 targetColor" d="M289.6,172.1c-31.1-22-74.1-14.6-96,16.5s-14.6,74.1,16.5,96s74.1,14.6,96-16.5c0,0,0,0,0,0&#10;&#9;&#9;C328.1,237,320.7,194.1,289.6,172.1z M223.3,266c-20.7-14.7-25.7-43.4-11-64.1s43.4-25.7,64.1-11c20.7,14.7,25.7,43.4,11,64.1&#10;&#9;&#9;c0,0,0,0,0,0C272.8,275.7,244.1,280.7,223.3,266z" style="fill: rgb(90, 197, 24);"/>
	<path class="st1_search-engine-32" d="M249.7,298.9c-39-0.1-70.5-31.7-70.4-70.7s31.7-70.5,70.7-70.4c14.5,0,28.7,4.5,40.5,12.9l0,0&#10;&#9;&#9;c31.8,22.5,39.4,66.5,16.9,98.3c-10.8,15.3-27.2,25.6-45.6,28.8C257.8,298.6,253.8,298.9,249.7,298.9z M250,161.1&#10;&#9;&#9;c-37.1,0-67.2,30.1-67.3,67.2s30.1,67.2,67.2,67.3c37.1,0,67.2-30.1,67.3-67.2c0-21.9-10.6-42.4-28.5-55&#10;&#9;&#9;C277.4,165.5,263.9,161.2,250,161.1z M249.8,276c-26.3-0.1-47.6-21.4-47.5-47.7s21.4-47.6,47.7-47.5s47.6,21.4,47.5,47.7&#10;&#9;&#9;c0,9.8-3.1,19.4-8.7,27.4C279.9,268.6,265.3,276.1,249.8,276z M249.9,184c-24.5,0-44.4,19.8-44.4,44.3c0,24.5,19.8,44.4,44.3,44.4&#10;&#9;&#9;s44.4-19.8,44.4-44.3c0-14.4-7-28-18.8-36.3C268,186.8,259.1,184,249.9,184L249.9,184z"/>
	<ellipse transform="matrix(0.1602 -0.9871 0.9871 0.1602 -15.6139 438.448)" class="st0_search-engine-32" cx="249.9" cy="228.4" rx="46" ry="46"/>
	<path class="st1_search-engine-32" d="M249.8,276c-26.3-0.1-47.6-21.4-47.5-47.7s21.4-47.6,47.7-47.5s47.6,21.4,47.5,47.7c0,9.8-3.1,19.4-8.7,27.4&#10;&#9;&#9;C279.9,268.6,265.3,276.1,249.8,276z M249.9,184c-24.5,0-44.3,19.8-44.3,44.3s19.8,44.3,44.3,44.3c24.5,0,44.3-19.8,44.3-44.3&#10;&#9;&#9;c0-14.4-7-27.9-18.8-36.2C268,186.8,259.1,184,249.9,184L249.9,184z"/>
	<path class="st1_search-engine-32" d="M222.5,223.8c-0.3-0.3-0.6-0.5-1-0.7c-0.4-0.1-0.8-0.2-1.2-0.2c-0.2,0-0.4,0-0.7,0.1c-0.2,0.1-0.4,0.1-0.6,0.2&#10;&#9;&#9;c-0.2,0.1-0.4,0.3-0.5,0.4c-0.1,0.2-0.2,0.4-0.2,0.6c0,0.4,0.2,0.7,0.4,0.9c0.3,0.2,0.7,0.4,1.1,0.5c0.5,0.1,0.9,0.3,1.5,0.4&#10;&#9;&#9;c0.5,0.1,1,0.4,1.5,0.6c0.5,0.3,0.8,0.7,1.1,1.1c0.3,0.6,0.5,1.2,0.4,1.9c0,0.7-0.1,1.3-0.4,1.9c-0.3,0.5-0.6,1-1.1,1.4&#10;&#9;&#9;c-0.5,0.4-1,0.6-1.6,0.8c-0.7,0.2-1.3,0.3-2,0.3c-0.8,0-1.6-0.1-2.4-0.4c-0.8-0.3-1.5-0.7-2.1-1.3l2.1-2.3c0.3,0.4,0.7,0.7,1.1,0.9&#10;&#9;&#9;c0.4,0.2,0.9,0.3,1.4,0.3c0.2,0,0.5,0,0.7-0.1c0.2-0.1,0.5-0.1,0.7-0.2c0.2-0.1,0.3-0.3,0.5-0.4c0.1-0.2,0.2-0.4,0.2-0.6&#10;&#9;&#9;c0-0.4-0.2-0.7-0.5-0.9c-0.4-0.3-0.7-0.5-1.1-0.6l-1.5-0.5c-0.5-0.2-1-0.4-1.5-0.6c-0.5-0.3-0.9-0.6-1.2-1.1&#10;&#9;&#9;c-0.3-0.5-0.5-1.2-0.5-1.8c0-0.7,0.1-1.3,0.4-1.9c0.3-0.5,0.7-1,1.1-1.4c0.5-0.4,1-0.7,1.6-0.8c0.6-0.2,1.3-0.3,1.9-0.3&#10;&#9;&#9;c0.7,0,1.5,0.1,2.2,0.3c0.7,0.2,1.3,0.6,1.9,1.1L222.5,223.8z"/>
	<path class="st1_search-engine-32" d="M235,232.3c-0.4,0.6-1,1-1.7,1.3c-0.7,0.3-1.4,0.5-2.1,0.5c-0.7,0-1.4-0.1-2-0.3c-0.6-0.2-1.2-0.6-1.6-1&#10;&#9;&#9;c-0.5-0.4-0.8-0.9-1.1-1.5c-0.5-1.3-0.5-2.7,0-4c0.2-0.6,0.6-1.1,1.1-1.5c0.5-0.4,1-0.8,1.6-1c0.6-0.2,1.3-0.3,2-0.3&#10;&#9;&#9;c0.6,0,1.2,0.1,1.8,0.3c0.5,0.2,1,0.6,1.4,1c0.4,0.4,0.7,1,0.9,1.5c0.2,0.6,0.3,1.3,0.3,2v0.9h-6.5c0.1,0.5,0.4,1,0.7,1.3&#10;&#9;&#9;c0.4,0.3,0.9,0.5,1.4,0.5c0.4,0,0.8-0.1,1.2-0.3c0.3-0.2,0.6-0.5,0.8-0.8L235,232.3z M232.6,228.3c0-0.5-0.1-0.9-0.5-1.2&#10;&#9;&#9;c-0.3-0.3-0.8-0.5-1.2-0.5c-0.3,0-0.6,0-0.8,0.1c-0.2,0.1-0.4,0.2-0.6,0.4c-0.2,0.2-0.3,0.3-0.4,0.5c-0.1,0.2-0.1,0.4-0.2,0.6&#10;&#9;&#9;L232.6,228.3z"/>
	<path class="st1_search-engine-32" d="M242.9,232.8L242.9,232.8c-0.3,0.5-0.7,0.8-1.2,1.1c-0.5,0.2-1.1,0.3-1.6,0.3c-0.4,0-0.8-0.1-1.2-0.2&#10;&#9;&#9;c-0.4-0.1-0.7-0.3-1-0.5c-0.3-0.2-0.5-0.5-0.7-0.9c-0.2-0.4-0.3-0.8-0.3-1.2c0-0.4,0-0.9,0.2-1.3c0.2-0.4,0.5-0.7,0.8-0.9&#10;&#9;&#9;c0.3-0.2,0.7-0.4,1.1-0.6c0.4-0.1,0.9-0.2,1.3-0.3c0.5-0.1,0.9-0.1,1.4-0.1h1.3c0-0.5-0.2-0.9-0.5-1.2c-0.4-0.3-0.8-0.4-1.3-0.4&#10;&#9;&#9;c-0.4,0-0.9,0.1-1.3,0.3c-0.4,0.2-0.7,0.5-1,0.8l-1.5-1.5c0.5-0.5,1.2-0.9,1.8-1.1c0.7-0.2,1.4-0.4,2.2-0.4c0.7,0,1.4,0.1,2,0.3&#10;&#9;&#9;c0.5,0.2,0.9,0.5,1.3,0.9c0.3,0.4,0.6,0.9,0.7,1.5c0.1,0.7,0.2,1.3,0.2,2v4.6h-2.6L242.9,232.8z M242.2,229.9h-0.8&#10;&#9;&#9;c-0.3,0-0.6,0.1-0.9,0.2c-0.3,0.1-0.5,0.2-0.8,0.4c-0.2,0.2-0.3,0.5-0.3,0.7c0,0.3,0.2,0.6,0.4,0.8c0.3,0.2,0.6,0.2,0.9,0.2&#10;&#9;&#9;c0.3,0,0.5,0,0.8-0.1c0.2-0.1,0.5-0.2,0.7-0.3c0.2-0.1,0.4-0.3,0.5-0.5c0.1-0.2,0.2-0.5,0.2-0.8v-0.6L242.2,229.9z"/>
	<path class="st1_search-engine-32" d="M247.3,224.8h2.8v1.5l0,0c0.3-0.5,0.6-0.9,1.1-1.3c0.5-0.3,1-0.5,1.6-0.4h0.5c0.2,0,0.3,0,0.5,0.1v2.6&#10;&#9;&#9;c-0.2-0.1-0.4-0.1-0.6-0.1c-0.2,0-0.4,0-0.6-0.1c-0.4,0-0.9,0.1-1.3,0.2c-0.3,0.1-0.5,0.4-0.7,0.6c-0.2,0.3-0.3,0.6-0.3,1&#10;&#9;&#9;c-0.1,0.4-0.1,0.8-0.1,1.2v3.8h-2.8L247.3,224.8z"/>
	<path class="st1_search-engine-32" d="M260.8,227.7c-0.1-0.2-0.3-0.4-0.6-0.5c-0.2-0.1-0.5-0.2-0.8-0.2c-0.6,0-1.2,0.2-1.7,0.6&#10;&#9;&#9;c-0.4,0.5-0.6,1.1-0.6,1.7c0,0.6,0.2,1.2,0.6,1.7c0.4,0.4,1,0.7,1.7,0.6c0.3,0,0.6-0.1,0.8-0.2c0.2-0.1,0.4-0.3,0.6-0.5l1.9,2&#10;&#9;&#9;c-0.4,0.4-1,0.8-1.5,0.9c-0.6,0.2-1.1,0.3-1.7,0.3c-0.7,0-1.4-0.1-2-0.3c-0.6-0.2-1.2-0.6-1.6-1c-0.5-0.4-0.8-0.9-1.1-1.5&#10;&#9;&#9;c-0.5-1.3-0.5-2.7,0-4c0.2-0.6,0.6-1.1,1.1-1.5c0.5-0.4,1-0.8,1.6-1c0.6-0.2,1.3-0.3,2-0.3c0.6,0,1.2,0.1,1.7,0.3&#10;&#9;&#9;c0.6,0.2,1.1,0.5,1.5,0.9L260.8,227.7z"/>
	<path class="st1_search-engine-32" d="M266.5,219.7v6.3l0,0c0.1-0.2,0.2-0.4,0.3-0.5c0.2-0.2,0.3-0.3,0.5-0.5c0.2-0.1,0.5-0.3,0.8-0.3&#10;&#9;&#9;c0.3-0.1,0.6-0.1,0.9-0.1c0.6,0,1.2,0.1,1.7,0.3c0.4,0.2,0.8,0.5,1,0.9c0.3,0.4,0.4,0.9,0.5,1.4c0.1,0.6,0.1,1.1,0.1,1.7v5h-2.8&#10;&#9;&#9;v-4.5c0-0.3,0-0.5,0-0.8c0-0.3-0.1-0.5-0.2-0.8c-0.1-0.2-0.2-0.4-0.4-0.6c-0.2-0.2-0.5-0.2-0.8-0.2c-0.3,0-0.6,0.1-0.9,0.2&#10;&#9;&#9;c-0.2,0.1-0.4,0.3-0.5,0.5c-0.1,0.2-0.2,0.5-0.2,0.7c0,0.3,0,0.6,0,0.9v4.6h-2.8v-14.2H266.5z"/>
	<path class="st1_search-engine-32" d="M274.5,232.3c0-0.2,0-0.5,0.1-0.7c0.1-0.2,0.2-0.4,0.4-0.6c0.2-0.2,0.3-0.3,0.5-0.4c0.4-0.2,0.9-0.2,1.4,0&#10;&#9;&#9;c0.4,0.2,0.7,0.5,0.9,0.9c0.1,0.2,0.1,0.4,0.1,0.7c0,0.5-0.2,0.9-0.5,1.2c-0.2,0.2-0.3,0.3-0.5,0.4c-0.4,0.2-0.9,0.2-1.4,0&#10;&#9;&#9;c-0.2-0.1-0.4-0.2-0.5-0.4c-0.2-0.2-0.3-0.4-0.4-0.6C274.5,232.7,274.5,232.5,274.5,232.3z"/>
	<path class="st1_search-engine-32" d="M280,232.3c0-0.2,0-0.5,0.1-0.7c0.1-0.2,0.2-0.4,0.4-0.6c0.2-0.2,0.4-0.3,0.6-0.4c0.4-0.2,0.9-0.2,1.4,0&#10;&#9;&#9;c0.4,0.2,0.7,0.5,0.9,0.9c0.1,0.2,0.1,0.4,0.1,0.7c0,0.5-0.2,0.9-0.5,1.2c-0.2,0.2-0.3,0.3-0.5,0.4c-0.4,0.2-0.9,0.2-1.4,0&#10;&#9;&#9;c-0.2-0.1-0.4-0.2-0.6-0.4c-0.2-0.2-0.3-0.4-0.4-0.6C280.1,232.7,280,232.5,280,232.3z"/>
	<path class="st1_search-engine-32" d="M285.6,232.3c0-0.2,0-0.5,0.1-0.7c0.2-0.4,0.5-0.7,0.9-0.9c0.4-0.2,0.9-0.2,1.4,0c0.2,0.1,0.4,0.2,0.6,0.4&#10;&#9;&#9;c0.2,0.2,0.3,0.3,0.4,0.6c0.1,0.2,0.1,0.4,0.1,0.7c0,0.2,0,0.5-0.1,0.7c-0.1,0.2-0.2,0.4-0.4,0.6c-0.2,0.2-0.3,0.3-0.6,0.4&#10;&#9;&#9;c-0.4,0.2-0.9,0.2-1.4,0c-0.2-0.1-0.4-0.2-0.5-0.4C285.8,233.2,285.6,232.7,285.6,232.3L285.6,232.3z"/>
</g>
<g id="video_search-engine-32">
	<path class="st3_search-engine-32" d="M67.9,268.3h68.4c2.7,0,4.9,2.2,4.9,4.9v54.4c0,2.7-2.2,4.9-4.9,4.9H67.9c-2.7,0-4.9-2.2-4.9-4.9v-54.4&#10;&#9;&#9;C62.9,270.5,65.1,268.3,67.9,268.3z"/>
	<path class="st1_search-engine-32" d="M133.2,334.2H70.9c-5.3,0-9.6-4.3-9.6-9.6v-48.2c0-5.3,4.3-9.6,9.6-9.6h62.2c5.3,0,9.6,4.3,9.6,9.6v48.2&#10;&#9;&#9;C142.8,329.9,138.5,334.2,133.2,334.2z M70.9,269.9c-3.5,0-6.4,2.9-6.4,6.4v48.2c0,3.5,2.9,6.4,6.4,6.4h62.2c3.5,0,6.4-2.9,6.4-6.4&#10;&#9;&#9;v-48.2c0-3.5-2.9-6.4-6.4-6.4L70.9,269.9z"/>
	<polygon class="st0_search-engine-32" points="89.1,318.8 89.1,282.1 121.2,300.4 &#9;"/>
	<path class="st1_search-engine-32" d="M89.1,320.4c-0.3,0-0.6-0.1-0.8-0.2c-0.5-0.3-0.8-0.8-0.8-1.4v-36.7c0-0.9,0.7-1.6,1.6-1.6&#10;&#9;&#9;c0.3,0,0.6,0.1,0.8,0.2L122,299c0.8,0.5,1,1.4,0.6,2.2c-0.1,0.2-0.3,0.4-0.6,0.6l-32,18.3C89.7,320.3,89.4,320.4,89.1,320.4z&#10;&#9;&#9; M90.8,284.9V316l27.2-15.5L90.8,284.9z"/>
</g>
<g id="image_search-engine-32">
	<path class="st5_search-engine-32" d="M356.4,126.2h78.1c1.9,0,3.5,1.5,3.5,3.5v55.6c0,1.9-1.5,3.5-3.5,3.5h-78.1c-1.9,0-3.5-1.5-3.5-3.5v-55.6&#10;&#9;&#9;C352.9,127.7,354.5,126.2,356.4,126.2z"/>
	<path class="st1_search-engine-32" d="M432.4,190.3h-73.8c-4,0-7.2-3.2-7.2-7.2v-51.3c0-4,3.2-7.2,7.2-7.2h73.8c4,0,7.2,3.2,7.2,7.2v51.3&#10;&#9;&#9;C439.6,187.1,436.4,190.3,432.4,190.3z M358.6,127.8c-2.2,0-4,1.8-4,4v51.3c0,2.2,1.8,4,4,4h73.8c2.2,0,4-1.8,4-4v-51.3&#10;&#9;&#9;c0-2.2-1.8-4-4-4L358.6,127.8z"/>
	<path class="st1_search-engine-32" d="M352.9,182.1c-0.9,0-1.6-0.7-1.6-1.6c0-0.4,0.1-0.8,0.4-1.1l27-30.2c0.3-0.3,0.7-0.5,1.1-0.5&#10;&#9;&#9;c0.4,0,0.8,0.1,1.1,0.4l27.9,25c0.7,0.6,0.7,1.6,0.1,2.3s-1.6,0.7-2.3,0.1l0,0L380,152.5l-25.9,29&#10;&#9;&#9;C353.8,181.9,353.4,182.1,352.9,182.1z"/>
	<path class="st1_search-engine-32" d="M402.2,171.9c-0.9,0-1.6-0.7-1.6-1.6c0-0.4,0.2-0.9,0.5-1.2l16-14.8c0.6-0.5,1.4-0.6,2-0.1l19.7,13.2&#10;&#9;&#9;c0.7,0.5,0.9,1.5,0.5,2.2c-0.5,0.7-1.5,0.9-2.2,0.4l0,0l-18.7-12.5l-15.1,13.9C403,171.7,402.6,171.9,402.2,171.9z"/>
	<circle class="st0_search-engine-32" cx="402.2" cy="143.8" r="6.4"/>
	<path class="st1_search-engine-32" d="M402.2,151.8c-4.5,0-8.1-3.6-8.1-8.1c0-4.5,3.6-8.1,8.1-8.1c4.5,0,8.1,3.6,8.1,8.1&#10;&#9;&#9;C410.3,148.2,406.7,151.8,402.2,151.8z M402.2,138.9c-2.7,0-4.8,2.2-4.8,4.8c0,2.7,2.2,4.8,4.8,4.8c2.7,0,4.8-2.2,4.8-4.8&#10;&#9;&#9;C407,141.1,404.9,139,402.2,138.9L402.2,138.9z"/>
</g>
<g id="paper_search-engine-32">
	<polygon class="st0_search-engine-32" points="433,331.4 378.5,331.4 378.5,281.1 390,270 433,270 &#9;"/>
	<path class="st1_search-engine-32" d="M433,333h-54.5c-0.9,0-1.6-0.7-1.6-1.6v-50.2c0-0.4,0.2-0.9,0.5-1.2l11.4-11.1c0.3-0.3,0.7-0.5,1.1-0.5H433&#10;&#9;&#9;c0.9,0,1.6,0.7,1.6,1.6c0,0,0,0,0,0v61.3C434.6,332.2,433.9,333,433,333C433,333,433,333,433,333z M380.1,329.8h51.3v-58.1h-40.8&#10;&#9;&#9;l-10.5,10.1L380.1,329.8z"/>
	<polygon class="st0_search-engine-32" points="378.5,281.1 389.8,281.1 389.8,270 &#9;"/>
	<path class="st1_search-engine-32" d="M389.8,282.8h-11.3c-0.9,0-1.6-0.7-1.6-1.6c0-0.4,0.2-0.9,0.5-1.2l11.3-11.1c0.6-0.6,1.7-0.6,2.3,0&#10;&#9;&#9;c0.3,0.3,0.5,0.7,0.5,1.1v11.1C391.5,282,390.7,282.8,389.8,282.8z M382.5,279.5h5.7v-5.6L382.5,279.5z"/>
	<path class="st6_search-engine-32" d="M422.9,292h-34.2c-0.9-0.1-1.6-0.9-1.5-1.8c0.1-0.8,0.7-1.4,1.5-1.5h34.2c0.9,0.1,1.6,0.9,1.5,1.8&#10;&#9;&#9;C424.3,291.3,423.7,291.9,422.9,292L422.9,292z"/>
	<path class="st6_search-engine-32" d="M422.9,304.5h-34.2c-0.9-0.1-1.6-0.9-1.5-1.8c0.1-0.8,0.7-1.4,1.5-1.5h34.2c0.9,0.1,1.6,0.9,1.5,1.8&#10;&#9;&#9;C424.3,303.8,423.7,304.5,422.9,304.5L422.9,304.5z"/>
	<path class="st6_search-engine-32" d="M414.7,317h-26c-0.9-0.1-1.6-0.9-1.5-1.8c0.1-0.8,0.7-1.4,1.5-1.5h26c0.9,0.1,1.6,0.9,1.5,1.8&#10;&#9;&#9;C416.1,316.3,415.5,316.9,414.7,317z"/>
</g>
</svg>