<svg version="1.1" id="Layer_1" xmlns="http://www.w3.org/2000/svg" xmlns:xlink="http://www.w3.org/1999/xlink" x="0px" y="0px" viewBox="0 0 500 500" style="width: 142px;" xml:space="preserve" data-imageid="settings-90" imageName="Settings" class="illustrations_image">
<style type="text/css">
	.st0_settings-90{fill:#FFFFFF;}
	.st1_settings-90{fill:#231F20;}
	.st2_settings-90{fill:#68E1FD;}
	.st3_settings-90{fill:#D1D3D4;}
	.st4_settings-90{fill:none;}
</style>
<g id="Left_Hand_settings-90">
	<path class="st0_settings-90" d="M257.3,123.8c0.5-0.3,1.2-0.6,1.6-0.2s0.2,1.1-0.2,1.6c-0.9,1.4-2,2.6-3.3,3.6c2.2-1,4.5-1.7,6.9-2&#10;&#9;&#9;c0.5-0.1,1.1,0,1.2,0.4s-0.3,0.7-0.6,0.9c-2,1.4-4.3,2.5-6.8,3.1c1.4-0.2,2.9-0.1,4.3,0.4c0.3,0.1,0.5,0.2,0.6,0.4&#10;&#9;&#9;c0.2,0.5-0.3,1-0.8,1.3c-5,2.8-10.9,3.5-16.6,3.9c-0.2,0-0.5,0-0.7-0.1c-0.4-0.3-0.3-0.9-0.1-1.3&#10;&#9;&#9;C245.1,129.8,252,127.3,257.3,123.8z"/>
	<path class="st1_settings-90" d="M243.5,138.2c-0.3,0-0.6-0.1-0.8-0.2c-0.6-0.4-0.8-1.2-0.4-2.1c1.8-5.1,6.5-7.8,11-10.4&#10;&#9;&#9;c1.2-0.7,2.5-1.4,3.6-2.2c1.4-0.9,2.1-0.5,2.5-0.2c0.6,0.6,0.6,1.5-0.1,2.5c-0.3,0.5-0.7,0.9-1,1.4c1.3-0.4,2.6-0.7,4-0.8&#10;&#9;&#9;c1-0.1,1.8,0.2,2,1c0.1,0.4,0,1-0.8,1.6c-1.1,0.8-2.3,1.4-3.6,2c0.3,0.1,0.6,0.2,0.9,0.3c0.4,0.1,0.8,0.4,1,0.8&#10;&#9;&#9;c0.4,0.8,0,1.6-1.1,2.2c-5.2,2.9-11.2,3.6-16.9,4L243.5,138.2z M258.4,124.2c-0.3,0-0.5,0.1-0.7,0.3l0,0c-1.2,0.8-2.5,1.5-3.7,2.2&#10;&#9;&#9;c-4.3,2.5-8.7,5-10.4,9.6c-0.1,0.2-0.1,0.4-0.1,0.6c0,0,0.1-0.1,0.2-0.1c5.5-0.4,11.3-1.1,16.3-3.8c0.2-0.1,0.4-0.2,0.5-0.4l0,0&#10;&#9;&#9;c-0.1,0-0.1,0-0.2-0.1c-1.2-0.5-2.6-0.6-3.9-0.4c-0.4,0.1-0.7-0.2-0.8-0.6c-0.1-0.4,0.2-0.7,0.5-0.8c2.3-0.6,4.6-1.6,6.5-3l0.1-0.1&#10;&#9;&#9;c-0.1,0-0.2,0-0.3,0c-2.3,0.3-4.6,0.9-6.7,1.9c-0.4,0.1-0.8,0-0.9-0.4c-0.1-0.3,0-0.6,0.2-0.8c1.2-1,2.3-2.1,3.2-3.4&#10;&#9;&#9;C258.3,124.7,258.4,124.4,258.4,124.2L258.4,124.2z M257.3,123.9L257.3,123.9z"/>
	<path class="st2_settings-90 targetColor" d="M181.6,132c0,0,68.3-5,68.3-4.6s-2.4,11.1-2.4,11.1s-58.7,19.4-65.9,12.8S181.6,132,181.6,132z" style="fill: rgb(89, 195, 5);"/>
</g>
<g id="Floor_settings-90">
	<path class="st3_settings-90" d="M401.8,393.8H98.2c-0.4,0-0.7-0.3-0.7-0.7c0-0.4,0.3-0.7,0.7-0.7h303.5c0.4,0,0.7,0.3,0.7,0.7&#10;&#9;&#9;C402.4,393.5,402.1,393.8,401.8,393.8z"/>
</g>
<g id="Ladder_settings-90">
	<path class="st1_settings-90" d="M160.4,404.6c-0.1,0-0.3,0-0.4,0c-1.5-0.2-2.6-1.6-2.4-3.2l36.1-252.7c0.3-1.5,1.7-2.5,3.3-2.3&#10;&#9;&#9;c1.4,0.3,2.4,1.6,2.3,3l-36.1,252.7C163,403.5,161.8,404.6,160.4,404.6z"/>
	<path class="st1_settings-90" d="M113,404.6c-0.1,0-0.3,0-0.4,0c-1.5-0.2-2.6-1.6-2.4-3.2l36.1-252.7c0.2-1.5,1.6-2.6,3.2-2.4s2.6,1.6,2.4,3.2&#10;&#9;&#9;l-36.1,252.7C115.6,403.6,114.4,404.6,113,404.6z"/>
	<path class="st1_settings-90" d="M162.9,372.3h-45.3c-1.5,0-2.8-1.3-2.8-2.8c0-1.5,1.3-2.8,2.8-2.8l0,0h45.3c1.5,0,2.8,1.3,2.8,2.8&#10;&#9;&#9;C165.7,371.1,164.4,372.3,162.9,372.3z"/>
	<path class="st1_settings-90" d="M168.1,336h-45.2c-1.5,0-2.8-1.3-2.8-2.8c0-1.5,1.3-2.8,2.8-2.8h45.2c1.5,0,2.8,1.3,2.8,2.8&#10;&#9;&#9;C170.9,334.7,169.6,336,168.1,336z"/>
	<path class="st1_settings-90" d="M173.3,299.6H128c-1.5,0-2.8-1.3-2.8-2.8c0-1.5,1.3-2.8,2.8-2.8h45.2c1.5,0,2.8,1.3,2.8,2.8&#10;&#9;&#9;C176.1,298.3,174.8,299.6,173.3,299.6L173.3,299.6z"/>
	<path class="st1_settings-90" d="M178.5,263.2h-45.2c-1.5,0-2.8-1.3-2.8-2.8c0-1.5,1.3-2.8,2.8-2.8h45.2c1.5,0,2.8,1.3,2.8,2.8&#10;&#9;&#9;C181.3,262,180,263.2,178.5,263.2z"/>
	<path class="st1_settings-90" d="M183.7,226.9h-45.3c-1.5,0-2.8-1.3-2.8-2.8s1.3-2.8,2.8-2.8h45.3c1.5,0,2.8,1.3,2.8,2.8&#10;&#9;&#9;S185.2,226.9,183.7,226.9L183.7,226.9z"/>
	<path class="st1_settings-90" d="M188.9,190.5h-45.2c-1.5,0-2.8-1.3-2.8-2.8s1.3-2.8,2.8-2.8h45.2c1.5,0,2.8,1.3,2.8,2.8&#10;&#9;&#9;S190.4,190.5,188.9,190.5z"/>
</g>
<g id="Gears_settings-90">
	<path class="st0_settings-90" d="M209.3,174.8c1.4-4.1,2.8-8.2,4.2-12.3c0.8-2.1,1.6-4.2,2.5-6.3c0.9-2.7,3.7-4.4,6.5-4&#10;&#9;&#9;c3.3,0.4,6.6,1.1,9.9,1.6c1.8,0.4,3.5,0.6,5.4,0.7c1.3,0,2.6-0.4,3.7-1.2c3.8-3.6,7.4-7.4,11.1-11.3c1.2-1.4,1.7-3.4,1.1-5.2&#10;&#9;&#9;c-0.9-4-1.8-8-2.6-12c-0.4-1.6-0.5-3.2-0.4-4.8c0.1-1.2,0.7-2.2,1.6-3c6.1-4,12.8-7.1,19.9-9.1c2.1-0.7,4.5,0.1,5.7,2&#10;&#9;&#9;c2.5,3.5,5.2,6.9,7.6,10.4c1.9,2.8,4.4,4.2,7.8,4c4.4-0.3,8.8-0.4,13.2-0.6c1.6-0.1,3.1-1,4-2.4c1.6-2.3,3-4.7,4.6-7.1&#10;&#9;&#9;c1.3-2,2.6-4,4-6c1.2-2.1,3.8-3,6.1-2.1c6.1,2.1,12.2,4.3,18.2,6.6c2.5,1,3.5,3.3,3.3,5.9c-0.3,3.4-1.1,6.7-1.6,10.1&#10;&#9;&#9;c-0.3,1.6-0.5,3.2-0.6,4.8c-0.3,2.1,0.5,4.1,2,5.6c3.2,3,6.5,6,9.6,9.2c1.8,1.9,4.6,2.7,7.1,2c4.4-0.9,8.7-2,13-2.9&#10;&#9;&#9;c3.4-0.7,5.8,0.3,7.3,3.5c2.5,5.2,4.9,10.4,7.2,15.7c1.7,3.8,1.1,6.1-2.2,8.7c-2.2,1.8-4.6,3.3-6.9,5c-1.6,1.2-3.3,2.5-4.8,3.8&#10;&#9;&#9;c-1.3,1.1-2.1,2.8-2,4.5c0.1,4.6,0.2,9.1,0.4,13.7c0.1,2.5,1.5,4.8,3.6,6.1c2.5,1.5,5,2.9,7.5,4.4c1.5,0.9,3,1.9,4.5,3&#10;&#9;&#9;c2.1,1.4,3,4.2,2,6.5c-2,5.5-4,11-6.1,16.4c-0.3,0.8-0.8,1.6-1.3,2.4c-1,1.8-3.1,2.8-5.1,2.4c-4-0.6-7.9-1.3-11.9-2&#10;&#9;&#9;c-0.3-0.1-0.6-0.1-0.9-0.1c-3.7-0.9-6.6,0.3-9.1,3.2c-2.2,2.6-4.8,5-7.1,7.5c-2.3,2.2-3.1,5.5-2.2,8.6c1,3.8,1.9,7.7,2.7,11.6&#10;&#9;&#9;c0.8,4.1,0,5.9-3.7,7.7c-5.4,2.6-10.8,5-16.3,7.3c-3,1.3-5.2,0.7-7.2-1.9s-4-5.5-6-8.2c-4.2-6-5.3-6.5-12.6-6.1&#10;&#9;&#9;c-2.9,0.1-5.7,0.3-8.6,0.5c-2.8,0-5.3,1.5-6.7,3.9c-1.7,2.9-3.4,5.8-5.2,8.6c-1,1.5-2.1,2.8-3.3,4.1c-1.1,1.3-2.9,1.8-4.5,1.2&#10;&#9;&#9;c-5.8-2.1-11.5-4.3-17.3-6.5c-0.8-0.3-1.5-0.8-2.2-1.3c-1.8-1-2.8-3.1-2.4-5.1c0.6-3.9,1.3-7.8,1.9-11.7c0.2-1.2,0.3-2.4,0.4-3.6&#10;&#9;&#9;c0.2-2-0.5-3.9-2-5.3c-3.1-2.9-6.2-5.8-9.4-8.7c-1.8-1.8-4.4-2.4-6.8-1.7c-3.8,1-7.7,1.8-11.6,2.7l-0.4,0.1c-5,0.9-6.7,0.3-8.9-4.4&#10;&#9;&#9;c-2.4-5.1-4.6-10.4-6.8-15.7c-1.3-3.2-0.8-5.1,2.1-7.2c3.1-2.3,6.2-4.6,9.4-6.7c3.2-1.8,5.1-5.4,4.7-9.1c-0.3-4.1-0.4-8.2-0.6-12.3&#10;&#9;&#9;c0-1.7-0.9-3.4-2.4-4.3c-3.4-2.2-6.9-4.3-10.3-6.5c-2.2-1.4-4.5-2.9-5.4-5.6L209.3,174.8z M339.9,197.7c0-21.7-17.4-38.9-39.3-39&#10;&#9;&#9;c-18-0.1-38.4,15.7-38.4,39.1c0.1,21.3,17.3,38.6,38.6,38.8C325.9,236.6,341,214.9,339.9,197.7z"/>
	<path class="st1_settings-90" d="M278.7,290.1c-0.6,0-1.2-0.1-1.7-0.3l-4.7-1.8c-4.2-1.6-8.4-3.1-12.6-4.7c-0.7-0.3-1.4-0.7-2-1.1l-0.3-0.2&#10;&#9;&#9;c-2.1-1.1-3.2-3.5-2.7-5.8l0.8-5.2c0.4-2.2,0.7-4.4,1.1-6.6c0.2-1.2,0.3-2.3,0.3-3.5c0.2-1.8-0.4-3.5-1.8-4.7&#10;&#9;&#9;c-2.7-2.5-5.4-5-8.1-7.6l-1.2-1.1c-1.6-1.6-4-2.2-6.2-1.5c-2.7,0.7-5.4,1.3-8.1,1.9l-3.6,0.8l-0.3,0.1c-5.5,1-7.4,0.1-9.6-4.8&#10;&#9;&#9;c-2.7-5.7-5.1-11.4-6.8-15.7c-1.4-3.5-0.8-5.7,2.3-8c3.6-2.7,6.6-4.9,9.5-6.7c3-1.7,4.7-5,4.3-8.5c-0.2-2.6-0.3-5.1-0.4-7.7&#10;&#9;&#9;c-0.1-1.6-0.1-3.1-0.2-4.7c0-1.5-0.8-2.9-2.1-3.7l-4.2-2.7c-2-1.3-4-2.6-6-3.8c-2.3-1.5-4.7-3.1-5.7-6c0-0.1,0-0.1,0-0.2v-1.5&#10;&#9;&#9;c0-0.1,0-0.2,0-0.2l1.2-3.5c1-2.9,2-5.9,3-8.8c0.8-2.2,1.7-4.4,2.5-6.3c1-3,4.1-4.9,7.2-4.4c2.2,0.2,4.4,0.6,6.6,1&#10;&#9;&#9;c1.1,0.2,2.2,0.4,3.4,0.6l1.3,0.2c1.3,0.3,2.6,0.4,3.9,0.5c1.2,0,2.3-0.3,3.2-1c4.1-3.9,7.9-7.9,11-11.2c1.1-1.3,1.5-3,1-4.6&#10;&#9;&#9;c-0.4-1.8-0.8-3.6-1.2-5.3c-0.5-2.2-1-4.5-1.5-6.7c-0.4-1.6-0.6-3.3-0.4-5c0.1-1.4,0.8-2.7,1.9-3.6c6.2-4,12.9-7.1,20.1-9.1&#10;&#9;&#9;c2.4-0.8,5,0.2,6.4,2.3l2.7,3.7c1.6,2.2,3.4,4.5,4.9,6.8c1.9,2.8,4.1,3.9,7.2,3.7c2.9-0.2,5.8-0.3,8.6-0.4l4.7-0.2&#10;&#9;&#9;c1.4-0.1,2.7-0.9,3.4-2.1c0.9-1.4,1.8-2.8,2.7-4.2c0.6-1,1.2-1.9,1.9-2.9l0.7-1c1.1-1.7,2.2-3.4,3.4-5c1.4-2.3,4.3-3.3,6.9-2.3&#10;&#9;&#9;c7.3,2.5,12.9,4.6,18.2,6.6c2.6,1,4,3.5,3.7,6.6c-0.2,2.3-0.6,4.5-1,6.7c-0.2,1.1-0.4,2.3-0.6,3.4c-0.2,1.5-0.5,3.1-0.6,4.7&#10;&#9;&#9;c-0.2,1.9,0.5,3.7,1.8,5l2.3,2.1c2.4,2.3,4.9,4.6,7.3,7c1.6,1.8,4.2,2.5,6.5,1.8c2.1-0.5,4.2-1,6.4-1.4s4.4-1,6.6-1.5&#10;&#9;&#9;c3.8-0.8,6.5,0.4,8.1,3.9c2.5,5.2,4.9,10.5,7.2,15.7c1.8,4.1,1.1,6.7-2.5,9.5c-1.3,1.1-2.7,2-4.1,3c-1,0.7-1.9,1.3-2.9,2&#10;&#9;&#9;c-1.8,1.3-3.3,2.5-4.8,3.8c-1.2,1-1.9,2.5-1.8,4l0.1,2.8c0.1,3.6,0.2,7.2,0.3,10.8c0.1,2.3,1.3,4.4,3.3,5.5c1,0.6,2.1,1.2,3.2,1.9&#10;&#9;&#9;c1.5,0.9,2.9,1.7,4.3,2.6c1.6,0.9,3.1,2,4.5,3.1c2.4,1.6,3.4,4.7,2.2,7.3c-1.9,5.2-3.9,10.6-6.1,16.4c-0.3,0.8-0.8,1.6-1.3,2.3&#10;&#9;&#9;l-0.1,0.2c-1.2,2-3.5,3.1-5.8,2.7l-8-1.3l-4.1-0.7l-0.7,0c-3.4-0.8-6,0.2-8.4,2.9c-1.6,1.9-3.3,3.6-5,5.3c-0.7,0.7-1.5,1.5-2.2,2.2&#10;&#9;&#9;c-2.1,2.1-2.9,5.1-2,7.9c0.9,3.7,1.9,7.6,2.7,11.6c0.9,4.5-0.1,6.5-4.1,8.4c-4.9,2.4-10.2,4.8-16.3,7.4c-3.2,1.4-5.8,0.7-8-2.1&#10;&#9;&#9;c-1.8-2.2-3.4-4.5-5-6.8l-1-1.5c-4.1-5.8-4.9-6.2-12-5.8l-4.9,0.3l-3.7,0.2c-2.5,0-4.9,1.4-6.2,3.6c-0.6,1-1.1,1.9-1.7,2.9&#10;&#9;&#9;c-1.1,1.9-2.3,3.9-3.5,5.7c-1,1.5-2.1,2.9-3.4,4.2C281.5,289.5,280.1,290.1,278.7,290.1z M241.6,244.3c1.9,0,3.8,0.8,5.2,2.1&#10;&#9;&#9;l1.2,1.1c2.7,2.5,5.4,5.1,8.1,7.6c1.6,1.5,2.4,3.7,2.2,5.8c-0.1,1.2-0.2,2.4-0.4,3.7c-0.3,2.2-0.7,4.4-1.1,6.6&#10;&#9;&#9;c-0.3,1.7-0.6,3.4-0.8,5.1c-0.3,1.8,0.5,3.6,2.1,4.4l0.3,0.2c0.5,0.4,1.1,0.7,1.8,1c4.2,1.6,8.4,3.1,12.6,4.7l4.7,1.8&#10;&#9;&#9;c1.3,0.5,2.9,0.1,3.8-1c1.2-1.2,2.3-2.6,3.2-4c1.2-1.9,2.4-3.8,3.5-5.7c0.6-1,1.1-1.9,1.7-2.9c1.5-2.6,4.3-4.2,7.3-4.2l3.7-0.2&#10;&#9;&#9;l4.9-0.3c7.6-0.4,8.8,0.2,13.2,6.4l1,1.5c1.6,2.2,3.2,4.6,5,6.7c1.9,2.3,3.7,2.8,6.4,1.7c6.1-2.6,11.4-5,16.3-7.3&#10;&#9;&#9;c3.4-1.6,4.1-3.1,3.3-6.9s-1.8-7.9-2.7-11.5c-1-3.3-0.1-6.8,2.4-9.2c0.7-0.8,1.5-1.5,2.2-2.2c1.7-1.7,3.4-3.4,4.9-5.2&#10;&#9;&#9;c2.7-3.2,5.9-4.3,9.8-3.4c0.2,0,0.3,0.1,0.5,0.1l0.4,0.1l3.8,0.6l8,1.3c1.8,0.3,3.6-0.5,4.4-2.1l0.1-0.2c0.5-0.6,0.8-1.3,1.1-2&#10;&#9;&#9;c2.2-5.9,4.2-11.2,6.1-16.4c0.9-2.1,0.1-4.5-1.8-5.7c-1.4-1.1-2.9-2.1-4.4-3c-1.4-0.9-2.9-1.7-4.3-2.6c-1.1-0.6-2.1-1.2-3.2-1.9&#10;&#9;&#9;c-2.4-1.4-3.9-3.9-4-6.6c-0.2-3.6-0.2-7.3-0.3-10.9l-0.1-2.8c-0.1-1.9,0.8-3.8,2.3-5.1c1.5-1.3,3.1-2.6,4.9-3.9&#10;&#9;&#9;c1-0.7,1.9-1.4,2.9-2.1c1.4-0.9,2.7-1.9,4-2.9c3.1-2.4,3.6-4.4,2-7.9c-2.3-5.2-4.7-10.5-7.2-15.7c-1.4-2.8-3.4-3.8-6.5-3.1&#10;&#9;&#9;c-2.2,0.5-4.4,1-6.6,1.5s-4.3,1-6.4,1.4c-2.8,0.8-5.8-0.1-7.8-2.2c-2.4-2.4-4.9-4.7-7.3-7l-2.3-2.1c-1.7-1.6-2.5-3.9-2.2-6.1&#10;&#9;&#9;c0.1-1.6,0.4-3.3,0.6-4.8c0.2-1.1,0.4-2.3,0.6-3.4c0.4-2.2,0.8-4.4,1-6.6c0.2-2.5-0.8-4.4-2.8-5.2c-5.3-2-10.9-4-18.2-6.6&#10;&#9;&#9;c-2-0.7-4.2,0-5.3,1.8c-1.2,1.6-2.3,3.3-3.4,5l-0.7,1c-0.6,0.9-1.2,1.9-1.9,2.8c-0.9,1.4-1.8,2.8-2.7,4.2c-1,1.6-2.7,2.6-4.5,2.7&#10;&#9;&#9;c-1.5,0.1-3.1,0.1-4.7,0.2c-2.8,0.1-5.7,0.2-8.5,0.4c-3.6,0.3-6.3-1.1-8.5-4.2c-1.6-2.3-3.2-4.6-4.9-6.8c-0.9-1.2-1.8-2.4-2.7-3.7&#10;&#9;&#9;c-1-1.7-3.1-2.4-4.9-1.8c-7,2-13.6,5-19.7,9c-0.7,0.7-1.2,1.6-1.2,2.5c-0.1,1.5,0.1,3.1,0.4,4.6c0.5,2.2,1,4.5,1.5,6.7&#10;&#9;&#9;c0.4,1.8,0.8,3.6,1.2,5.3c0.6,2.1,0.1,4.3-1.3,5.9c-3.2,3.4-7,7.4-11.1,11.3c-1.2,0.9-2.7,1.4-4.2,1.4c-1.4,0-2.8-0.2-4.2-0.5&#10;&#9;&#9;c-0.4-0.1-0.9-0.2-1.3-0.2l-3.4-0.6c-2.1-0.4-4.3-0.8-6.5-1c-2.5-0.4-5,1.1-5.8,3.6c-0.8,1.9-1.7,4.1-2.5,6.2c-1,2.9-2,5.9-3,8.8&#10;&#9;&#9;l-1.1,3.4v1.3c0.8,2.4,2.9,3.7,5,5.1s4.1,2.6,6.1,3.9l4.3,2.7c1.7,1.1,2.7,2.9,2.7,4.8c0.1,1.6,0.1,3.1,0.2,4.7&#10;&#9;&#9;c0.1,2.5,0.2,5.1,0.4,7.6c0.4,4-1.5,7.8-5,9.7c-2.9,1.9-5.9,4-9.4,6.6c-2.6,2-3.1,3.5-1.9,6.4c1.8,4.3,4.1,10,6.8,15.7&#10;&#9;&#9;c2,4.2,3.3,4.9,8.1,4h0.2l0.2-0.1l3.5-0.8c2.7-0.6,5.4-1.2,8.1-1.9C240,244.5,240.8,244.4,241.6,244.3L241.6,244.3z M301,237.2&#10;&#9;&#9;L301,237.2c-21.8,0-39.5-17.7-39.4-39.5c0-10.5,4.2-20.6,11.7-27.9c7.5-7.4,17.6-11.9,27.2-11.9h0.2c22.4,0.1,40,17.5,40,39.7&#10;&#9;&#9;c0.6,9.4-3.4,19.5-10.6,27.2C322.5,232.8,312,237.3,301,237.2z M300.5,159.4c-9.2,0-19,4.3-26.3,11.5c-7.2,7.1-11.3,16.8-11.2,26.9&#10;&#9;&#9;c0,21,17,38,37.9,38.1h0.1c10.6,0.1,20.7-4.3,28-12c7-7.4,10.8-17.2,10.2-26.1l0,0c0-21.4-16.9-38.2-38.6-38.3L300.5,159.4z"/>
	<path class="st3_settings-90" d="M346.8,292.8c0.4-1.2,0.8-2.5,1.3-3.7c0.2-0.6,0.5-1.3,0.7-1.9c0.3-0.8,1.1-1.3,2-1.2c1,0.1,2,0.3,3,0.5&#10;&#9;&#9;c0.5,0.1,1.1,0.2,1.6,0.2c0.4,0,0.8-0.1,1.1-0.4c1.1-1.1,2.2-2.2,3.3-3.4c0.4-0.4,0.5-1,0.3-1.6c-0.3-1.2-0.5-2.4-0.8-3.6&#10;&#9;&#9;c-0.1-0.5-0.2-0.9-0.1-1.4c0-0.4,0.2-0.7,0.5-0.9c1.8-1.2,3.8-2.1,6-2.7c0.6-0.2,1.3,0.1,1.7,0.6c0.8,1,1.5,2,2.3,3.1&#10;&#9;&#9;c0.5,0.8,1.4,1.3,2.3,1.2c1.3-0.1,2.6-0.1,4-0.2c0.5,0,0.9-0.3,1.2-0.7c0.5-0.7,0.9-1.4,1.4-2.1s0.8-1.2,1.2-1.8&#10;&#9;&#9;c0.4-0.6,1.1-0.9,1.8-0.6c1.8,0.6,3.6,1.3,5.5,2c0.7,0.3,1.1,1,1,1.8c-0.1,1-0.3,2-0.5,3c-0.1,0.5-0.1,1-0.2,1.4&#10;&#9;&#9;c-0.1,0.6,0.2,1.2,0.6,1.7c1,0.9,1.9,1.8,2.9,2.7c0.5,0.6,1.4,0.8,2.1,0.6c1.3-0.3,2.6-0.6,3.9-0.9c0.9-0.3,1.8,0.1,2.2,1&#10;&#9;&#9;c0.7,1.5,1.5,3.1,2.1,4.7c0.5,0.9,0.3,2-0.6,2.5c0,0-0.1,0-0.1,0.1c-0.7,0.5-1.4,1-2.1,1.5c-0.5,0.4-1,0.8-1.4,1.1&#10;&#9;&#9;c-0.4,0.3-0.6,0.8-0.6,1.4c0,1.4,0,2.7,0.1,4.1c0,0.8,0.4,1.4,1.1,1.8c0.7,0.5,1.5,0.9,2.2,1.3c0.5,0.3,0.9,0.6,1.3,0.9&#10;&#9;&#9;c0.7,0.4,0.9,1.3,0.6,2c-0.6,1.6-1.2,3.3-1.8,4.9c-0.1,0.2-0.2,0.5-0.4,0.7c-0.3,0.5-0.9,0.8-1.5,0.7l-3.5-0.6l-0.3,0&#10;&#9;&#9;c-1-0.3-2.1,0.1-2.7,1c-0.7,0.8-1.4,1.5-2.1,2.2c-0.7,0.7-0.9,1.7-0.7,2.6c0.3,1.1,0.6,2.3,0.8,3.5c0.4,0.9-0.1,1.9-0.9,2.2&#10;&#9;&#9;c-0.1,0-0.1,0-0.2,0.1c-1.6,0.8-3.2,1.5-4.9,2.2c-0.8,0.4-1.7,0.2-2.2-0.6c-0.6-0.8-1.2-1.6-1.8-2.5c-1.3-1.8-1.6-2-3.8-1.8&#10;&#9;&#9;c-0.9,0-1.7,0.1-2.6,0.1c-0.8,0-1.6,0.5-2,1.2c-0.5,0.9-1,1.7-1.6,2.6c-0.3,0.4-0.6,0.8-1,1.2c-0.3,0.4-0.9,0.5-1.4,0.4&#10;&#9;&#9;c-1.7-0.6-3.5-1.3-5.2-1.9c-0.2-0.1-0.5-0.2-0.7-0.4c-0.5-0.3-0.8-0.9-0.7-1.5c0.2-1.2,0.4-2.3,0.6-3.5c0-0.4,0.1-0.7,0.1-1.1&#10;&#9;&#9;c0.1-0.6-0.2-1.2-0.6-1.6c-0.9-0.9-1.9-1.7-2.8-2.6c-0.5-0.5-1.3-0.7-2-0.5c-1.1,0.3-2.3,0.5-3.5,0.8h-0.1c-1.5,0.3-2,0.1-2.6-1.3&#10;&#9;&#9;s-1.4-3.1-2-4.7c-0.4-0.7-0.2-1.7,0.6-2.1c0,0,0,0,0.1,0c0.9-0.7,1.9-1.4,2.8-2c1-0.6,1.5-1.6,1.4-2.7c-0.1-1.2-0.1-2.5-0.2-3.7&#10;&#9;&#9;c0-0.5-0.3-1-0.7-1.3c-1-0.6-2.1-1.3-3.1-2c-0.7-0.4-1.3-0.9-1.6-1.7L346.8,292.8z M385.9,299.6c0-6.4-5.2-11.7-11.6-11.7&#10;&#9;&#9;c0,0-0.1,0-0.1,0c-6.3,0.2-11.4,5.3-11.5,11.7c0,6.4,5.2,11.6,11.6,11.6c6.4,0.1,11.6-5,11.7-11.4&#10;&#9;&#9;C385.9,299.8,385.9,299.7,385.9,299.6L385.9,299.6z"/>
	<path class="st1_settings-90" d="M367.6,327.8c-0.2,0-0.5,0-0.7-0.1l-1.3-0.5c-1.3-0.5-2.6-1-3.9-1.4c-0.2-0.1-0.5-0.2-0.7-0.4&#10;&#9;&#9;c-0.8-0.4-1.3-1.4-1.1-2.3l0.2-1.5c0.1-0.7,0.2-1.3,0.3-2c0.1-0.3,0.1-0.7,0.1-1c0-0.4-0.1-0.7-0.4-1c-0.8-0.7-1.6-1.5-2.4-2.2&#10;&#9;&#9;l-0.4-0.4c-0.4-0.4-0.9-0.5-1.4-0.3l-2.4,0.6l-1.1,0.2h-0.2c-1.8,0.3-2.6-0.1-3.4-1.7s-1.5-3.4-2-4.7c-0.6-1.1-0.2-2.4,0.9-3&#10;&#9;&#9;c1.1-0.8,2-1.5,2.9-2c0.7-0.4,1.2-1.2,1.1-2.1c0-0.8-0.1-1.6-0.1-2.3l-0.1-1.4c0-0.3-0.2-0.6-0.4-0.7l-1.3-0.8l-1.9-1.2&#10;&#9;&#9;c-0.9-0.4-1.5-1.2-1.9-2c0-0.1,0-0.1,0-0.2v-0.5c0-0.1,0-0.2,0-0.2l0.4-1.2c0.3-0.8,0.6-1.6,0.9-2.5c0.2-0.6,0.5-1.3,0.8-1.9&#10;&#9;&#9;c0.4-1.1,1.5-1.8,2.7-1.6c0.7,0.1,1.3,0.2,2,0.3l1,0.2l0.4,0.1c0.4,0.1,0.7,0.1,1.1,0.1c0.2,0,0.4-0.1,0.6-0.2&#10;&#9;&#9;c1.2-1.1,2.3-2.3,3.3-3.3c0.2-0.3,0.3-0.6,0.2-0.9c-0.1-0.5-0.2-1.1-0.4-1.6s-0.3-1.3-0.4-2c-0.1-0.5-0.2-1.1-0.1-1.6&#10;&#9;&#9;c0-0.6,0.3-1.1,0.8-1.4c1.9-1.2,4-2.2,6.1-2.8c0.9-0.3,1.9,0.1,2.4,0.9l0.8,1.1c0.5,0.7,1,1.3,1.5,2c0.3,0.6,1,1,1.7,0.9&#10;&#9;&#9;c0.9-0.1,1.7-0.1,2.6-0.1l1.4-0.1c0.3,0,0.5-0.2,0.6-0.4c0.3-0.4,0.5-0.8,0.8-1.2l0.8-1.1c0.3-0.5,0.7-1,1-1.5&#10;&#9;&#9;c0.6-0.9,1.6-1.2,2.6-0.9c2.2,0.8,3.9,1.4,5.5,2c1,0.4,1.6,1.4,1.4,2.5c-0.1,0.7-0.2,1.4-0.3,2c-0.1,0.3-0.1,0.7-0.2,1&#10;&#9;&#9;c-0.1,0.5-0.1,0.9-0.2,1.4c-0.1,0.4,0.1,0.8,0.4,1.1l0.7,0.6c0.7,0.7,1.5,1.4,2.2,2.1c0.4,0.4,1,0.6,1.5,0.4l1.9-0.4&#10;&#9;&#9;c0.7-0.2,1.3-0.3,2-0.5c1.2-0.4,2.5,0.2,3,1.4c0.8,1.6,1.5,3.1,2.2,4.7c0.7,1.2,0.3,2.7-0.9,3.4c-0.4,0.3-0.8,0.6-1.3,0.9l-0.8,0.6&#10;&#9;&#9;c-0.5,0.4-1,0.7-1.4,1.1c-0.2,0.2-0.4,0.5-0.4,0.8v0.8c0,1.1,0,2.2,0.1,3.3c0,0.5,0.3,1,0.8,1.2l0.9,0.5l1.3,0.8&#10;&#9;&#9;c0.5,0.3,1,0.6,1.4,1c0.9,0.6,1.2,1.7,0.8,2.8c-0.6,1.6-1.2,3.3-1.9,4.9c-0.1,0.3-0.3,0.5-0.4,0.8c-0.5,0.8-1.4,1.2-2.3,1.1&#10;&#9;&#9;l-3.5-0.6l-0.3-0.1c-0.8-0.2-1.6,0.1-2,0.7c-0.5,0.6-1,1.1-1.5,1.6l-0.6,0.7c-0.5,0.5-0.7,1.2-0.5,1.9c0.3,1.2,0.6,2.3,0.8,3.5&#10;&#9;&#9;c0.5,1.2-0.2,2.6-1.4,3c0,0-0.1,0-0.1,0c-1.5,0.7-3.1,1.4-4.9,2.2c-1.1,0.5-2.3,0.2-3-0.8c-0.5-0.7-1-1.4-1.5-2l-0.3-0.5&#10;&#9;&#9;c-1.1-1.6-1.2-1.6-3.2-1.5l-2.6,0.1c-0.6,0-1.1,0.3-1.4,0.8l-0.5,0.9c-0.4,0.6-0.7,1.2-1.1,1.7c-0.3,0.5-0.7,0.9-1.1,1.3&#10;&#9;&#9;C368.6,327.6,368.1,327.8,367.6,327.8z M356.5,313.1c0.7,0,1.4,0.3,1.9,0.8l0.4,0.4c0.8,0.8,1.6,1.5,2.4,2.2&#10;&#9;&#9;c0.6,0.5,0.9,1.3,0.8,2.1c0,0.4-0.1,0.8-0.1,1.1l-0.3,2l-0.2,1.5c0,0.3,0,0.5,0.4,0.8c0.2,0.1,0.3,0.2,0.5,0.3&#10;&#9;&#9;c1.3,0.5,2.6,1,3.9,1.4l1.3,0.5c0.2,0.1,0.5,0,0.6-0.2c0.3-0.3,0.6-0.7,0.9-1.1c0.4-0.6,0.7-1.1,1-1.7l0.5-0.9&#10;&#9;&#9;c0.5-0.9,1.5-1.5,2.6-1.5l2.6-0.1c2.4-0.1,3,0.1,4.4,2.1l0.3,0.5c0.5,0.7,0.9,1.3,1.5,2c0.3,0.5,0.9,0.6,1.3,0.4&#10;&#9;&#9;c1.8-0.8,3.4-1.5,4.8-2.2c0.8-0.4,0.9-0.6,0.7-1.5c-0.2-1.1-0.5-2.3-0.8-3.4c-0.3-1.1,0-2.4,0.8-3.2l0.7-0.7c0.5-0.5,1-1,1.5-1.5&#10;&#9;&#9;c0.8-1.1,2.1-1.6,3.4-1.2h0.2l3.5,0.6c0.3,0.1,0.7-0.1,0.8-0.4c0.1-0.2,0.2-0.4,0.3-0.6c0.6-1.6,1.2-3.3,1.8-4.9&#10;&#9;&#9;c0.2-0.4,0-0.9-0.4-1.2c-0.4-0.3-0.8-0.6-1.3-0.9l-1.3-0.8l-1-0.6c-0.9-0.5-1.4-1.4-1.4-2.4c0-1.1-0.1-2.2-0.1-3.3v-0.8&#10;&#9;&#9;c0-0.7,0.3-1.4,0.9-1.9c0.5-0.4,1-0.8,1.5-1.2l0.9-0.6c0.4-0.3,0.8-0.6,1.2-0.9c0.8-0.6,0.8-0.9,0.5-1.8c-0.7-1.6-1.4-3.1-2.1-4.7&#10;&#9;&#9;c-0.2-0.6-0.8-0.9-1.3-0.7c0,0-0.1,0-0.1,0l-2,0.5l-1.9,0.4c-1,0.3-2.1,0-2.8-0.8c-0.7-0.7-1.4-1.4-2.2-2.1l-0.7-0.6&#10;&#9;&#9;c-0.6-0.6-0.9-1.4-0.8-2.2c0-0.5,0.1-1,0.2-1.5c0.1-0.3,0.1-0.7,0.2-1c0.1-0.6,0.2-1.3,0.3-1.9c0.1-0.4-0.1-0.8-0.5-1&#10;&#9;&#9;c-1.6-0.6-3.2-1.2-5.4-2c-0.4-0.1-0.8,0-1,0.4c-0.3,0.5-0.7,1-1,1.5l-0.8,1.2c-0.3,0.4-0.5,0.9-0.8,1.3c-0.4,0.6-1,1-1.7,1&#10;&#9;&#9;l-1.4,0.1c-0.9,0-1.7,0.1-2.5,0.1c-1.2,0.1-2.4-0.4-3-1.5c-0.5-0.7-1-1.3-1.4-2l-0.8-1.1c-0.2-0.3-0.6-0.5-1-0.4&#10;&#9;&#9;c-2,0.6-4,1.5-5.7,2.6c-0.1,0.1-0.1,0.2-0.1,0.4c0,0.4,0,0.8,0.1,1.2c0.1,0.7,0.3,1.3,0.4,2s0.2,1.1,0.4,1.6c0.2,0.8,0,1.6-0.5,2.2&#10;&#9;&#9;c-1,1-2.1,2.2-3.3,3.4c-0.4,0.4-1,0.5-1.6,0.5c-0.5,0-0.9-0.1-1.4-0.1l-0.4-0.1l-1-0.2c-0.6-0.1-1.3-0.2-1.9-0.3&#10;&#9;&#9;c-0.5-0.1-1.1,0.2-1.2,0.8c-0.3,0.6-0.5,1.2-0.7,1.8c-0.3,0.8-0.6,1.6-0.8,2.5l-0.4,1.3c0.3,0.5,0.7,0.9,1.3,1.2l1.8,1.2l1.3,0.8&#10;&#9;&#9;c0.6,0.4,1,1.1,1,1.8l0.1,1.4c0,0.8,0.1,1.5,0.1,2.3c0.1,1.4-0.5,2.7-1.7,3.4c-0.9,0.5-1.7,1.2-2.8,2c-0.6,0.5-0.7,0.7-0.4,1.3&#10;&#9;&#9;c0.5,1.3,1.2,3,2,4.7c0.5,1.1,0.7,1.1,1.9,0.9l1.2-0.3l2.4-0.5C355.9,313.1,356.2,313.1,356.5,313.1z M374.2,311.9L374.2,311.9&#10;&#9;&#9;c-6.8,0-12.3-5.5-12.3-12.3c0-3.3,1.3-6.4,3.6-8.7c2.3-2.3,5.3-3.6,8.5-3.7c6.8-0.1,12.4,5.4,12.4,12.2c0,0.1,0,0.1,0,0.2&#10;&#9;&#9;c0.1,3.2-1.1,6.2-3.3,8.5C381,310.6,377.7,312,374.2,311.9L374.2,311.9z M374.1,288.6c-2.8,0.1-5.5,1.3-7.5,3.3&#10;&#9;&#9;c-4.3,4.2-4.3,11.1-0.1,15.4c2,2.1,4.8,3.2,7.7,3.2l0,0c3,0,5.9-1.2,8-3.4c1.9-2,3-4.7,2.9-7.5l0,0c0-6-4.8-11-10.9-11&#10;&#9;&#9;C374.2,288.7,374.1,288.7,374.1,288.6L374.1,288.6z"/>
	<path class="st2_settings-90 targetColor" d="M232,340.3c0.7-2.8,1.4-5.6,2.1-8.4c0.4-1.4,0.8-2.9,1.3-4.3c0.5-1.8,2.2-3.1,4.1-3c2.2,0.1,4.4,0.3,6.6,0.5&#10;&#9;&#9;c1.2,0.2,2.4,0.2,3.6,0.1c0.9-0.1,1.7-0.4,2.4-1c2.3-2.6,4.5-5.3,6.7-8.1c0.7-1,0.9-2.4,0.5-3.5c-0.8-2.6-1.7-5.2-2.4-7.8&#10;&#9;&#9;c-0.3-1-0.5-2.1-0.6-3.1c0-0.8,0.3-1.5,0.9-2.1c3.8-3,8.1-5.4,12.6-7.1c1.4-0.6,3-0.2,3.9,1c1.9,2.2,3.8,4.2,5.6,6.5&#10;&#9;&#9;c1.2,1.7,3.3,2.6,5.4,2.2c2.9-0.5,5.8-0.8,8.7-1.1c1.1-0.2,2-0.8,2.5-1.8c0.9-1.6,1.8-3.3,2.6-4.9c0.8-1.4,1.5-2.8,2.3-4.2&#10;&#9;&#9;c0.7-1.4,2.3-2.2,3.9-1.7c4.1,1,8.3,2.1,12.4,3.3c1.6,0.5,2.7,2,2.5,3.7c0,2.2-0.3,4.5-0.5,6.8c-0.1,1.1-0.1,2.1-0.1,3.2&#10;&#9;&#9;c0,1.4,0.6,2.7,1.7,3.6c2.3,1.8,4.6,3.6,6.8,5.5c1.3,1.2,3.2,1.5,4.8,0.9c2.8-0.9,5.6-1.8,8.5-2.7c1.9-0.8,4.1,0,5,1.9&#10;&#9;&#9;c1.9,3.3,3.8,6.6,5.6,10c1.3,2.4,1,4-1,5.9c-1.4,1.3-2.9,2.5-4.3,3.7c-1,0.9-2,1.8-3,2.8c-0.8,0.8-1.2,2-1.1,3.1c0.3,3,0.6,6,1,9&#10;&#9;&#9;c0.2,1.7,1.2,3.1,2.8,3.8c1.7,0.9,3.5,1.6,5.2,2.5c1.1,0.5,2.1,1.1,3.1,1.7c1.5,0.8,2.2,2.6,1.7,4.2c-1,3.7-2.1,7.5-3.1,11.2&#10;&#9;&#9;c-0.2,0.6-0.4,1.1-0.8,1.6c-0.6,1.3-1.9,2-3.2,1.9c-2.6-0.2-5.3-0.4-7.9-0.6c-0.2,0-0.4,0-0.6,0c-2.3-0.4-4.6,0.6-5.8,2.6&#10;&#9;&#9;c-1.3,1.9-2.9,3.6-4.3,5.4c-1.4,1.6-1.8,3.8-1,5.8c0.9,2.5,1.7,5,2.4,7.5s0.4,3.9-2,5.3c-3.4,2-6.9,3.9-10.3,5.8&#10;&#9;&#9;c-1.6,1.1-3.7,0.7-4.9-0.8c-1.5-1.6-3-3.4-4.5-5.1c-3.1-3.7-3.9-4-8.7-3.3c-1.9,0.3-3.8,0.5-5.6,0.8c-1.8,0.2-3.4,1.3-4.2,3&#10;&#9;&#9;c-1,2-1.9,4-3,6c-0.6,1-1.2,2-2,2.9c-0.7,0.9-1.8,1.3-2.9,1c-3.9-1.1-7.9-2.2-11.8-3.3c-0.5-0.2-1-0.5-1.4-0.8&#10;&#9;&#9;c-1.3-0.6-2-1.9-1.9-3.2c0.2-2.6,0.4-5.2,0.6-7.8c0-0.8,0-1.6,0-2.4c0-1.3-0.6-2.6-1.6-3.4c-2.2-1.7-4.5-3.5-6.7-5.2&#10;&#9;&#9;c-1.3-1.1-3-1.3-4.6-0.7c-2.5,0.8-5,1.6-7.5,2.4c-0.1,0-0.2,0.1-0.3,0.1c-3.3,0.9-4.4,0.6-6.1-2.4c-1.9-3.3-3.7-6.6-5.4-10&#10;&#9;&#9;c-1-2.1-0.8-3.3,1-4.9s3.8-3.4,5.9-5c2-1.4,3-3.9,2.5-6.3c-0.4-2.7-0.7-5.4-1.1-8.1c-0.1-1.2-0.8-2.2-1.8-2.7&#10;&#9;&#9;c-2.4-1.2-4.8-2.5-7.2-3.7c-1.6-0.8-3.1-1.6-3.9-3.4V340.3z M319.5,348c-1.2-14.2-13.7-24.8-27.9-23.6c-0.1,0-0.2,0-0.3,0&#10;&#9;&#9;c-11.9,1-24.5,12.5-23.1,28c1.3,14.1,13.6,24.5,27.8,23.4C312.5,374.5,321.2,359.3,319.5,348z" style="fill: rgb(89, 195, 5);"/>
	<path class="st1_settings-90" d="M284.1,412.8c-0.3,0-0.6,0-1-0.1l-3.2-0.9c-2.9-0.8-5.7-1.6-8.6-2.4c-0.5-0.2-1-0.4-1.5-0.7l-0.2-0.1&#10;&#9;&#9;c-1.5-0.7-2.4-2.3-2.3-3.9l0.3-3.5c0.1-1.4,0.2-2.9,0.3-4.3c0-0.8,0-1.5,0-2.3c0-1.1-0.5-2.2-1.3-2.9c-2-1.5-4-3.1-6-4.7l-0.7-0.5&#10;&#9;&#9;c-1.1-0.9-2.6-1.1-3.9-0.6c-1.8,0.6-3.5,1.2-5.3,1.7l-2.2,0.7l-0.3,0.1c-3.6,1-5.1,0.4-6.9-2.7c-2.1-3.6-4-7.2-5.4-10&#10;&#9;&#9;c-1.2-2.3-0.9-3.9,1.1-5.7c2.2-2,4.1-3.6,5.9-5c1.8-1.2,2.7-3.5,2.3-5.6c-0.3-1.7-0.5-3.4-0.7-5.1c-0.1-1-0.3-2-0.4-3&#10;&#9;&#9;c-0.1-0.9-0.6-1.8-1.5-2.2c-1-0.5-2-1-3-1.5c-1.4-0.7-2.8-1.5-4.2-2.2c-1.7-0.9-3.4-1.8-4.2-3.8c0-0.1-0.1-0.1-0.1-0.2l-0.1-1&#10;&#9;&#9;c0-0.1,0-0.2,0-0.3l0.6-2.5c0.5-2,1-3.9,1.5-5.9c0.4-1.5,0.8-3,1.3-4.3c0.6-2.1,2.5-3.5,4.6-3.5h0.1c1.5,0,3,0.2,4.4,0.3&#10;&#9;&#9;c0.8,0.1,1.5,0.1,2.3,0.2l0.9,0.1c0.8,0.1,1.7,0.1,2.6,0.1c0.7,0,1.4-0.3,1.9-0.8c2.4-2.8,4.7-5.6,6.6-8c0.6-0.8,0.7-1.9,0.3-2.9&#10;&#9;&#9;c-0.3-1.1-0.7-2.3-1.1-3.4c-0.5-1.5-0.9-2.9-1.4-4.4c-0.4-1.1-0.6-2.2-0.6-3.3c0-1,0.4-2,1.1-2.6c3.9-3,8.2-5.5,12.8-7.2&#10;&#9;&#9;c1.6-0.7,3.5-0.2,4.6,1.2c0.6,0.8,1.3,1.5,2,2.2c1.2,1.4,2.5,2.8,3.6,4.2c1.1,1.5,2.9,2.3,4.8,1.9c1.9-0.3,3.8-0.5,5.6-0.8&#10;&#9;&#9;c1-0.1,2-0.2,3.1-0.4c0.9-0.1,1.6-0.7,2-1.5c0.5-1,1-1.9,1.6-2.9c0.4-0.7,0.7-1.3,1.1-2l0.4-0.8c0.6-1.2,1.2-2.3,1.9-3.5&#10;&#9;&#9;c0.9-1.7,2.8-2.5,4.7-2c5,1.3,8.8,2.3,12.4,3.3c1.9,0.6,3.2,2.4,3,4.4c0,1.5-0.2,3-0.3,4.5c-0.1,0.8-0.1,1.5-0.2,2.3&#10;&#9;&#9;c-0.1,1-0.1,2.1-0.1,3.1c0,1.2,0.5,2.3,1.4,3l1.6,1.3c1.7,1.4,3.5,2.8,5.3,4.3c1.1,1,2.7,1.3,4.2,0.8c1.4-0.4,2.8-0.9,4.1-1.3&#10;&#9;&#9;s2.9-0.9,4.3-1.4c2.6-0.8,4.5-0.1,5.8,2.2c1.9,3.3,3.8,6.6,5.6,10c1.5,2.7,1.1,4.6-1.1,6.7c-0.8,0.8-1.7,1.5-2.5,2.2&#10;&#9;&#9;c-0.6,0.5-1.2,1-1.8,1.5c-1.1,1-2,1.9-2.9,2.8c-0.7,0.7-1,1.6-0.9,2.5l0.2,1.8c0.3,2.4,0.5,4.8,0.8,7.2c0.1,1.4,1.1,2.7,2.4,3.2&#10;&#9;&#9;c0.7,0.4,1.5,0.7,2.2,1c1,0.5,2,1,3,1.5c1.1,0.5,2.2,1.1,3.2,1.8c1.8,1,2.6,3.1,2,5c-1,3.8-2.1,7.5-3.1,11.2&#10;&#9;&#9;c-0.2,0.6-0.4,1.1-0.7,1.6l-0.1,0.1c-0.7,1.5-2.3,2.4-3.9,2.2l-5.5-0.4l-2.7-0.2h-0.5c-2-0.4-4.1,0.6-5.1,2.3c-0.9,1.3-2,2.6-3,3.8&#10;&#9;&#9;c-0.4,0.5-0.9,1-1.3,1.6c-1.2,1.4-1.5,3.4-0.9,5.1c0.8,2.4,1.7,4.9,2.5,7.5c0.9,3,0.3,4.5-2.3,6.1c-3.1,1.8-6.5,3.7-10.4,5.8&#10;&#9;&#9;c-1.9,1.2-4.4,0.8-5.7-1c-1.3-1.4-2.5-2.8-3.7-4.2l-0.8-0.9c-3-3.5-3.5-3.7-8.1-3.1l-3.2,0.5l-2.4,0.3c-1.6,0.1-3,1.1-3.7,2.6l-1,2&#10;&#9;&#9;c-0.6,1.3-1.3,2.7-2,4c-0.6,1.1-1.2,2.1-2,3C286.1,412.3,285.1,412.8,284.1,412.8z M257.6,384.2c1.2,0,2.3,0.4,3.3,1.2l0.7,0.5&#10;&#9;&#9;c2,1.6,4,3.1,6,4.7c1.2,0.9,1.9,2.4,1.9,3.9c0,0.8,0,1.6,0,2.5c-0.1,1.5-0.2,2.9-0.3,4.3c-0.1,1.2-0.2,2.4-0.3,3.5&#10;&#9;&#9;c-0.1,1.1,0.5,2.1,1.5,2.6l0.2,0.1c0.4,0.2,0.8,0.4,1.2,0.5c2.9,0.8,5.7,1.6,8.6,2.4l3.2,0.9c0.8,0.2,1.7-0.1,2.2-0.8&#10;&#9;&#9;c0.7-0.9,1.3-1.8,1.9-2.8c0.7-1.3,1.3-2.6,2-3.9c0.3-0.7,0.6-1.4,1-2c0.9-1.9,2.7-3.1,4.7-3.4l2.4-0.4l3.2-0.5c5-0.7,6-0.3,9.3,3.6&#10;&#9;&#9;l0.8,0.9c1.2,1.4,2.4,2.8,3.6,4.2c0.9,1.3,2.7,1.6,4,0.7c3.8-2,7.2-3.9,10.3-5.8c2.1-1.2,2.4-2.1,1.7-4.5c-0.8-2.6-1.6-5.1-2.4-7.5&#10;&#9;&#9;c-0.9-2.2-0.4-4.7,1.1-6.5c0.4-0.5,0.9-1.1,1.3-1.6c1-1.2,2-2.5,3-3.7c1.4-2.2,3.9-3.4,6.5-2.9c0.1,0,0.2,0,0.3,0l2.7,0.2l5.5,0.4&#10;&#9;&#9;c1.1,0.1,2.1-0.5,2.6-1.5l0.1-0.1c0.3-0.4,0.5-0.9,0.6-1.3c1.1-3.7,2.1-7.5,3.1-11.2c0.4-1.3-0.2-2.8-1.4-3.4c-1-0.6-2-1.2-3.1-1.7&#10;&#9;&#9;c-1-0.5-2-1-3-1.5l-2.2-1c-1.7-0.8-2.9-2.4-3.1-4.3c-0.3-2.4-0.6-4.8-0.8-7.2l-0.2-1.8c-0.2-1.4,0.3-2.7,1.3-3.7&#10;&#9;&#9;c0.9-0.9,1.9-1.9,3-2.9c0.6-0.5,1.2-1,1.8-1.5c0.8-0.7,1.7-1.4,2.5-2.2c1.8-1.7,2-2.9,0.9-5c-1.8-3.3-3.7-6.7-5.6-10&#10;&#9;&#9;c-0.7-1.6-2.6-2.3-4.2-1.6c0,0,0,0,0,0c-1.4,0.4-2.9,0.9-4.3,1.4l-4.2,1.3c-1.9,0.7-4,0.3-5.5-1.1c-1.7-1.5-3.5-2.9-5.2-4.2&#10;&#9;&#9;l-1.6-1.2c-1.3-1-2-2.5-1.9-4.1c0-1.1,0.1-2.2,0.1-3.2c0.1-0.8,0.1-1.5,0.2-2.3c0.1-1.5,0.3-3,0.3-4.4c0.1-1.3-0.7-2.6-2-3&#10;&#9;&#9;c-3.6-1-7.4-2-12.4-3.3c-1.2-0.4-2.6,0.2-3.1,1.4c-0.7,1.1-1.3,2.2-1.9,3.4l-0.4,0.8c-0.4,0.7-0.7,1.3-1.1,2c-0.5,1-1,2-1.6,2.9&#10;&#9;&#9;c-0.6,1.2-1.7,2-3,2.2c-1,0.1-2,0.3-3.1,0.4c-1.8,0.2-3.7,0.5-5.6,0.8c-2.3,0.4-4.6-0.5-6-2.4c-1.2-1.4-2.4-2.8-3.6-4.2&#10;&#9;&#9;c-0.7-0.8-1.3-1.5-2-2.3c-0.7-1-2-1.3-3.1-0.8c-4.5,1.7-8.7,4-12.4,7c-0.4,0.4-0.6,1-0.6,1.5c0,1,0.2,2,0.5,2.9&#10;&#9;&#9;c0.4,1.5,0.9,2.9,1.3,4.3c0.4,1.2,0.7,2.3,1.1,3.5c0.5,1.4,0.3,3-0.6,4.2c-1.9,2.4-4.2,5.3-6.7,8.1c-0.8,0.7-1.8,1.2-2.8,1.2&#10;&#9;&#9;c-0.9,0.1-1.9,0-2.8-0.1l-0.9-0.1l-2.3-0.2c-1.4-0.1-2.9-0.3-4.3-0.3c-1.6-0.1-3,1-3.4,2.5c-0.4,1.3-0.9,2.8-1.3,4.3&#10;&#9;&#9;c-0.5,2-1,3.9-1.5,5.9l-0.6,2.4l0.1,0.8c0.7,1.4,2,2.2,3.5,2.9s2.8,1.5,4.2,2.2l3,1.5c1.2,0.6,2.1,1.8,2.2,3.2c0.1,1,0.3,2,0.4,3.1&#10;&#9;&#9;c0.2,1.7,0.4,3.4,0.7,5c0.5,2.7-0.6,5.4-2.8,6.9c-1.8,1.4-3.6,3-5.8,4.9c-1.5,1.4-1.7,2.3-0.8,4c1.4,2.8,3.3,6.4,5.4,10&#10;&#9;&#9;c1.5,2.6,2.3,2.9,5.3,2.1l0.2-0.1l2.2-0.7c1.8-0.6,3.5-1.1,5.3-1.7C256.4,384.3,257,384.2,257.6,384.2z M232,340.3L232,340.3z&#10;&#9;&#9; M293.9,376.7c-13.7-0.1-25.1-10.5-26.3-24.2c-0.6-7,1.6-13.9,6.2-19.3c9.2-11.2,25.7-12.9,37-3.7c5.6,4.6,9,11.2,9.5,18.4&#10;&#9;&#9;c0.9,6.2-1.1,13.2-5.5,18.7c-4.6,5.8-11.4,9.4-18.8,9.9C295.3,376.7,294.6,376.7,293.9,376.7L293.9,376.7z M293.7,325.1&#10;&#9;&#9;c-0.7,0-1.5,0-2.2,0.1c-6.5,0.7-12.5,4-16.6,9c-4.3,5-6.4,11.6-5.8,18.2c1.2,13.8,13.4,24,27.3,22.8c6.8-0.6,13.1-4,17.4-9.4&#10;&#9;&#9;c4.1-5.2,6.1-11.9,5.2-17.7l0,0C317.9,335,306.8,324.9,293.7,325.1L293.7,325.1z"/>
</g>
<g id="Screwdriver_settings-90">
	<path class="st1_settings-90" d="M252.8,163.4l0.6,0.6c0.4,0.4,0.5,1.1,0.1,1.5l-9.2,10.4c-0.4,0.4-1.1,0.5-1.5,0.1l-0.6-0.6&#10;&#9;&#9;c-0.4-0.4-0.5-1.1-0.1-1.5l9.2-10.4C251.7,163.1,252.4,163,252.8,163.4z"/>
	<path class="st1_settings-90" d="M243.5,176.8c-0.5,0-1.1-0.2-1.5-0.6l0,0c-0.9-0.8-1-2.2-0.2-3.1c0,0,0,0,0,0l8.6-9.7c0.8-0.9,2.2-1,3.1-0.2&#10;&#9;&#9;c0.4,0.4,0.7,0.9,0.7,1.5c0,0.6-0.2,1.2-0.6,1.6l-8.7,9.7c-0.4,0.4-0.9,0.7-1.5,0.7L243.5,176.8z M252.1,164&#10;&#9;&#9;c-0.2,0-0.5,0.1-0.6,0.3l-8.7,9.7c-0.1,0.2-0.2,0.4-0.2,0.6c0,0.2,0.1,0.4,0.3,0.6l0,0c0.3,0.3,0.8,0.3,1.1-0.1c0,0,0,0,0,0&#10;&#9;&#9;l8.7-9.7c0.1-0.2,0.2-0.4,0.2-0.6c0-0.2-0.1-0.4-0.3-0.6C252.5,164.1,252.3,164,252.1,164z"/>
	<line class="st4_settings-90" x1="253.1" y1="163.7" x2="261.5" y2="154.4"/>
	<path class="st1_settings-90" d="M253.1,164.4c-0.2,0-0.3-0.1-0.5-0.2c-0.3-0.3-0.3-0.7-0.1-1l8.3-9.4c0.2-0.3,0.7-0.3,1-0.1c0,0,0,0,0,0&#10;&#9;&#9;c0.3,0.3,0.3,0.7,0.1,1c0,0,0,0,0,0l-8.3,9.4C253.5,164.3,253.3,164.4,253.1,164.4z"/>
	<polygon class="st1_settings-90" points="261.8,155.8 260.2,155.8 260,154.3 263,151.3 263.7,151.9 264.4,152.5 &#9;"/>
</g>
<g id="Character_settings-90">
	<path class="st0_settings-90" d="M234.5,173.3l5.8-2c0,0,4.9-6.3,6.6-6.3s-1.6,4.8-1.4,4.9s7.9-3.7,8.3-1.8s-1.8,5.6-3.1,6.5s-16.3,7-16.3,7&#10;&#9;&#9;L234.5,173.3z"/>
	<path class="st1_settings-90" d="M234.5,182.4c-0.1,0-0.3,0-0.4-0.1c-0.2-0.1-0.3-0.3-0.3-0.6v-8.4c0-0.3,0.2-0.6,0.5-0.7l5.6-1.9&#10;&#9;&#9;c1.3-1.7,5.1-6.4,7-6.4l0,0c0.4,0,0.8,0.2,1,0.6c0.5,0.8-0.1,2.1-1,3.8c2.9-1.2,5.7-2.2,6.9-1.5c0.3,0.2,0.6,0.5,0.7,0.9&#10;&#9;&#9;c0.5,2.3-2,6.2-3.4,7.2s-14.9,6.5-16.4,7.1C234.6,182.4,234.6,182.4,234.5,182.4z M235.2,173.8v6.9c5.9-2.4,14.3-5.9,15.1-6.6&#10;&#9;&#9;c1.2-0.8,3.2-4.3,2.8-5.8c-0.4-0.2-2.4,0.3-5.9,1.8c-1.4,0.6-1.6,0.7-2,0.5c-0.2-0.1-0.3-0.2-0.4-0.4c-0.1-0.4,0-0.7,0.6-1.7&#10;&#9;&#9;c0.5-0.9,0.9-1.8,1.2-2.7c-1,0.3-3.5,2.9-5.9,6c-0.1,0.1-0.2,0.2-0.3,0.2L235.2,173.8z"/>
	<path class="st0_settings-90" d="M143,282.2c0,0.3-0.8,8.5,0,8.5s7.8,1.4,7.8,1.4v-9.8L143,282.2z"/>
	<path class="st1_settings-90" d="M150.8,292.7h-0.1c-3.4-0.6-7.2-1.3-7.7-1.3c-0.2,0-0.5-0.1-0.6-0.3c-0.4-0.4-0.7-1.4-0.1-8.3&#10;&#9;&#9;c0-0.3,0-0.5,0.1-0.6c0-0.4,0.3-0.7,0.7-0.7h7.8c0.4,0,0.7,0.3,0.7,0.7l0,0v9.8c0,0.2-0.1,0.4-0.3,0.5&#10;&#9;&#9;C151.1,292.6,151,292.7,150.8,292.7z M143.4,290c1.3,0.2,4.9,0.8,6.7,1.2v-8.3h-6.5C143.3,287.7,143.3,289.4,143.4,290z&#10;&#9;&#9; M143.5,290.2L143.5,290.2z"/>
	<path class="st1_settings-90" d="M137.7,187.6c-0.1,0.8,3.1,77.2,4.9,96.5c0,0,7.5,1.8,8.4,1.8s13-82,13-82L137.7,187.6z"/>
	<path class="st1_settings-90" d="M151,286.5c-0.9,0-7.3-1.5-8.6-1.8c-0.3-0.1-0.5-0.3-0.5-0.6c-1.7-18.4-5-95.5-4.9-96.6&#10;&#9;&#9;c0.1-0.4,0.4-0.6,0.8-0.6c0.1,0,0.2,0,0.3,0.1l26.3,16.2c0.2,0.1,0.4,0.4,0.3,0.7c0,0.2-3.1,20.8-6.2,41&#10;&#9;&#9;C152.1,286.5,151.8,286.5,151,286.5z M143.2,283.5c3,0.7,6.1,1.4,7.3,1.6c1.3-5,8.2-50.3,12.7-80.9l-24.9-15.3&#10;&#9;&#9;C138.7,198.8,141.6,265.3,143.2,283.5L143.2,283.5z"/>
	<path class="st0_settings-90" d="M164,244.6c0,0-5.5,6.5-6.2,9.1l8,1c0,0,7.3-8.2,7.7-8.3S164,244.6,164,244.6z"/>
	<path class="st1_settings-90" d="M165.8,255.4L165.8,255.4l-8.1-1c-0.2,0-0.4-0.1-0.5-0.3c-0.1-0.2-0.1-0.4-0.1-0.6c0.7-2.7,6.1-9.1,6.3-9.4&#10;&#9;&#9;c0.2-0.2,0.4-0.3,0.7-0.2c10,1.7,10,1.7,10,2.4c0,0.3-0.1,0.5-0.3,0.7c-0.6,0.5-4.9,5.3-7.5,8.2&#10;&#9;&#9;C166.1,255.3,165.9,255.4,165.8,255.4z M158.8,253.1l6.8,0.9c3.7-4.1,5.6-6.2,6.6-7.2c-1.8-0.4-5.3-1-7.8-1.4&#10;&#9;&#9;C162.2,247.7,160.3,250.3,158.8,253.1L158.8,253.1z"/>
	<path class="st1_settings-90" d="M141,173.7c0,0-6.6,18.9-2.4,26.4s46.9,15.9,46.9,15.9l-24.1,29.4l8.4,3c0,0,37.5-9.9,40.6-23.4&#10;&#9;&#9;s-35-37.6-35-37.6"/>
	<path class="st1_settings-90" d="M169.7,249.3c-0.1,0-0.2,0-0.2,0l-8.4-3c-0.4-0.1-0.6-0.5-0.4-0.9c0-0.1,0.1-0.2,0.1-0.2l23.4-28.6&#10;&#9;&#9;c-7-1.4-42.2-9-46.2-16c-4.3-7.7,2.1-26.2,2.4-27c0.1-0.4,0.5-0.6,0.9-0.4c0.4,0.1,0.6,0.5,0.4,0.9c0,0,0,0,0,0&#10;&#9;&#9;c-0.1,0.2-6.5,18.7-2.4,25.9c3.3,5.9,34.6,13.3,46.4,15.6c0.2,0,0.4,0.2,0.5,0.4c0.1,0.2,0,0.5-0.1,0.7l-23.5,28.7l7.2,2.6&#10;&#9;&#9;c3-0.8,37-10.4,39.9-22.9c3-12.9-34.4-36.6-34.7-36.8c-0.3-0.2-0.4-0.7-0.2-1c0,0,0,0,0,0c0.2-0.3,0.6-0.4,1-0.2c0,0,0,0,0,0&#10;&#9;&#9;c1.6,1,38.6,24.4,35.3,38.3s-39.6,23.6-41.1,24L169.7,249.3z"/>
	<path class="st0_settings-90" d="M184.7,126.4c-2.9-0.7-5.6-2.3-7.7-4.4c-1-0.9-1.6-2.2-1.9-3.5c-0.2-1.4,0.5-2.7,1.7-3.3&#10;&#9;&#9;c-1.3-0.8-2.1-2.2-2.1-3.7c-0.1-1.5,0.3-3,1-4.3c0.9-1.7,2.3-3.4,4.3-3.5c-0.7-1.5-1.5-3.2-0.8-4.7c0.4-0.7,0.9-1.4,1.6-1.8&#10;&#9;&#9;c1.2-1,2.6-1.9,4-2.7c0.8-0.4,1.8-0.8,2.4-0.3c0.8-3.1,3.3-5.5,6.4-6.1c1.5-0.3,3.1-0.2,4.5,0.5c1.4,0.9,2.7,2,3.9,3.1&#10;&#9;&#9;c2.2-0.7,5.8-0.2,7.5,1.5c1.5,1.5,2,3.7,1.4,5.7c1.6,0.9,3,2.1,4.2,3.6c1.1,1.5,1.5,3.4,1,5.2c-0.5,1.8-2.2,3.1-4.1,3&#10;&#9;&#9;c1.5,1.6,1.7,4.1,0.3,5.8c-1.4,1.7-3.7,2.3-5.8,1.6c-0.3-0.1-0.6-0.2-0.9-0.2c-0.4,0.1-0.7,0.3-0.9,0.6c-0.9,0.7-2.1,0.5-3.1,1&#10;&#9;&#9;c-1.4,0.8-2.6,1.8-3.8,2.8c-1.2,0.9-2.5,1.7-3.9,2.4c-1.5,0.8-2.8,2.1-4.5,2.6c-1.4,0.5-2.3-0.2-3.6-0.6L184.7,126.4z"/>
	<path class="st1_settings-90" d="M188.4,128.2c-0.7,0-1.3-0.2-1.9-0.4c-0.3-0.1-0.6-0.2-0.9-0.3l-1-0.3l0,0c-3-0.8-5.8-2.4-8-4.7&#10;&#9;&#9;c-1.1-1-1.8-2.4-2.1-3.9c-0.2-1.3,0.3-2.6,1.2-3.5c-1-1-1.5-2.2-1.6-3.6c-0.1-1.6,0.3-3.2,1.1-4.6c0.7-1.7,2.1-3,3.9-3.7&#10;&#9;&#9;c-0.8-1.4-0.9-3-0.4-4.4c0.4-0.8,1-1.6,1.8-2.1c1.3-1.1,2.7-2,4.1-2.8c0.7-0.4,1.5-0.6,2.3-0.6c1.1-3,3.6-5.2,6.8-5.9&#10;&#9;&#9;c1.7-0.4,3.4-0.2,5,0.5c1.3,0.9,2.5,1.9,3.7,3c2.4-0.6,5.9,0,7.8,1.8c1.5,1.5,2.2,3.7,1.8,5.9c1.5,0.9,2.9,2.1,3.9,3.5&#10;&#9;&#9;c1.2,1.7,1.7,3.8,1.1,5.8c-0.5,1.6-1.8,2.9-3.4,3.4c1,1.8,0.8,4.1-0.5,5.7c-1.6,1.9-4.2,2.6-6.6,1.8c-0.2-0.1-0.4-0.1-0.5-0.1&#10;&#9;&#9;c-0.2,0.1-0.3,0.2-0.4,0.3l-0.2,0.2c-0.6,0.4-1.3,0.7-2.1,0.8c-0.4,0-0.8,0.1-1.1,0.3c-0.9,0.5-1.7,1.1-2.5,1.8&#10;&#9;&#9;c-0.4,0.3-0.8,0.7-1.2,1c-1.3,1-2.7,1.8-3.9,2.5c-0.5,0.3-0.9,0.6-1.4,0.9c-1,0.7-2,1.3-3.2,1.7&#10;&#9;&#9;C189.2,128.1,188.8,128.2,188.4,128.2z M184.9,125.8l1,0.3c0.4,0.1,0.7,0.2,1,0.3c0.7,0.4,1.5,0.4,2.3,0.2c1-0.4,2-0.9,2.8-1.6&#10;&#9;&#9;c0.5-0.3,1-0.7,1.5-1c1.3-0.7,2.6-1.5,3.8-2.4c0.4-0.3,0.8-0.6,1.2-0.9c0.8-0.7,1.8-1.4,2.8-1.9c0.5-0.2,1-0.4,1.5-0.4&#10;&#9;&#9;c0.5,0,1-0.2,1.4-0.5l0.1-0.1c0.3-0.3,0.7-0.5,1.1-0.6c0.4,0,0.8,0,1.1,0.2c1.8,0.7,3.9,0.1,5.1-1.3c1.1-1.5,1-3.5-0.2-4.9&#10;&#9;&#9;c-0.2-0.2-0.3-0.5-0.2-0.8c0.1-0.2,0.4-0.4,0.7-0.4c1.6,0,2.9-1,3.4-2.5c0.4-1.6,0.1-3.3-0.9-4.6c-1.1-1.4-2.4-2.5-3.9-3.3&#10;&#9;&#9;c-0.3-0.2-0.4-0.5-0.3-0.8c0.5-1.8,0-3.7-1.3-5c-1.5-1.5-4.8-1.9-6.8-1.3l0,0c-0.3,0.1-0.7-0.1-0.9-0.4c-1.1-1-2.2-1.9-3.4-2.8&#10;&#9;&#9;c-1.3-0.6-2.7-0.7-4.1-0.4c-2.8,0.6-5.1,2.8-5.8,5.5c-0.1,0.2-0.2,0.4-0.4,0.5c-0.2,0.1-0.5,0-0.7-0.1c-0.4-0.3-1.1,0-1.7,0.3&#10;&#9;&#9;c-1.4,0.8-2.7,1.6-3.9,2.6c-0.6,0.4-1.1,1-1.4,1.6c-0.5,1.2,0.1,2.8,0.8,4.1c0.1,0.2,0.1,0.5,0,0.7c-0.1,0.2-0.3,0.3-0.6,0.3&#10;&#9;&#9;c-2,0.1-3.2,2.2-3.7,3.1c-0.7,1.2-1,2.5-0.9,3.9c0.1,1.3,0.7,2.4,1.8,3.2c0.2,0.1,0.4,0.4,0.4,0.7c0,0.3-0.2,0.5-0.4,0.6&#10;&#9;&#9;c-0.9,0.5-1.5,1.5-1.3,2.6c0.2,1.2,0.8,2.3,1.7,3.1C179.6,123.6,182.2,125.1,184.9,125.8L184.9,125.8z"/>
	<path class="st0_settings-90" d="M205.5,119c0,0,2.2,7.2,1,8.2s-3.7-0.6-3.7-0.6"/>
	<path class="st1_settings-90" d="M205.5,128.3c-1.1-0.1-2.2-0.5-3.1-1.1c-0.3-0.2-0.4-0.6-0.2-1s0.6-0.4,1-0.2c0.8,0.5,2.3,1.1,2.9,0.7&#10;&#9;&#9;c0.4-0.5-0.2-4-1.2-7.5c-0.2-0.4,0-0.8,0.4-0.9c0.4-0.2,0.8,0,0.9,0.4c0,0,0,0.1,0,0.1c0.9,2.9,2.2,7.8,0.8,9&#10;&#9;&#9;C206.6,128.1,206.1,128.3,205.5,128.3z"/>
	<path class="st0_settings-90" d="M208.1,105.4c0.3,0.3,0.5,0.7,0.6,1.2c0.2,1.6,0.2,3.2-0.2,4.8c-0.6,3.1-1.4,6.2-2.4,9.2&#10;&#9;&#9;c-1.2,4-2.5,8-3.9,11.9c-0.9,2.5-7.5,0.6-8.4-0.5l-1.9,10.4c0,0-3.4-0.1-8-4.1s-4.3-5.3-4.3-5.3l3.8-11.5c0,0,4.4,1.3,8.4-3.1&#10;&#9;&#9;c0.6-0.7,1.2-1.9,2-2.5c0.9-0.7,2.1-0.5,2.9-1.5c0.8-0.9,1.1-2.2,0.8-3.4c-0.1-0.2-0.1-0.6,0.1-0.7c0.1-0.1,0.3-0.1,0.4-0.1&#10;&#9;&#9;c1.8-0.4,2.9-2.1,2.6-3.8c0,0,0,0,0,0c1.7,0.5,3.3-0.8,4.5-2.1c-0.4,0.4,2.6,0.9,2.6,0.9C207.8,105.2,208,105.3,208.1,105.4z"/>
	<path class="st1_settings-90" d="M191.8,143.1L191.8,143.1c-0.2,0-3.7-0.1-8.5-4.3c-4.4-3.9-4.6-5.5-4.5-6l3.9-11.5c0.1-0.4,0.5-0.6,0.9-0.4&#10;&#9;&#9;c0.2,0,4,1.1,7.7-2.9c0.3-0.3,0.5-0.6,0.7-1c0.4-0.6,0.8-1.2,1.4-1.7c0.4-0.3,0.9-0.5,1.4-0.6c0.5-0.1,1-0.4,1.4-0.8&#10;&#9;&#9;c0.6-0.8,0.9-1.8,0.6-2.7c-0.2-0.5-0.1-1,0.3-1.4c0.2-0.2,0.5-0.3,0.8-0.3c0.7-0.1,1.3-0.5,1.6-1.1c0.4-0.6,0.5-1.2,0.4-1.9&#10;&#9;&#9;c-0.1-0.2,0-0.5,0.2-0.7c0.2-0.2,0.4-0.2,0.7-0.2c1.3,0.4,2.7-0.8,3.8-1.9l0,0c0.3-0.3,0.7-0.3,1,0c0,0,0,0,0,0&#10;&#9;&#9;c0.1,0.1,0.1,0.1,0.1,0.2c0.7,0.2,1.3,0.4,2,0.5c0.1,0,0.2,0,0.2,0.1c0.3,0.1,0.5,0.2,0.7,0.4l0,0c0.4,0.4,0.7,1,0.8,1.6&#10;&#9;&#9;c0.3,1.7,0.2,3.4-0.2,5.1c-0.6,2.9-1.3,5.7-2.2,8.5l-0.3,0.9c-1.2,4-2.5,8-3.9,12c-0.4,0.9-1.2,1.5-2.2,1.6&#10;&#9;&#9;c-2.2,0.2-4.4-0.2-6.4-1.2l-1.7,9.3C192.4,142.9,192.1,143.2,191.8,143.1z M180.2,133.1c0.1,0.3,0.5,1.6,4,4.7c2,1.9,4.4,3.2,7,3.8&#10;&#9;&#9;l1.8-9.6c0.1-0.4,0.4-0.6,0.8-0.6c0.2,0,0.3,0.1,0.4,0.2c0.5,0.6,4,1.8,6.1,1.4c0.6-0.1,1-0.4,1.1-0.7c1.4-3.9,2.7-7.9,3.9-11.9&#10;&#9;&#9;l0.3-0.9c0.9-2.7,1.6-5.5,2.1-8.2c0.4-1.5,0.4-3,0.2-4.5c-0.1-0.5-0.2-0.7-0.3-0.8l0,0c-0.1-0.1-0.2-0.1-0.3-0.2&#10;&#9;&#9;c-0.8-0.1-1.6-0.3-2.4-0.6c-1,1.1-2.3,1.8-3.7,1.9c0,0.7-0.3,1.4-0.7,2.1c-0.6,0.9-1.5,1.5-2.5,1.7l0,0c0.3,1.4,0,2.9-0.9,4&#10;&#9;&#9;c-0.5,0.6-1.2,1-2,1.2c-0.4,0.1-0.7,0.3-1,0.5c-0.4,0.4-0.7,0.8-1,1.3c-0.2,0.4-0.5,0.8-0.8,1.1c-3.4,3.7-7,3.7-8.5,3.4&#10;&#9;&#9;L180.2,133.1z"/>
	<path class="st0_settings-90" d="M202.9,129.5c-2.4-0.2-4.3-2.2-4.5-4.6"/>
	<path class="st1_settings-90" d="M202.9,130.2L202.9,130.2c-2.8-0.2-4.9-2.4-5.2-5.2c-0.1-0.4,0.2-0.7,0.6-0.8s0.7,0.2,0.8,0.6&#10;&#9;&#9;c0.1,2.1,1.7,3.8,3.8,4c0.4,0,0.7,0.3,0.7,0.7C203.7,129.9,203.4,130.3,202.9,130.2L202.9,130.2z"/>
	<path class="st0_settings-90" d="M197.1,119.3c0.2-1,0.1-2.1-0.3-3.1c-0.2-0.8-0.5-1.5-0.9-2.2c-0.4-0.7-1.2-1.2-2-1.3c-0.7,0-1.4,0.3-1.9,0.8&#10;&#9;&#9;c-0.5,0.5-0.9,1.2-1.1,1.8c-1,3-0.4,6.4,1.7,8.8l-0.1-0.3"/>
	<path class="st1_settings-90" d="M192.6,124.8c-0.2,0-0.4-0.1-0.5-0.2c-2.3-2.6-3-6.2-1.9-9.5c0.3-0.8,0.7-1.5,1.2-2.1c0.6-0.7,1.6-1,2.5-1&#10;&#9;&#9;c1,0.1,2,0.7,2.5,1.6c0.5,0.8,0.8,1.6,1,2.4c0.4,1.1,0.5,2.3,0.3,3.5c-0.1,0.4-0.5,0.6-0.9,0.5c-0.4-0.1-0.6-0.5-0.5-0.9&#10;&#9;&#9;c0,0,0,0,0,0c0.1-0.9,0-1.8-0.3-2.7c-0.2-0.7-0.5-1.4-0.8-2.1c-0.3-0.5-0.8-0.9-1.4-1c-0.5,0-1,0.2-1.4,0.6c-0.4,0.5-0.7,1-0.9,1.6&#10;&#9;&#9;c-0.9,2.6-0.4,5.4,1.2,7.6c0.2,0.1,0.3,0.2,0.4,0.3l0.1,0.3c0.2,0.3,0.1,0.7-0.2,0.9C192.8,124.8,192.7,124.8,192.6,124.8z"/>
	<path class="st1_settings-90" d="M193.7,132.1c0,0-3.1-2.1-4-4.9c0,0-1.6,6.2,3.1,9.5L193.7,132.1z"/>
	<path class="st1_settings-90" d="M192.9,137.4c-0.1,0-0.3,0-0.4-0.1c-5.1-3.5-3.5-10-3.4-10.2c0.1-0.3,0.3-0.5,0.7-0.5c0.3,0,0.6,0.2,0.7,0.5&#10;&#9;&#9;c0.8,2.5,3.7,4.5,3.7,4.5c0.2,0.2,0.3,0.4,0.3,0.7l-0.9,4.6c0,0.2-0.2,0.4-0.4,0.5C193,137.4,193,137.4,192.9,137.4z M190.1,129.6&#10;&#9;&#9;c-0.1,2.2,0.7,4.3,2.2,5.8l0.6-3C191.9,131.6,190.9,130.7,190.1,129.6L190.1,129.6z"/>
	<ellipse transform="matrix(0.3171 -0.9484 0.9484 0.3171 30.134 271.4505)" class="st1_settings-90" cx="203.6" cy="114.8" rx="1.5" ry="0.6"/>
	<path class="st2_settings-90 targetColor" d="M198.1,142.4c-0.7-2-13.5-17.3-22.8-13.6s-28.9,32-34.3,44.9l35.2,16.8C176.2,190.6,201.7,153.4,198.1,142.4z" style="fill: rgb(89, 195, 5);"/>
	<path class="st2_settings-90 targetColor" d="M182.8,163.2c0,0,3.2,17.4,15.3,22.5s38.5-2.1,38.5-2.1v-13.3c0,0-16.5,6.6-24.6,0s-13.9-27.9-13.9-27.9&#10;&#9;&#9;L182.8,163.2z" style="fill: rgb(89, 195, 5);"/>
	<path class="st1_settings-90" d="M157.8,253.7c0,0-4.2,7.7-3,8.4s19.1,0.1,18.7-0.9s-7.7-6.5-7.7-6.5L157.8,253.7z"/>
	<path class="st1_settings-90" d="M159.9,263.2c-2.8,0-5-0.1-5.5-0.5s-1.8-1.1,2.8-9.4c0.1-0.3,0.4-0.4,0.7-0.4l8,1c0.1,0,0.2,0.1,0.3,0.1&#10;&#9;&#9;c2.2,1.7,7.5,5.7,7.9,6.8c0.1,0.3,0,0.7-0.3,0.9C172.9,262.6,165.3,263.2,159.9,263.2z M155.2,261.5c1.8,0.5,14.1,0.1,17.2-0.6&#10;&#9;&#9;c-2.2-2-4.5-3.8-6.9-5.6l-7.3-0.9C156.6,257.3,155.1,260.6,155.2,261.5z M155.2,261.6L155.2,261.6z"/>
	<path class="st1_settings-90" d="M143,290.6c0,0-1.2,8.1-0.4,8.6s20.2,0.1,19.3-1.5s-11.1-5.8-11.1-5.8L143,290.6z"/>
	<path class="st1_settings-90" d="M147.3,300.1c-1.7,0.1-3.3,0-5-0.3c-0.4-0.2-1.2-0.7,0-9.3c0-0.4,0.4-0.6,0.8-0.6c0,0,0,0,0,0l7.8,1.4h0.1&#10;&#9;&#9;c2.4,1,10.5,4.4,11.4,6c0.2,0.4,0.1,0.8-0.2,1.1C161.2,299.7,152.9,300.1,147.3,300.1z M143.2,298.8L143.2,298.8z M143.2,298.6&#10;&#9;&#9;c1.9,0.3,14.9,0,17.8-0.9c-1.4-1.1-6.1-3.3-10.3-5l-7-1.2C143.3,293.9,143.1,296.2,143.2,298.6L143.2,298.6z"/>
	<path class="st0_settings-90" d="M162.9,211.3c-0.1,0-0.1,0-0.2,0c-0.8-0.3-19.4-6.8-24.4-10.7c-0.2-0.2-0.2-0.5,0-0.7c0.2-0.2,0.4-0.2,0.6-0.1&#10;&#9;&#9;c4.9,3.7,24,10.4,24.2,10.5c0.3,0.1,0.4,0.4,0.3,0.7c0,0,0,0,0,0C163.3,211.2,163.2,211.3,162.9,211.3z"/>
	<path class="st1_settings-90" d="M211.6,188.6c-2.3,0-4.9-0.1-7.6-0.3c-17.4-1.5-24.9-28.3-25.2-29.4c-0.1-0.4,0.1-0.8,0.5-0.9&#10;&#9;&#9;c0.4-0.1,0.8,0.1,0.9,0.5l0,0c0.1,0.3,7.6,27,24,28.4c16.7,1.4,25.9-2.4,26-2.4c0.4-0.1,0.8,0,0.9,0.4c0.2,0.4,0,0.8-0.4,0.9&#10;&#9;&#9;c0,0,0,0,0,0C230.3,185.9,223.8,188.6,211.6,188.6z"/>
	<path class="st1_settings-90" d="M208.4,167.1c-0.2,0-0.4-0.1-0.6-0.3c-1.8-2.2-9.1-16.8-10.1-22c-0.9-4.6-3.6-6.4-3.6-6.4&#10;&#9;&#9;c-0.3-0.2-0.4-0.7-0.2-1c0.2-0.3,0.6-0.4,0.9-0.2c0.1,0.1,3.2,2.1,4.2,7.4c1,5,8.3,19.4,9.9,21.4c0.2,0.3,0.2,0.7-0.1,1&#10;&#9;&#9;c0,0,0,0,0,0C208.7,167,208.5,167.1,208.4,167.1z"/>
</g>
</svg>