<svg version="1.1" id="图层_1" xmlns="http://www.w3.org/2000/svg" xmlns:xlink="http://www.w3.org/1999/xlink" x="0px"
  y="0px" width="100%" height="100%" viewBox="0 0 115.7 147.2"
  enable-background="new 0 0 115.7 147.2" xml:space="preserve" class="style-removed" preserveAspectRatio="xMidYMid meet"
  data-parent="shape_a1N99IJpXX">
  <g>
    <g>
      <g>
        <linearGradient id="SVGID_1__mMNUoBixDs" gradientUnits="userSpaceOnUse" x1="-628.4714" y1="272.2159"
          x2="-628.4586" y2="272.2159" gradientTransform="matrix(0.9447 -0.328 0.328 0.9447 546.9102 -381.5832)">
          <stop offset="0" stop-color="#181818"></stop>
          <stop offset="1" stop-color="#171717"></stop>
        </linearGradient>
        <path fill="url(#SVGID_1__mMNUoBixDs)" d="M42.5,81.7L42.5,81.7L42.5,81.7C42.5,81.7,42.5,81.7,42.5,81.7z"
          stroke-width="0"></path>

        <linearGradient id="SVGID_2__djiIF11fMr" gradientUnits="userSpaceOnUse" x1="-635.2884" y1="306.8062"
          x2="-633.8054" y2="285.889" gradientTransform="matrix(0.9447 -0.328 0.328 0.9447 546.9102 -381.5832)">
          <stop offset="0" stop-color="#181818"></stop>
          <stop offset="1" stop-color="#171717"></stop>
        </linearGradient>
        <path fill="url(#SVGID_2__djiIF11fMr)" d="M39.3,106C39.3,106,39.3,106,39.3,106c-0.5,0.9-0.8,2-0.8,3.1c-0.1,3.5,2.5,6.5,5.9,7
          c3.8,0.6,7.4-2.1,7.8-5.9c0.3-2.2-0.5-4.2-1.9-5.7l0,0c0,0,0,0,0,0c-0.1-0.2-0.3-0.3-0.5-0.4c-1.6-1.5-6.4-7-7.4-15.5
          C42.6,90.2,43,100.7,39.3,106z" stroke-width="0"></path>
      </g>
      <g>

        <linearGradient id="SVGID_3__gAnjpJALzx" gradientUnits="userSpaceOnUse" x1="-628.4714" y1="272.2159"
          x2="-628.4586" y2="272.2159" gradientTransform="matrix(0.9447 -0.328 0.328 0.9447 546.9102 -381.5832)">
          <stop offset="0" stop-color="#181818"></stop>
          <stop offset="1" stop-color="#171717"></stop>
        </linearGradient>
        <path fill="url(#SVGID_3__gAnjpJALzx)" d="M42.5,81.7L42.5,81.7L42.5,81.7C42.5,81.7,42.5,81.7,42.5,81.7z"
          stroke-width="0"></path>

        <linearGradient id="SVGID_4__d95s2er3az" gradientUnits="userSpaceOnUse" x1="-667.9573" y1="271.7687"
          x2="-594.2787" y2="258.8645" gradientTransform="matrix(0.9447 -0.328 0.328 0.9447 546.9102 -381.5832)">
          <stop offset="3.942397e-02" stop-color="#181818"></stop>
          <stop offset="1" stop-color="#171717"></stop>
        </linearGradient>
        <path fill="url(#SVGID_4__d95s2er3az)" d="M0.1,76.9c-1,11.1,7.1,21.3,18.2,22.9c5.1,0.7,9.9-0.3,14-2.8c2.6-1.5,6-0.6,7.4,2
          c0,0,0,0.1,0,0.1c1.7,3.4-0.2,6.6-0.3,6.8c3.7-5.3,3.2-15.8,3.1-17.4c-0.3-2.1-0.3-4.4,0-6.9l0,0c0,0,0,0,0,0l0,0
          C46.9,51.2,75.6,53.2,83,54.3c-24-5.6-38.6,2.7-60.2,3.2C11.3,56.6,1.1,65.1,0.1,76.9z" stroke-width="0"></path>

        <linearGradient id="SVGID_5__YiJLltUh2G" gradientUnits="userSpaceOnUse" x1="-629.2351" y1="247.9525"
          x2="-539.114" y2="230.4694" gradientTransform="matrix(0.9447 -0.328 0.328 0.9447 546.9102 -381.5832)">
          <stop offset="0" stop-color="#181818"></stop>
          <stop offset="1" stop-color="#171717"></stop>
        </linearGradient>
        <path fill="url(#SVGID_5__YiJLltUh2G)" d="M92.9,0.4C77.5-2.2,63.1,8.5,61.1,23.9c0,0.2,0,0.3,0,0.5c-0.5,3.8-4.8,30.5-38.2,33.1l0,0
          C44.4,57,59.1,48.7,83,54.3c0.6,0.1,1.2,0.2,1.8,0.3c15.4,2,29.4-9.2,30.8-24.7C116.9,15.7,106.9,2.7,92.9,0.4z"
          stroke-width="0"></path>
      </g>
    </g>

    <linearGradient id="SVGID_6__UtcdMUnU6j" gradientUnits="userSpaceOnUse" x1="667.8522" y1="-3191.2024" x2="693.2859"
      y2="-3191.2024" gradientTransform="matrix(-0.2885 0.9575 -0.9575 -0.2885 -2803.3938 -1437.838)">
      <stop offset="0" stop-color="#f44250"></stop>
<!--      <stop offset="1" stop-color="#1515e5"></stop>-->
    </linearGradient>
    <circle fill="url(#SVGID_6__UtcdMUnU6j)" cx="55.8" cy="134.5" r="12.7" stroke-width="0"></circle>
  </g>
</svg>
